<?xml version="1.0" encoding="utf-8"?>
<!-- Generator: Adobe Illustrator 24.0.0, SVG Export Plug-In . SVG Version: 6.00 Build 0)  -->
<svg version="1.1" id="Layer_1" xmlns="http://www.w3.org/2000/svg" xmlns:xlink="http://www.w3.org/1999/xlink" x="0px" y="0px"
	 viewBox="0 0 1600 3099" style="enable-background:new 0 0 1600 3099;" xml:space="preserve">
<style type="text/css">
	.st0{fill:#F5D1CA;}
	.st1{fill:#7BB8D6;}
	.st2{fill:#F1C4D0;}
	.st3{fill:#66978C;}
	.st4{fill:#E8C18E;}
	.st5{fill:#E08B86;}
	.st6{fill:#EDDFB2;}
	.st7{fill:#85DDB3;}
</style>
<path class="st0" d="M378.24,201.56c-6.02,8.11,6.81,10.47,6.81,10.47l7.07-10.47H378.24z"/>
<path class="st0" d="M427.61,167.17c7.25-0.6,1.3-8.83,1.3-8.83l-8.97,1.16L427.61,167.17z"/>
<path class="st0" d="M380.76,171.62c1.4,5.26-6.25-1.28-6.25-1.28l-1.42-6.39L380.76,171.62z"/>
<path class="st0" d="M343.85,140.74c7.25-0.6,1.3-8.83,1.3-8.83l-8.97,1.16L343.85,140.74z"/>
<path class="st0" d="M390.02,145.29c0,0-5.23,2.36-3.14,5.76s4.71,0.79,5.23,0c0.52-0.79-3.66,1.57-2.88-2.09
	C390.02,145.29,390.02,145.29,390.02,145.29z"/>
<path class="st0" d="M428.1,396.22c7.25-0.6,1.3-8.83,1.3-8.83l-8.97,1.16L428.1,396.22z"/>
<path class="st0" d="M381.25,400.67c1.4,5.26-6.25-1.28-6.25-1.28l-1.42-6.39L381.25,400.67z"/>
<path class="st0" d="M390.51,374.34c0,0-5.23,2.36-3.14,5.76c2.09,3.4,4.71,0.79,5.23,0c0.52-0.79-3.66,1.57-2.88-2.09
	S390.51,374.34,390.51,374.34z"/>
<path class="st0" d="M271.42,306.96c-9.99,1.48-2.59,12.22-2.59,12.22l12.4-2.41L271.42,306.96z"/>
<path class="st0" d="M330.64,317.55c5.55,4.71,7.16-5.32,7.16-5.32l-7.16-5.53V317.55z"/>
<path class="st0" d="M294.37,287.56c-2.73,4.71-3.52-5.32-3.52-5.32l3.52-5.53V287.56z"/>
<path class="st0" d="M253.85,251.32c7.25-0.6,1.3-8.83,1.3-8.83l-8.97,1.16L253.85,251.32z"/>
<path class="st0" d="M319.54,275.49c0,0-5.37-2.04-6.29,1.85c-0.93,3.89,2.78,3.89,3.7,3.7c0.93-0.19-3.7-1.48-0.56-3.52
	C319.54,275.49,319.54,275.49,319.54,275.49z"/>
<path class="st0" d="M261.42,242.18c0,0-4.81-4.44-4.44-0.74C257.35,245.14,264.2,244.22,261.42,242.18z"/>
<path class="st0" d="M524.5,397.58c9.99-1.48,2.59-12.22,2.59-12.22l-12.4,2.41L524.5,397.58z"/>
<path class="st0" d="M218.27,381.99c-5.55-4.71-7.16,5.32-7.16,5.32l7.16,5.53V381.99z"/>
<path class="st0" d="M254.55,411.97c2.73-4.71,3.52,5.32,3.52,5.32l-3.52,5.53L254.55,411.97z"/>
<path class="st0" d="M258.8,459.91c-5.55-4.71-7.16,5.32-7.16,5.32l7.16,5.53V459.91z"/>
<path class="st0" d="M229.38,424.04c0,0,5.37,2.04,6.29-1.85c0.93-3.89-2.78-3.89-3.7-3.7c-0.93,0.19,3.7,1.48,0.56,3.52
	C229.38,424.04,229.38,424.04,229.38,424.04z"/>
<path class="st0" d="M259.74,746.61c-6.02,8.11,6.81,10.47,6.81,10.47l7.07-10.47H259.74z"/>
<path class="st0" d="M262.25,716.67c1.4,5.26-6.25-1.28-6.25-1.28l-1.42-6.39L262.25,716.67z"/>
<path class="st0" d="M225.34,685.79c7.25-0.6,1.3-8.83,1.3-8.83l-8.97,1.16L225.34,685.79z"/>
<path class="st0" d="M271.51,690.34c0,0-5.23,2.36-3.14,5.76c2.09,3.4,4.71,0.79,5.23,0c0.52-0.79-3.66,1.57-2.88-2.09
	S271.51,690.34,271.51,690.34z"/>
<path class="st0" d="M206.86,707.88c0,0-6.54,0.26-3.66,2.62C206.08,712.85,210.27,707.35,206.86,707.88z"/>
<path class="st0" d="M1407.46,319.96c6.02-8.11-6.81-10.47-6.81-10.47l-7.07,10.47H1407.46z"/>
<path class="st0" d="M1485.77,649.03c9.99-1.48,2.59-12.22,2.59-12.22l-12.4,2.41L1485.77,649.03z"/>
<path class="st0" d="M1462.83,668.43c2.73-4.71,3.52,5.32,3.52,5.32l-3.52,5.53V668.43z"/>
<path class="st0" d="M1479.93,810c5.55,4.71,7.17-5.32,7.17-5.32l-7.17-5.53V810z"/>
<path class="st0" d="M1497.46,209.38c6.02-8.11-6.81-10.47-6.81-10.47l-7.07,10.47H1497.46z"/>
<path class="st0" d="M1448.09,243.77c-7.25,0.6-1.3,8.83-1.3,8.83l8.97-1.16L1448.09,243.77z"/>
<path class="st0" d="M1494.95,239.32c-1.4-5.26,6.25,1.28,6.25,1.28l1.42,6.39L1494.95,239.32z"/>
<path class="st0" d="M1531.85,270.2c-7.25,0.6-1.3,8.83-1.3,8.83l8.97-1.16L1531.85,270.2z"/>
<path class="st0" d="M1485.68,265.65c0,0,5.23-2.36,3.14-5.76c-2.09-3.4-4.71-0.79-5.23,0s3.66-1.57,2.88,2.09
	C1485.68,265.65,1485.68,265.65,1485.68,265.65z"/>
<path class="st0" d="M1541.95,418.32c-1.4-5.26,6.25,1.28,6.25,1.28l1.42,6.39L1541.95,418.32z"/>
<path class="st0" d="M1550.33,248.11c0,0,6.54-0.26,3.66-2.62C1551.12,243.14,1546.93,248.64,1550.33,248.11z"/>
<path class="st0" d="M1071.66,697.62c-6.02,8.11,6.81,10.47,6.81,10.47l7.07-10.47H1071.66z"/>
<path class="st0" d="M1209.27,414.01c7.25-0.6,1.3-8.83,1.3-8.83l-8.97,1.16L1209.27,414.01z"/>
<path class="st0" d="M1189.95,788.9c-1.4-5.26,6.25,1.28,6.25,1.28l1.42,6.39L1189.95,788.9z"/>
<path class="st0" d="M1180.68,815.23c0,0,5.23-2.36,3.14-5.76c-2.09-3.4-4.71-0.79-5.23,0s3.66-1.57,2.88,2.09
	C1180.68,815.23,1180.68,815.23,1180.68,815.23z"/>
<path class="st0" d="M1462.46,646.37c6.02-8.11-6.81-10.47-6.81-10.47l-7.07,10.47H1462.46z"/>
<path class="st0" d="M1459.95,676.32c-1.4-5.26,6.25,1.28,6.25,1.28l1.42,6.39L1459.95,676.32z"/>
<path class="st0" d="M1450.68,702.65c0,0,5.23-2.36,3.14-5.76c-2.09-3.4-4.71-0.79-5.23,0c-0.52,0.79,3.66-1.57,2.88,2.09
	C1450.68,702.65,1450.68,702.65,1450.68,702.65z"/>
<path class="st0" d="M580.04,1121.55c5.55,4.71,7.16-5.32,7.16-5.32l-7.16-5.53V1121.55z"/>
<path class="st0" d="M573.06,1034.42c5.26-1.4-1.28,6.25-1.28,6.25l-6.39,1.42L573.06,1034.42z"/>
<path class="st0" d="M542.17,1071.32c-0.6-7.25-8.83-1.3-8.83-1.3l1.16,8.97L542.17,1071.32z"/>
<path class="st0" d="M546.72,1025.15c0,0,2.36,5.23,5.76,3.14c3.4-2.09,0.79-4.71,0-5.23s1.57,3.66-2.09,2.88
	C546.72,1025.15,546.72,1025.15,546.72,1025.15z"/>
<path class="st0" d="M564.26,1089.8c0,0,0.26,6.54,2.62,3.66S563.74,1086.4,564.26,1089.8z"/>
<path class="st0" d="M492.66,1125.5c5.55,4.71,7.16-5.32,7.16-5.32l-7.16-5.53V1125.5z"/>
<path class="st0" d="M481.55,1083.45c0,0-5.37-2.04-6.29,1.85c-0.93,3.89,2.78,3.89,3.7,3.7c0.93-0.19-3.7-1.48-0.56-3.52
	C481.55,1083.45,481.55,1083.45,481.55,1083.45z"/>
<path class="st0" d="M568.33,926.37c-0.6-7.25-8.83-1.3-8.83-1.3l1.16,8.97L568.33,926.37z"/>
<path class="st0" d="M572.89,880.2c0,0,2.36,5.23,5.76,3.14c3.4-2.09,0.79-4.71,0-5.23c-0.79-0.52,1.57,3.66-2.09,2.88
	C572.89,880.2,572.89,880.2,572.89,880.2z"/>
<path class="st0" d="M136.94,977.29c-4.71,5.55,5.32,7.16,5.32,7.16l5.53-7.16H136.94z"/>
<path class="st0" d="M177.82,537.47c0,0,2.04-5.37-1.85-6.29c-3.89-0.93-3.89,2.78-3.7,3.7c0.19,0.93,1.48-3.7,3.52-0.56
	C177.82,537.47,177.82,537.47,177.82,537.47z"/>
<path class="st0" d="M134.39,948.6c0,0,4.44-4.81,0.74-4.44S132.35,951.38,134.39,948.6z"/>
<path class="st0" d="M40.95,279.43c6.02-8.11-6.81-10.47-6.81-10.47l-7.07,10.47H40.95z"/>
<path class="st0" d="M38.44,309.37c-1.4-5.26,6.25,1.28,6.25,1.28l1.42,6.39L38.44,309.37z"/>
<path class="st0" d="M29.17,335.7c0,0,5.23-2.36,3.14-5.76s-4.71-0.79-5.23,0s3.66-1.57,2.88,2.09S29.17,335.7,29.17,335.7z"/>
<path class="st0" d="M40.46,50.37c6.02-8.11-6.81-10.47-6.81-10.47l-7.07,10.47H40.46z"/>
<path class="st0" d="M37.95,80.32c-1.4-5.26,6.25,1.28,6.25,1.28l1.42,6.39L37.95,80.32z"/>
<path class="st0" d="M28.68,106.65c0,0,5.23-2.36,3.14-5.76c-2.09-3.4-4.71-0.79-5.23,0s3.66-1.57,2.88,2.09
	S28.68,106.65,28.68,106.65z"/>
<path class="st0" d="M164.65,69.02c-2.73,4.71-3.52-5.32-3.52-5.32l3.52-5.53V69.02z"/>
<path class="st0" d="M160.39,21.08c5.55,4.71,7.16-5.32,7.16-5.32l-7.16-5.53V21.08z"/>
<path class="st0" d="M189.82,56.95c0,0-5.37-2.04-6.29,1.85s2.78,3.89,3.7,3.7c0.93-0.19-3.7-1.48-0.56-3.52
	S189.82,56.95,189.82,56.95z"/>
<path class="st0" d="M131.7,23.64c0,0-4.81-4.44-4.44-0.74C127.63,26.6,134.48,25.67,131.7,23.64z"/>
<path class="st0" d="M182.09,133.35c-7.25,0.6-1.3,8.83-1.3,8.83l8.97-1.16L182.09,133.35z"/>
<path class="st0" d="M231.77,295.03c9.99-1.48,2.59-12.22,2.59-12.22l-12.4,2.41L231.77,295.03z"/>
<path class="st0" d="M208.83,314.43c2.73-4.71,3.52,5.32,3.52,5.32l-3.52,5.53V314.43z"/>
<path class="st0" d="M249.34,350.67c-7.25,0.6-1.3,8.83-1.3,8.83l8.97-1.16L249.34,350.67z"/>
<path class="st0" d="M183.65,326.5c0,0,5.37,2.04,6.29-1.85s-2.78-3.89-3.7-3.7c-0.93,0.19,3.7,1.48,0.56,3.52
	S183.65,326.5,183.65,326.5z"/>
<path class="st0" d="M241.77,359.81c0,0,4.81,4.44,4.44,0.74C245.84,356.85,238.99,357.77,241.77,359.81z"/>
<path class="st0" d="M248.65,190.02c-2.73,4.71-3.52-5.32-3.52-5.32l3.52-5.53V190.02z"/>
<path class="st0" d="M244.39,142.08c5.55,4.71,7.16-5.32,7.16-5.32l-7.16-5.53V142.08z"/>
<path class="st0" d="M273.82,177.95c0,0-5.37-2.04-6.29,1.85c-0.93,3.89,2.78,3.89,3.7,3.7c0.93-0.19-3.7-1.48-0.56-3.52
	C273.82,177.95,273.82,177.95,273.82,177.95z"/>
<path class="st0" d="M215.7,144.64c0,0-4.81-4.44-4.44-0.74C211.63,147.6,218.48,146.67,215.7,144.64z"/>
<path class="st0" d="M20.95,933.32c-1.4-5.26,6.25,1.28,6.25,1.28l1.42,6.39L20.95,933.32z"/>
<path class="st0" d="M130.77,1027.03c9.99-1.48,2.59-12.22,2.59-12.22l-12.4,2.41L130.77,1027.03z"/>
<path class="st0" d="M147.65,922.02c-2.73,4.71-3.52-5.32-3.52-5.32l3.52-5.53V922.02z"/>
<path class="st0" d="M143.39,874.08c5.55,4.71,7.16-5.32,7.16-5.32l-7.16-5.53V874.08z"/>
<path class="st0" d="M172.82,909.95c0,0-5.37-2.04-6.29,1.85s2.78,3.89,3.7,3.7c0.93-0.19-3.7-1.48-0.56-3.52
	S172.82,909.95,172.82,909.95z"/>
<path class="st0" d="M140.09,800.77c-7.25,0.6-1.3,8.83-1.3,8.83l8.97-1.16L140.09,800.77z"/>
<path class="st0" d="M186.95,796.32c-1.4-5.26,6.25,1.28,6.25,1.28l1.42,6.39L186.95,796.32z"/>
<path class="st0" d="M165.09,986.35c-7.25,0.6-1.3,8.83-1.3,8.83l8.97-1.16L165.09,986.35z"/>
<path class="st0" d="M198.7,997.64c0,0-4.81-4.44-4.44-0.74C194.63,1000.6,201.48,999.67,198.7,997.64z"/>
<path class="st0" d="M555.38,937.52c-2.73,4.71-3.52-5.32-3.52-5.32l3.52-5.53V937.52z"/>
<path class="st0" d="M580.55,925.45c0,0-5.37-2.04-6.29,1.85c-0.93,3.89,2.78,3.89,3.7,3.7c0.93-0.19-3.7-1.48-0.56-3.52
	C580.55,925.45,580.55,925.45,580.55,925.45z"/>
<path class="st0" d="M539.31,917.88c1.4,5.26-6.25-1.28-6.25-1.28l-1.42-6.39L539.31,917.88z"/>
<path class="st0" d="M502.4,887c7.25-0.6,1.3-8.83,1.3-8.83l-8.97,1.16L502.4,887z"/>
<path class="st0" d="M483.92,909.09c0,0-6.54,0.26-3.66,2.62C483.14,914.06,487.33,908.57,483.92,909.09z"/>
<path class="st0" d="M857.74,685.03c-6.02,8.11,6.81,10.47,6.81,10.47l7.07-10.47H857.74z"/>
<path class="st0" d="M829.1,517.64c7.25-0.6,1.3-8.83,1.3-8.83l-8.97,1.16L829.1,517.64z"/>
<path class="st0" d="M860.25,655.09c1.4,5.26-6.25-1.28-6.25-1.28l-1.42-6.39L860.25,655.09z"/>
<path class="st0" d="M823.34,624.2c7.25-0.6,1.3-8.83,1.3-8.83l-8.97,1.16L823.34,624.2z"/>
<path class="st0" d="M869.51,628.76c0,0-5.23,2.36-3.14,5.76s4.71,0.79,5.23,0c0.52-0.79-3.66,1.57-2.88-2.09
	C869.51,628.76,869.51,628.76,869.51,628.76z"/>
<path class="st0" d="M886.74,479.62c-6.02,8.11,6.81,10.47,6.81,10.47l7.07-10.47H886.74z"/>
<path class="st0" d="M936.1,445.22c7.25-0.6,1.3-8.83,1.3-8.83l-8.97,1.16L936.1,445.22z"/>
<path class="st0" d="M889.25,449.67c1.4,5.26-6.25-1.28-6.25-1.28l-1.42-6.39L889.25,449.67z"/>
<path class="st0" d="M898.51,423.34c0,0-5.23,2.36-3.14,5.76s4.71,0.79,5.23,0c0.52-0.79-3.66,1.57-2.88-2.09
	C898.51,423.34,898.51,423.34,898.51,423.34z"/>
<path class="st0" d="M804.86,646.29c0,0-6.54,0.26-3.66,2.62S808.27,645.77,804.86,646.29z"/>
<path class="st0" d="M838.64,366.55c5.55,4.71,7.16-5.32,7.16-5.32l-7.16-5.53V366.55z"/>
<path class="st0" d="M827.54,324.49c0,0-5.37-2.04-6.29,1.85c-0.93,3.89,2.78,3.89,3.7,3.7c0.93-0.19-3.7-1.48-0.56-3.52
	C827.54,324.49,827.54,324.49,827.54,324.49z"/>
<path class="st0" d="M1032.5,446.58c9.99-1.48,2.59-12.22,2.59-12.22l-12.4,2.41L1032.5,446.58z"/>
<path class="st0" d="M733.34,734.79c7.25-0.6,1.3-8.83,1.3-8.83l-8.97,1.16L733.34,734.79z"/>
<path class="st0" d="M714.86,756.88c0,0-6.54,0.26-3.66,2.62S718.27,756.35,714.86,756.88z"/>
<path class="st0" d="M1008.62,1241.83c5.55,4.71,7.16-5.32,7.16-5.32l-7.16-5.53V1241.83z"/>
<path class="st0" d="M979.93,1244.39c0,0-4.81-4.44-4.44-0.74C975.86,1247.35,982.71,1246.42,979.93,1244.39z"/>
<path class="st0" d="M1076.33,975.37c-0.6-7.25-8.83-1.3-8.83-1.3l1.16,8.97L1076.33,975.37z"/>
<path class="st0" d="M816.31,1219.3c-7.25,0.6-1.3,8.83-1.3,8.83l8.97-1.16L816.31,1219.3z"/>
<path class="st0" d="M853.9,1241.18c0,0,5.23-2.36,3.14-5.76s-4.71-0.79-5.23,0s3.66-1.57,2.88,2.09
	C853.9,1241.18,853.9,1241.18,853.9,1241.18z"/>
<path class="st0" d="M803.35,1098.72c1.4,5.26-6.25-1.28-6.25-1.28l-1.42-6.39L803.35,1098.72z"/>
<path class="st0" d="M766.45,1067.84c7.25-0.6,1.3-8.83,1.3-8.83l-8.97,1.16L766.45,1067.84z"/>
<path class="st0" d="M812.62,1072.39c0,0-5.23,2.36-3.14,5.76c2.09,3.4,4.71,0.79,5.23,0c0.52-0.79-3.66,1.57-2.88-2.09
	C812.62,1072.39,812.62,1072.39,812.62,1072.39z"/>
<path class="st0" d="M747.97,1089.93c0,0-6.54,0.26-3.66,2.62C747.18,1094.9,751.37,1089.4,747.97,1089.93z"/>
<path class="st0" d="M742.26,982.05c-4.71-2.73,5.32-3.52,5.32-3.52l5.53,3.52L742.26,982.05z"/>
<path class="st0" d="M754.32,1007.22c0,0,2.04-5.37-1.85-6.29c-3.89-0.93-3.89,2.78-3.7,3.7c0.19,0.93,1.48-3.7,3.52-0.56
	S754.32,1007.22,754.32,1007.22z"/>
<path class="st0" d="M878.77,1247.63c0,0,2.04-5.37-1.85-6.29s-3.89,2.78-3.7,3.7c0.19,0.93,1.48-3.7,3.52-0.56
	S878.77,1247.63,878.77,1247.63z"/>
<path class="st0" d="M648.09,849.77c-7.25,0.6-1.3,8.83-1.3,8.83l8.97-1.16L648.09,849.77z"/>
<path class="st0" d="M694.95,845.32c-1.4-5.26,6.25,1.28,6.25,1.28l1.42,6.39L694.95,845.32z"/>
<path class="st0" d="M685.68,871.65c0,0,5.23-2.36,3.14-5.76s-4.71-0.79-5.23,0s3.66-1.57,2.88,2.09S685.68,871.65,685.68,871.65z"
	/>
<path class="st0" d="M1063.38,986.52c-2.73,4.71-3.52-5.32-3.52-5.32l3.52-5.53V986.52z"/>
<path class="st0" d="M815.22,947.71c-4.71,5.55,5.32,7.16,5.32,7.16l5.53-7.16H815.22z"/>
<path class="st0" d="M902.35,940.72c1.4,5.26-6.25-1.28-6.25-1.28l-1.42-6.39L902.35,940.72z"/>
<path class="st0" d="M865.45,909.84c7.25-0.6,1.3-8.83,1.3-8.83l-8.97,1.16L865.45,909.84z"/>
<path class="st0" d="M911.62,914.39c0,0-5.23,2.36-3.14,5.76c2.09,3.4,4.71,0.79,5.23,0s-3.66,1.57-2.88-2.09
	S911.62,914.39,911.62,914.39z"/>
<path class="st0" d="M846.97,931.93c0,0-6.54,0.26-3.66,2.62S850.37,931.4,846.97,931.93z"/>
<path class="st0" d="M811.27,860.32c-4.71,5.55,5.32,7.16,5.32,7.16l5.53-7.16H811.27z"/>
<path class="st0" d="M853.32,849.22c0,0,2.04-5.37-1.85-6.29c-3.89-0.93-3.89,2.78-3.7,3.7c0.19,0.93,1.48-3.7,3.52-0.56
	S853.32,849.22,853.32,849.22z"/>
<path class="st0" d="M960.18,973.87c-4.71,5.55,5.32,7.16,5.32,7.16l5.53-7.16H960.18z"/>
<path class="st0" d="M1047.31,966.88c1.4,5.26-6.25-1.28-6.25-1.28l-1.42-6.39L1047.31,966.88z"/>
<path class="st0" d="M1010.4,936c7.25-0.6,1.3-8.83,1.3-8.83l-8.97,1.16L1010.4,936z"/>
<path class="st0" d="M991.92,958.09c0,0-6.54,0.26-3.66,2.62C991.14,963.06,995.33,957.57,991.92,958.09z"/>
<path class="st0" d="M834.39,886.08c5.55,4.71,7.16-5.32,7.16-5.32l-7.16-5.53V886.08z"/>
<path class="st0" d="M805.7,888.64c0,0-4.81-4.44-4.44-0.74C801.63,891.6,808.48,890.67,805.7,888.64z"/>
<path class="st0" d="M767.4,1256c7.25-0.6,1.3-8.83,1.3-8.83l-8.97,1.16L767.4,1256z"/>
<path class="st0" d="M1017.7,997.41c-9.99,1.48-2.59,12.22-2.59,12.22l12.4-2.41L1017.7,997.41z"/>
<path class="st0" d="M1028.66,913.84c-6.02,8.11,6.81,10.47,6.81,10.47l7.07-10.47H1028.66z"/>
<path class="st0" d="M1031.17,883.9c1.4,5.26-6.25-1.28-6.25-1.28l-1.42-6.39L1031.17,883.9z"/>
<path class="st0" d="M1040.44,857.57c0,0-5.23,2.36-3.14,5.76c2.09,3.4,4.71,0.79,5.23,0c0.52-0.79-3.66,1.57-2.88-2.09
	C1040.44,857.57,1040.44,857.57,1040.44,857.57z"/>
<path class="st0" d="M1458.18,598.34c7.25-0.6,1.3-8.83,1.3-8.83l-8.97,1.16L1458.18,598.34z"/>
<path class="st0" d="M1121.75,434.24c8.11,6.02,10.47-6.81,10.47-6.81l-10.47-7.07V434.24z"/>
<path class="st0" d="M954.36,462.87c-0.6-7.25-8.83-1.3-8.83-1.3l1.16,8.97L954.36,462.87z"/>
<path class="st0" d="M1091.81,431.73c5.26-1.4-1.28,6.25-1.28,6.25l-6.39,1.42L1091.81,431.73z"/>
<path class="st0" d="M1060.92,468.63c-0.6-7.25-8.83-1.3-8.83-1.3l1.16,8.97L1060.92,468.63z"/>
<path class="st0" d="M1065.48,422.46c0,0,2.36,5.23,5.76,3.14s0.79-4.71,0-5.23c-0.79-0.52,1.57,3.66-2.09,2.88
	C1065.48,422.46,1065.48,422.46,1065.48,422.46z"/>
<path class="st0" d="M916.33,405.24c8.11,6.02,10.47-6.81,10.47-6.81l-10.47-7.07V405.24z"/>
<path class="st0" d="M881.94,355.87c-0.6-7.25-8.83-1.3-8.83-1.3l1.16,8.97L881.94,355.87z"/>
<path class="st0" d="M886.39,402.73c5.26-1.4-1.28,6.25-1.28,6.25l-6.39,1.42L886.39,402.73z"/>
<path class="st0" d="M860.06,393.46c0,0,2.36,5.23,5.76,3.14c3.4-2.09,0.79-4.71,0-5.23c-0.79-0.52,1.57,3.66-2.09,2.88
	C860.06,393.46,860.06,393.46,860.06,393.46z"/>
<path class="st0" d="M1083.01,487.11c0,0,0.26,6.54,2.62,3.66C1087.99,487.9,1082.49,483.71,1083.01,487.11z"/>
<path class="st0" d="M883.29,259.48c-1.48-9.99-12.22-2.59-12.22-2.59l2.41,12.4L883.29,259.48z"/>
<path class="st0" d="M867.71,565.7c-4.71,5.55,5.32,7.16,5.32,7.16l5.53-7.16H867.71z"/>
<path class="st0" d="M897.69,529.43c-4.71-2.73,5.32-3.52,5.32-3.52l5.53,3.52H897.69z"/>
<path class="st0" d="M945.62,525.17c-4.71,5.55,5.32,7.16,5.32,7.16l5.53-7.16H945.62z"/>
<path class="st0" d="M909.76,554.6c0,0,2.04-5.37-1.85-6.29c-3.89-0.93-3.89,2.78-3.7,3.7c0.19,0.93,1.48-3.7,3.52-0.56
	C909.76,554.6,909.76,554.6,909.76,554.6z"/>
<path class="st0" d="M943.07,496.48c0,0,4.44-4.81,0.74-4.44C940.11,492.41,941.04,499.26,943.07,496.48z"/>
<path class="st0" d="M1197.94,474.87c-0.6-7.25-8.83-1.3-8.83-1.3l1.16,8.97L1197.94,474.87z"/>
<path class="st0" d="M1202.39,521.73c5.26-1.4-1.28,6.25-1.28,6.25l-6.39,1.42L1202.39,521.73z"/>
<path class="st0" d="M1171.51,558.63c-0.6-7.25-8.83-1.3-8.83-1.3l1.16,8.97L1171.51,558.63z"/>
<path class="st0" d="M1176.06,512.46c0,0,2.36,5.23,5.76,3.14s0.79-4.71,0-5.23c-0.79-0.52,1.57,3.66-2.09,2.88
	C1176.06,512.46,1176.06,512.46,1176.06,512.46z"/>
<path class="st0" d="M1018.94,521.87c-0.6-7.25-8.83-1.3-8.83-1.3l1.16,8.97L1018.94,521.87z"/>
<path class="st0" d="M1023.39,568.73c5.26-1.4-1.28,6.25-1.28,6.25l-6.39,1.42L1023.39,568.73z"/>
<path class="st0" d="M997.06,559.46c0,0,2.36,5.23,5.76,3.14s0.79-4.71,0-5.23c-0.79-0.52,1.57,3.66-2.09,2.88
	C997.06,559.46,997.06,559.46,997.06,559.46z"/>
<path class="st0" d="M1193.6,577.11c0,0,0.26,6.54,2.62,3.66S1193.07,573.71,1193.6,577.11z"/>
<path class="st0" d="M1520.14,210.92c-1.4-5.26,6.25,1.28,6.25,1.28l1.42,6.39L1520.14,210.92z"/>
<path class="st0" d="M1510.87,237.25c0,0,5.23-2.36,3.14-5.76c-2.09-3.4-4.71-0.79-5.23,0c-0.52,0.79,3.66-1.57,2.88,2.09
	C1510.87,237.25,1510.87,237.25,1510.87,237.25z"/>
<path class="st0" d="M1412.09,215.64c-7.25,0.6-1.3,8.83-1.3,8.83l8.97-1.16L1412.09,215.64z"/>
<path class="st0" d="M1365.92,211.09c0,0,5.23-2.36,3.14-5.76c-2.09-3.4-4.71-0.79-5.23,0c-0.52,0.79,3.66-1.57,2.88,2.09
	C1365.92,211.09,1365.92,211.09,1365.92,211.09z"/>
<path class="st0" d="M836.39,534.63c0.6,7.25,8.83,1.3,8.83,1.3l-1.16-8.97L836.39,534.63z"/>
<path class="st0" d="M845.53,542.2c0,0,4.44-4.81,0.74-4.44S843.49,544.98,845.53,542.2z"/>
<path class="st0" d="M1048.74,913.03c-6.02,8.11,6.81,10.47,6.81,10.47l7.07-10.47H1048.74z"/>
<path class="st0" d="M1051.25,883.09c1.4,5.26-6.25-1.28-6.25-1.28l-1.42-6.39L1051.25,883.09z"/>
<path class="st0" d="M1060.51,856.76c0,0-5.23,2.36-3.14,5.76c2.09,3.4,4.71,0.79,5.23,0c0.52-0.79-3.66,1.57-2.88-2.09
	C1060.51,856.76,1060.51,856.76,1060.51,856.76z"/>
<path class="st0" d="M1077.74,707.62c-6.02,8.11,6.81,10.47,6.81,10.47l7.07-10.47H1077.74z"/>
<path class="st0" d="M1127.1,673.22c7.25-0.6,1.3-8.83,1.3-8.83l-8.97,1.16L1127.1,673.22z"/>
<path class="st0" d="M1080.25,677.67c1.4,5.26-6.25-1.28-6.25-1.28l-1.42-6.39L1080.25,677.67z"/>
<path class="st0" d="M1089.51,651.34c0,0-5.23,2.36-3.14,5.76c2.09,3.4,4.71,0.79,5.23,0c0.52-0.79-3.66,1.57-2.88-2.09
	C1089.51,651.34,1089.51,651.34,1089.51,651.34z"/>
<path class="st0" d="M1145.36,690.87c-0.6-7.25-8.83-1.3-8.83-1.3l1.16,8.97L1145.36,690.87z"/>
<path class="st0" d="M1107.33,633.24c8.11,6.02,10.47-6.81,10.47-6.81l-10.47-7.07V633.24z"/>
<path class="st0" d="M1072.94,583.87c-0.6-7.25-8.83-1.3-8.83-1.3l1.16,8.97L1072.94,583.87z"/>
<path class="st0" d="M1077.39,630.73c5.26-1.4-1.28,6.25-1.28,6.25l-6.39,1.42L1077.39,630.73z"/>
<path class="st0" d="M1051.06,621.46c0,0,2.36,5.23,5.76,3.14c3.4-2.09,0.79-4.71,0-5.23c-0.79-0.52,1.57,3.66-2.09,2.88
	C1051.06,621.46,1051.06,621.46,1051.06,621.46z"/>
<path class="st0" d="M1074.29,487.48c-1.48-9.99-12.22-2.59-12.22-2.59l2.41,12.4L1074.29,487.48z"/>
<path class="st0" d="M1058.71,793.7c-4.71,5.55,5.32,7.16,5.32,7.16l5.53-7.16H1058.71z"/>
<path class="st0" d="M1088.69,757.43c-4.71-2.73,5.32-3.52,5.32-3.52l5.53,3.52H1088.69z"/>
<path class="st0" d="M1136.62,753.17c-4.71,5.55,5.32,7.16,5.32,7.16l5.53-7.16H1136.62z"/>
<path class="st0" d="M1100.76,782.6c0,0,2.04-5.37-1.85-6.29c-3.89-0.93-3.89,2.78-3.7,3.7c0.19,0.93,1.48-3.7,3.52-0.56
	C1100.76,782.6,1100.76,782.6,1100.76,782.6z"/>
<path class="st0" d="M1134.07,724.48c0,0,4.44-4.81,0.74-4.44C1131.11,720.41,1132.04,727.26,1134.07,724.48z"/>
<path class="st0" d="M1209.94,749.87c-0.6-7.25-8.83-1.3-8.83-1.3l1.16,8.97L1209.94,749.87z"/>
<path class="st0" d="M1214.39,796.73c5.26-1.4-1.28,6.25-1.28,6.25l-6.39,1.42L1214.39,796.73z"/>
<path class="st0" d="M1188.06,787.46c0,0,2.36,5.23,5.76,3.14s0.79-4.71,0-5.23c-0.79-0.52,1.57,3.66-2.09,2.88
	C1188.06,787.46,1188.06,787.46,1188.06,787.46z"/>
<path class="st0" d="M1036.53,770.2c0,0,4.44-4.81,0.74-4.44S1034.49,772.98,1036.53,770.2z"/>
<path class="st0" d="M839.93,95.1c-8.11-6.02-10.47,6.81-10.47,6.81l10.47,7.07V95.1z"/>
<path class="st0" d="M869.88,97.61c-5.26,1.4,1.28-6.25,1.28-6.25l6.39-1.42L869.88,97.61z"/>
<path class="st0" d="M896.21,106.88c0,0-2.36-5.23-5.76-3.14c-3.4,2.09-0.79,4.71,0,5.23c0.79,0.52-1.57-3.66,2.09-2.88
	C896.21,106.88,896.21,106.88,896.21,106.88z"/>
<path class="st0" d="M1045.35,124.1c-8.11-6.02-10.47,6.81-10.47,6.81l10.47,7.07V124.1z"/>
<path class="st0" d="M1079.74,173.47c0.6,7.25,8.83,1.3,8.83,1.3l-1.16-8.97L1079.74,173.47z"/>
<path class="st0" d="M1075.29,126.61c-5.26,1.4,1.28-6.25,1.28-6.25l6.39-1.42L1075.29,126.61z"/>
<path class="st0" d="M1078.39,269.86c1.48,9.99,12.22,2.59,12.22,2.59l-2.41-12.4L1078.39,269.86z"/>
<path class="st0" d="M1062.09,191.72c7.25-0.6,1.3-8.83,1.3-8.83l-8.97,1.16L1062.09,191.72z"/>
<path class="st0" d="M1093.24,329.17c1.4,5.26-6.25-1.28-6.25-1.28l-1.42-6.39L1093.24,329.17z"/>
<path class="st0" d="M1056.34,298.29c7.25-0.6,1.3-8.83,1.3-8.83l-8.97,1.16L1056.34,298.29z"/>
<path class="st0" d="M1037.86,320.38c0,0-6.54,0.26-3.66,2.62C1037.07,325.35,1041.26,319.85,1037.86,320.38z"/>
<path class="st0" d="M1265.49,120.66c9.99-1.48,2.59-12.22,2.59-12.22l-12.4,2.41L1265.49,120.66z"/>
<path class="st0" d="M959.27,105.07c-5.55-4.71-7.16,5.32-7.16,5.32l7.16,5.53V105.07z"/>
<path class="st0" d="M995.54,135.05c2.73-4.71,3.52,5.32,3.52,5.32l-3.52,5.53V135.05z"/>
<path class="st0" d="M999.8,182.99c-5.55-4.71-7.16,5.32-7.16,5.32l7.16,5.53V182.99z"/>
<path class="st0" d="M970.37,147.12c0,0,5.37,2.04,6.29-1.85s-2.78-3.89-3.7-3.7c-0.93,0.19,3.7,1.48,0.56,3.52
	C970.37,147.12,970.37,147.12,970.37,147.12z"/>
<path class="st0" d="M1028.48,180.44c0,0,4.81,4.44,4.44,0.74S1025.71,178.4,1028.48,180.44z"/>
<path class="st0" d="M1003.09,256.31c7.25-0.6,1.3-8.83,1.3-8.83l-8.97,1.16L1003.09,256.31z"/>
<path class="st0" d="M956.24,260.76c1.4,5.26-6.25-1.28-6.25-1.28l-1.42-6.39L956.24,260.76z"/>
<path class="st0" d="M965.51,234.42c0,0-5.23,2.36-3.14,5.76c2.09,3.4,4.71,0.79,5.23,0c0.52-0.79-3.66,1.57-2.88-2.09
	S965.51,234.42,965.51,234.42z"/>
<path class="st0" d="M982.76,82.89c0,0,4.81,4.44,4.44,0.74C986.83,79.93,979.99,80.86,982.76,82.89z"/>
<path class="st0" d="M1483.36,585.27c0,0-4.44,4.81-0.74,4.44C1486.32,589.34,1485.39,582.5,1483.36,585.27z"/>
<path class="st0" d="M1423.23,228.59c4.71,2.73-5.32,3.52-5.32,3.52l-5.53-3.52H1423.23z"/>
<path class="st0" d="M1411.17,203.42c0,0-2.04,5.37,1.85,6.29c3.89,0.93,3.89-2.78,3.7-3.7c-0.19-0.93-1.48,3.7-3.52,0.56
	S1411.17,203.42,1411.17,203.42z"/>
<path class="st0" d="M1403.6,244.66c5.26-1.4-1.28,6.25-1.28,6.25l-6.39,1.42L1403.6,244.66z"/>
<path class="st0" d="M1372.72,281.57c-0.6-7.25-8.83-1.3-8.83-1.3l1.16,8.97L1372.72,281.57z"/>
<path class="st0" d="M1394.81,300.05c0,0,0.26,6.54,2.62,3.66S1394.28,296.65,1394.81,300.05z"/>
<path class="st0" d="M1434.13,274.28c1.48,9.99,12.22,2.59,12.22,2.59l-2.41-12.4L1434.13,274.28z"/>
<path class="st0" d="M1350.56,263.31c8.11,6.02,10.47-6.81,10.47-6.81l-10.47-7.07V263.31z"/>
<path class="st0" d="M1316.17,213.95c-0.6-7.25-8.83-1.3-8.83-1.3l1.16,8.97L1316.17,213.95z"/>
<path class="st0" d="M1320.62,260.8c5.26-1.4-1.28,6.25-1.28,6.25l-6.39,1.42L1320.62,260.8z"/>
<path class="st0" d="M1294.29,251.54c0,0,2.36,5.23,5.76,3.14c3.4-2.09,0.79-4.71,0-5.23c-0.79-0.52,1.57,3.66-2.09,2.88
	C1294.29,251.54,1294.29,251.54,1294.29,251.54z"/>
<path class="st0" d="M1190.79,436.1c0,0-6.54,0.26-3.66,2.62C1190,441.08,1194.19,435.58,1190.79,436.1z"/>
<path class="st0" d="M507.95,721.43c6.02-8.11-6.81-10.47-6.81-10.47l-7.07,10.47H507.95z"/>
<path class="st0" d="M505.44,751.37c-1.4-5.26,6.25,1.28,6.25,1.28l1.42,6.39L505.44,751.37z"/>
<path class="st0" d="M542.34,782.25c-7.25,0.6-1.3,8.83-1.3,8.83l8.97-1.16L542.34,782.25z"/>
<path class="st0" d="M496.17,777.7c0,0,5.23-2.36,3.14-5.76c-2.09-3.4-4.71-0.79-5.23,0c-0.52,0.79,3.66-1.57,2.88,2.09
	C496.17,777.7,496.17,777.7,496.17,777.7z"/>
<path class="st0" d="M560.82,760.17c0,0,6.54-0.26,3.66-2.62S557.42,760.69,560.82,760.17z"/>
<path class="st0" d="M536.46,286.96c6.02-8.11-6.81-10.47-6.81-10.47l-7.07,10.47H536.46z"/>
<path class="st0" d="M565.09,454.35c-7.25,0.6-1.3,8.83-1.3,8.83l8.97-1.16L565.09,454.35z"/>
<path class="st0" d="M533.95,316.9c-1.4-5.26,6.25,1.28,6.25,1.28l1.42,6.39L533.95,316.9z"/>
<path class="st0" d="M570.85,347.79c-7.25,0.6-1.3,8.83-1.3,8.83l8.97-1.16L570.85,347.79z"/>
<path class="st0" d="M524.68,343.23c0,0,5.23-2.36,3.14-5.76c-2.09-3.4-4.71-0.79-5.23,0c-0.52,0.79,3.66-1.57,2.88,2.09
	C524.68,343.23,524.68,343.23,524.68,343.23z"/>
<path class="st0" d="M507.46,492.37c6.02-8.11-6.81-10.47-6.81-10.47l-7.07,10.47H507.46z"/>
<path class="st0" d="M589.33,325.7c0,0,6.54-0.26,3.66-2.62C590.12,320.72,585.93,326.22,589.33,325.7z"/>
<path class="st0" d="M632.34,671.67c-7.25,0.6-1.3,8.83-1.3,8.83l8.97-1.16L632.34,671.67z"/>
<path class="st0" d="M624.77,680.81c0,0,4.81,4.44,4.44,0.74C628.84,677.85,621.99,678.77,624.77,680.81z"/>
<path class="st0" d="M608.93,777c5.55,4.71,7.16-5.32,7.16-5.32l-7.16-5.53V777z"/>
<path class="st0" d="M631.65,511.02c-2.73,4.71-3.52-5.32-3.52-5.32l3.52-5.53L631.65,511.02z"/>
<path class="st0" d="M598.7,465.64c0,0-4.81-4.44-4.44-0.74C594.63,468.6,601.48,467.67,598.7,465.64z"/>
<path class="st0" d="M614.68,232.65c0,0,5.23-2.36,3.14-5.76c-2.09-3.4-4.71-0.79-5.23,0c-0.52,0.79,3.66-1.57,2.88,2.09
	C614.68,232.65,614.68,232.65,614.68,232.65z"/>
<path class="st0" d="M624.09,389.77c-7.25,0.6-1.3,8.83-1.3,8.83l8.97-1.16L624.09,389.77z"/>
<path class="st0" d="M422.03,407.45c7.25-0.6,1.3-8.83,1.3-8.83l-8.97,1.16L422.03,407.45z"/>
<path class="st0" d="M375.17,411.9c1.4,5.26-6.25-1.28-6.25-1.28l-1.42-6.39L375.17,411.9z"/>
<path class="st0" d="M338.27,381.01c7.25-0.6,1.3-8.83,1.3-8.83l-8.97,1.16L338.27,381.01z"/>
<path class="st0" d="M384.44,385.57c0,0-5.23,2.36-3.14,5.76c2.09,3.4,4.71,0.79,5.23,0c0.52-0.79-3.66,1.57-2.88-2.09
	S384.44,385.57,384.44,385.57z"/>
<path class="st0" d="M579.68,669.65c0,0,5.23-2.36,3.14-5.76c-2.09-3.4-4.71-0.79-5.23,0c-0.52,0.79,3.66-1.57,2.88,2.09
	C579.68,669.65,579.68,669.65,579.68,669.65z"/>
<path class="st0" d="M698.77,737.03c9.99-1.48,2.59-12.22,2.59-12.22l-12.4,2.41L698.77,737.03z"/>
<path class="st0" d="M639.55,726.44c-5.55-4.71-7.16,5.32-7.16,5.32l7.16,5.53V726.44z"/>
<path class="st0" d="M675.83,756.43c2.73-4.71,3.52,5.32,3.52,5.32l-3.52,5.53V756.43z"/>
<path class="st0" d="M716.34,792.67c-7.25,0.6-1.3,8.83-1.3,8.83l8.97-1.16L716.34,792.67z"/>
<path class="st0" d="M650.65,768.5c0,0,5.37,2.04,6.29-1.85c0.93-3.89-2.78-3.89-3.7-3.7c-0.93,0.19,3.7,1.48,0.56,3.52
	C650.65,768.5,650.65,768.5,650.65,768.5z"/>
<path class="st0" d="M708.77,801.81c0,0,4.81,4.44,4.44,0.74C712.84,798.85,705.99,799.77,708.77,801.81z"/>
<path class="st0" d="M715.65,632.02c-2.73,4.71-3.52-5.32-3.52-5.32l3.52-5.53L715.65,632.02z"/>
<path class="st0" d="M740.82,619.95c0,0-5.37-2.04-6.29,1.85c-0.93,3.89,2.78,3.89,3.7,3.7c0.93-0.19-3.7-1.48-0.56-3.52
	S740.82,619.95,740.82,619.95z"/>
<path class="st0" d="M566.77,525.9c4.71-5.55-5.32-7.16-5.32-7.16l-5.53,7.16H566.77z"/>
<path class="st0" d="M250.75,401.24c8.11,6.02,10.47-6.81,10.47-6.81l-10.47-7.07V401.24z"/>
<path class="st0" d="M220.81,398.73c5.26-1.4-1.28,6.25-1.28,6.25l-6.39,1.42L220.81,398.73z"/>
<path class="st0" d="M547.77,516.72c-2.73,4.71-3.52-5.32-3.52-5.32l3.52-5.53V516.72z"/>
<path class="st0" d="M572.94,504.65c0,0-5.37-2.04-6.29,1.85c-0.93,3.89,2.78,3.89,3.7,3.7c0.93-0.19-3.7-1.48-0.56-3.52
	C572.94,504.65,572.94,504.65,572.94,504.65z"/>
<path class="st0" d="M256.1,640.22c7.25-0.6,1.3-8.83,1.3-8.83l-8.97,1.16L256.1,640.22z"/>
<path class="st0" d="M218.51,618.34c0,0-5.23,2.36-3.14,5.76s4.71,0.79,5.23,0c0.52-0.79-3.66,1.57-2.88-2.09
	C218.51,618.34,218.51,618.34,218.51,618.34z"/>
<path class="st0" d="M274.36,657.87c-0.6-7.25-8.83-1.3-8.83-1.3l1.16,8.97L274.36,657.87z"/>
<path class="st0" d="M217.69,724.43c-4.71-2.73,5.32-3.52,5.32-3.52l5.53,3.52H217.69z"/>
<path class="st0" d="M265.62,720.17c-4.71,5.55,5.32,7.16,5.32,7.16l5.53-7.16H265.62z"/>
<path class="st0" d="M229.76,749.6c0,0,2.04-5.37-1.85-6.29c-3.89-0.93-3.89,2.78-3.7,3.7c0.19,0.93,1.48-3.7,3.52-0.56
	C229.76,749.6,229.76,749.6,229.76,749.6z"/>
<path class="st0" d="M263.07,691.48c0,0,4.44-4.81,0.74-4.44C260.11,687.41,261.04,694.26,263.07,691.48z"/>
<path class="st0" d="M222.24,296.17c1.4,5.26-6.25-1.28-6.25-1.28l-1.42-6.39L222.24,296.17z"/>
<path class="st0" d="M231.51,269.84c0,0-5.23,2.36-3.14,5.76c2.09,3.4,4.71,0.79,5.23,0s-3.66,1.57-2.88-2.09
	C231.51,269.84,231.51,269.84,231.51,269.84z"/>
<path class="st0" d="M609.8,523.58c4.71-5.55-5.32-7.16-5.32-7.16l-5.53,7.16H609.8z"/>
<path class="st0" d="M513.43,443.75c5.55,4.71,7.16-5.32,7.16-5.32l-7.16-5.53V443.75z"/>
<path class="st0" d="M506.44,356.62c5.26-1.4-1.28,6.25-1.28,6.25l-6.39,1.42L506.44,356.62z"/>
<path class="st0" d="M475.55,393.53c-0.6-7.25-8.83-1.3-8.83-1.3l1.16,8.97L475.55,393.53z"/>
<path class="st0" d="M480.11,347.36c0,0,2.36,5.23,5.76,3.14s0.79-4.71,0-5.23c-0.79-0.52,1.57,3.66-2.09,2.88
	S480.11,347.36,480.11,347.36z"/>
<path class="st0" d="M497.64,412.01c0,0,0.26,6.54,2.62,3.66C502.62,412.79,497.12,408.6,497.64,412.01z"/>
<path class="st0" d="M389.77,417.72c-2.73,4.71-3.52-5.32-3.52-5.32l3.52-5.53V417.72z"/>
<path class="st0" d="M414.94,405.65c0,0-5.37-2.04-6.29,1.85c-0.93,3.89,2.78,3.89,3.7,3.7c0.93-0.19-3.7-1.48-0.56-3.52
	C414.94,405.65,414.94,405.65,414.94,405.65z"/>
<path class="st0" d="M539.59,298.8c5.55,4.71,7.16-5.32,7.16-5.32l-7.16-5.53V298.8z"/>
<path class="st0" d="M501.72,248.57c-0.6-7.25-8.83-1.3-8.83-1.3l1.16,8.97L501.72,248.57z"/>
<path class="st0" d="M523.81,267.05c0,0,0.26,6.54,2.62,3.66S523.28,263.65,523.81,267.05z"/>
<path class="st0" d="M451.8,424.58c4.71-5.55-5.32-7.16-5.32-7.16l-5.53,7.16H451.8z"/>
<path class="st0" d="M563.13,241.28c1.48,9.99,12.22,2.59,12.22,2.59l-2.41-12.4L563.13,241.28z"/>
<path class="st0" d="M479.56,230.31c8.11,6.02,10.47-6.81,10.47-6.81l-10.47-7.07V230.31z"/>
<path class="st0" d="M449.62,227.8c5.26-1.4-1.28,6.25-1.28,6.25l-6.39,1.42L449.62,227.8z"/>
<path class="st0" d="M319.79,403.1c0,0-6.54,0.26-3.66,2.62C319,408.08,323.19,402.58,319.79,403.1z"/>
<path class="st0" d="M1176.59,558.82c-7.25,0.6-1.3,8.83-1.3,8.83l8.97-1.16L1176.59,558.82z"/>
<path class="st0" d="M1214.17,580.7c0,0,5.23-2.36,3.14-5.76c-2.09-3.4-4.71-0.79-5.23,0c-0.52,0.79,3.66-1.57,2.88,2.09
	C1214.17,580.7,1214.17,580.7,1214.17,580.7z"/>
<path class="st0" d="M1254.46,89.96c6.02-8.11-6.81-10.47-6.81-10.47l-7.07,10.47H1254.46z"/>
<path class="st0" d="M1283.09,257.35c-7.25,0.6-1.3,8.83-1.3,8.83l8.97-1.16L1283.09,257.35z"/>
<path class="st0" d="M1251.95,119.9c-1.4-5.26,6.25,1.28,6.25,1.28l1.42,6.39L1251.95,119.9z"/>
<path class="st0" d="M1288.85,150.79c-7.25,0.6-1.3,8.83-1.3,8.83l8.97-1.16L1288.85,150.79z"/>
<path class="st0" d="M1242.68,146.23c0,0,5.23-2.36,3.14-5.76c-2.09-3.4-4.71-0.79-5.23,0c-0.52,0.79,3.66-1.57,2.88,2.09
	C1242.68,146.23,1242.68,146.23,1242.68,146.23z"/>
<path class="st0" d="M1307.33,128.7c0,0,6.54-0.26,3.66-2.62C1308.12,123.72,1303.93,129.22,1307.33,128.7z"/>
<path class="st0" d="M1079.7,328.41c-9.99,1.48-2.59,12.22-2.59,12.22l12.4-2.41L1079.7,328.41z"/>
<path class="st0" d="M1349.65,314.02c-2.73,4.71-3.52-5.32-3.52-5.32l3.52-5.53V314.02z"/>
<path class="st0" d="M1345.39,266.08c5.55,4.71,7.16-5.32,7.16-5.32l-7.16-5.53V266.08z"/>
<path class="st0" d="M1374.82,301.95c0,0-5.37-2.04-6.29,1.85c-0.93,3.89,2.78,3.89,3.7,3.7s-3.7-1.48-0.56-3.52
	C1374.82,301.95,1374.82,301.95,1374.82,301.95z"/>
<path class="st0" d="M1316.7,268.64c0,0-4.81-4.44-4.44-0.74C1312.63,271.6,1319.48,270.67,1316.7,268.64z"/>
<path class="st0" d="M1378.85,40.2c-7.25,0.6-1.3,8.83-1.3,8.83l8.97-1.16L1378.85,40.2z"/>
<path class="st0" d="M1332.68,35.65c0,0,5.23-2.36,3.14-5.76c-2.09-3.4-4.71-0.79-5.23,0c-0.52,0.79,3.66-1.57,2.88,2.09
	C1332.68,35.65,1332.68,35.65,1332.68,35.65z"/>
<path class="st0" d="M1342.09,192.77c-7.25,0.6-1.3,8.83-1.3,8.83l8.97-1.16L1342.09,192.77z"/>
<path class="st0" d="M1388.95,188.32c-1.4-5.26,6.25,1.28,6.25,1.28l1.42,6.39L1388.95,188.32z"/>
<path class="st0" d="M1379.68,214.65c0,0,5.23-2.36,3.14-5.76c-2.09-3.4-4.71-0.79-5.23,0c-0.52,0.79,3.66-1.57,2.88,2.09
	C1379.68,214.65,1379.68,214.65,1379.68,214.65z"/>
<path class="st0" d="M1093.17,214.9c1.4,5.26-6.25-1.28-6.25-1.28l-1.42-6.39L1093.17,214.9z"/>
<path class="st0" d="M1056.27,184.01c7.25-0.6,1.3-8.83,1.3-8.83l-8.97,1.16L1056.27,184.01z"/>
<path class="st0" d="M1036.95,558.9c-1.4-5.26,6.25,1.28,6.25,1.28l1.42,6.39L1036.95,558.9z"/>
<path class="st0" d="M1073.85,589.79c-7.25,0.6-1.3,8.83-1.3,8.83l8.97-1.16L1073.85,589.79z"/>
<path class="st0" d="M1027.68,585.23c0,0,5.23-2.36,3.14-5.76c-2.09-3.4-4.71-0.79-5.23,0s3.66-1.57,2.88,2.09
	C1027.68,585.23,1027.68,585.23,1027.68,585.23z"/>
<path class="st0" d="M1092.33,567.7c0,0,6.54-0.26,3.66-2.62C1093.12,562.72,1088.93,568.22,1092.33,567.7z"/>
<path class="st0" d="M1163.7,449.41c-9.99,1.48-2.59,12.22-2.59,12.22l12.4-2.41L1163.7,449.41z"/>
<path class="st0" d="M968.75,204.24c8.11,6.02,10.47-6.81,10.47-6.81l-10.47-7.07V204.24z"/>
<path class="st0" d="M938.81,201.73c5.26-1.4-1.28,6.25-1.28,6.25l-6.39,1.42L938.81,201.73z"/>
<path class="st0" d="M1079.33,294.24c8.11,6.02,10.47-6.81,10.47-6.81l-10.47-7.07V294.24z"/>
<path class="st0" d="M1044.94,244.87c-0.6-7.25-8.83-1.3-8.83-1.3l1.16,8.97L1044.94,244.87z"/>
<path class="st0" d="M1049.39,291.73c5.26-1.4-1.28,6.25-1.28,6.25l-6.39,1.42L1049.39,291.73z"/>
<path class="st0" d="M1018.51,328.63c-0.6-7.25-8.83-1.3-8.83-1.3l1.16,8.97L1018.51,328.63z"/>
<path class="st0" d="M1023.06,282.46c0,0,2.36,5.23,5.76,3.14s0.79-4.71,0-5.23c-0.79-0.52,1.57,3.66-2.09,2.88
	C1023.06,282.46,1023.06,282.46,1023.06,282.46z"/>
<path class="st0" d="M1040.6,347.11c0,0,0.26,6.54,2.62,3.66S1040.07,343.71,1040.6,347.11z"/>
<path class="st0" d="M1382.44,258.62c5.26-1.4-1.28,6.25-1.28,6.25l-6.39,1.42L1382.44,258.62z"/>
<path class="st0" d="M1351.55,295.53c-0.6-7.25-8.83-1.3-8.83-1.3l1.16,8.97L1351.55,295.53z"/>
<path class="st0" d="M1356.11,249.36c0,0,2.36,5.23,5.76,3.14s0.79-4.71,0-5.23s1.57,3.66-2.09,2.88
	C1356.11,249.36,1356.11,249.36,1356.11,249.36z"/>
<path class="st0" d="M1373.64,314.01c0,0,0.26,6.54,2.62,3.66S1373.12,310.6,1373.64,314.01z"/>
<path class="st0" d="M1265.77,319.72c-2.73,4.71-3.52-5.32-3.52-5.32l3.52-5.53V319.72z"/>
<path class="st0" d="M1290.94,307.65c0,0-5.37-2.04-6.29,1.85s2.78,3.89,3.7,3.7s-3.7-1.48-0.56-3.52
	C1290.94,307.65,1290.94,307.65,1290.94,307.65z"/>
<path class="st0" d="M1377.72,150.57c-0.6-7.25-8.83-1.3-8.83-1.3l1.16,8.97L1377.72,150.57z"/>
<path class="st0" d="M974.1,443.22c7.25-0.6,1.3-8.83,1.3-8.83l-8.97,1.16L974.1,443.22z"/>
<path class="st0" d="M936.51,421.34c0,0-5.23,2.36-3.14,5.76s4.71,0.79,5.23,0c0.52-0.79-3.66,1.57-2.88-2.09
	C936.51,421.34,936.51,421.34,936.51,421.34z"/>
<path class="st0" d="M1070.5,444.58c9.99-1.48,2.59-12.22,2.59-12.22l-12.4,2.41L1070.5,444.58z"/>
<path class="st0" d="M992.36,460.87c-0.6-7.25-8.83-1.3-8.83-1.3l1.16,8.97L992.36,460.87z"/>
<path class="st0" d="M1129.81,429.73c5.26-1.4-1.28,6.25-1.28,6.25l-6.39,1.42L1129.81,429.73z"/>
<path class="st0" d="M1098.92,466.63c-0.6-7.25-8.83-1.3-8.83-1.3l1.16,8.97L1098.92,466.63z"/>
<path class="st0" d="M1103.48,420.46c0,0,2.36,5.23,5.76,3.14s0.79-4.71,0-5.23c-0.79-0.52,1.57,3.66-2.09,2.88
	C1103.48,420.46,1103.48,420.46,1103.48,420.46z"/>
<path class="st0" d="M954.33,403.24c8.11,6.02,10.47-6.81,10.47-6.81l-10.47-7.07V403.24z"/>
<path class="st0" d="M1121.01,485.11c0,0,0.26,6.54,2.62,3.66C1125.99,485.9,1120.49,481.71,1121.01,485.11z"/>
<path class="st0" d="M935.69,527.43c-4.71-2.73,5.32-3.52,5.32-3.52l5.53,3.52H935.69z"/>
<path class="st0" d="M983.62,523.17c-4.71,5.55,5.32,7.16,5.32,7.16l5.53-7.16H983.62z"/>
<path class="st0" d="M947.76,552.6c0,0,2.04-5.37-1.85-6.29c-3.89-0.93-3.89,2.78-3.7,3.7c0.19,0.93,1.48-3.7,3.52-0.56
	C947.76,552.6,947.76,552.6,947.76,552.6z"/>
<path class="st0" d="M981.07,494.48c0,0,4.44-4.81,0.74-4.44C978.11,490.41,979.04,497.26,981.07,494.48z"/>
<path class="st0" d="M1056.94,519.87c-0.6-7.25-8.83-1.3-8.83-1.3l1.16,8.97L1056.94,519.87z"/>
<path class="st0" d="M1061.39,566.73c5.26-1.4-1.28,6.25-1.28,6.25l-6.39,1.42L1061.39,566.73z"/>
<path class="st0" d="M1035.06,557.46c0,0,2.36,5.23,5.76,3.14s0.79-4.71,0-5.23c-0.79-0.52,1.57,3.66-2.09,2.88
	C1035.06,557.46,1035.06,557.46,1035.06,557.46z"/>
<path class="st0" d="M940.24,99.17c1.4,5.26-6.25-1.28-6.25-1.28l-1.42-6.39L940.24,99.17z"/>
<path class="st0" d="M949.51,72.84c0,0-5.23,2.36-3.14,5.76c2.09,3.4,4.71,0.79,5.23,0s-3.66,1.57-2.88-2.09
	C949.51,72.84,949.51,72.84,949.51,72.84z"/>
<path class="st0" d="M1231.43,246.75c5.55,4.71,7.16-5.32,7.16-5.32l-7.16-5.53V246.75z"/>
<path class="st0" d="M1224.44,159.62c5.26-1.4-1.28,6.25-1.28,6.25l-6.39,1.42L1224.44,159.62z"/>
<path class="st0" d="M1215.64,215.01c0,0,0.26,6.54,2.62,3.66C1220.62,215.79,1215.12,211.6,1215.64,215.01z"/>
<path class="st0" d="M1257.59,101.8c5.55,4.71,7.17-5.32,7.17-5.32l-7.17-5.53V101.8z"/>
<path class="st0" d="M1219.72,51.57c-0.6-7.25-8.83-1.3-8.83-1.3l1.16,8.97L1219.72,51.57z"/>
<path class="st0" d="M1241.81,70.05c0,0,0.26,6.54,2.62,3.66C1246.78,70.84,1241.28,66.65,1241.81,70.05z"/>
<path class="st0" d="M1281.13,44.28c1.48,9.99,12.22,2.59,12.22,2.59l-2.41-12.4L1281.13,44.28z"/>
<path class="st0" d="M1197.56,33.31c8.11,6.02,10.47-6.81,10.47-6.81l-10.47-7.07V33.31z"/>
<path class="st0" d="M1167.62,30.8c5.26-1.4-1.28,6.25-1.28,6.25l-6.39,1.42L1167.62,30.8z"/>
<path class="st0" d="M1037.79,206.1c0,0-6.54,0.26-3.66,2.62S1041.19,205.58,1037.79,206.1z"/>
<path class="st0" d="M1027.76,618.48c7.25-0.6,1.3-8.83,1.3-8.83l-8.97,1.16L1027.76,618.48z"/>
<path class="st1" d="M1746.28,719.81c8.74,7.53-39.02,84.54-199.43-3.42s-221.12-46.25-221.12-46.25s-95.46,134.01-187.33,41.16
	c-91.87-92.85-58.3,6.87-79.19,22.51s-51.47,22.43-51.47,22.43s98.56-4.79,131.14,20.93s102.29,39.78,141.53,30.62
	c39.24-9.17,108.17,24.09,115.43,20.05c7.25-4.04,62.94-21.51,89.19-3.23c26.25,18.28,171.25,68.04,231.99,16.32
	C1777.77,789.22,1746.28,719.81,1746.28,719.81z"/>
<path class="st2" d="M1523.61,346.54c0,0-86.54-71.62-154.28-40.88s-3.67,34.49-3.67,34.49s19.04-3.4,23.01-11.75
	C1392.63,320.06,1471.55,356.55,1523.61,346.54z"/>
<path class="st3" d="M-92.21,147.83c0,0,225.33,98.33,285.05,62.49s94.54-43.62,166.4-20.24s93.55,3.78,128.53-11.91
	s184.47,11.31,184.47,11.31s-163.87-37.02-178.52-92.65c-14.65-55.63-76.28,13.61-108.64-8.95s-63.09-35.97-104.33-11.3
	s-46.31,5.11-55.73-38.86C215.59-6.25,24.67,52.99-22.12-6.35C-22.12-6.35,28.2,116.9-92.21,147.83z"/>
<path class="st4" d="M85.06,860.54c0,0,299.45,84.93,391.07,27.54s-76.97-82.05-75.55-65.58c1.42,16.47-21.31,8.36-31.73,1.1
	c-10.42-7.26-66.14-19.86-109.43,5.21S133.1,865.66,85.06,860.54z"/>
<path class="st0" d="M448.24,1237.56c-6.02,8.11,6.81,10.47,6.81,10.47l7.07-10.47H448.24z"/>
<path class="st0" d="M497.61,1203.17c7.25-0.6,1.3-8.83,1.3-8.83l-8.97,1.16L497.61,1203.17z"/>
<path class="st0" d="M450.76,1207.62c1.4,5.26-6.25-1.28-6.25-1.28l-1.42-6.39L450.76,1207.62z"/>
<path class="st0" d="M413.85,1176.74c7.25-0.6,1.3-8.83,1.3-8.83l-8.97,1.16L413.85,1176.74z"/>
<path class="st0" d="M460.02,1181.29c0,0-5.23,2.36-3.14,5.76s4.71,0.79,5.23,0c0.52-0.79-3.66,1.57-2.88-2.09
	C460.02,1181.29,460.02,1181.29,460.02,1181.29z"/>
<path class="st0" d="M498.1,1432.22c7.25-0.6,1.3-8.83,1.3-8.83l-8.97,1.16L498.1,1432.22z"/>
<path class="st0" d="M451.25,1436.67c1.4,5.26-6.25-1.28-6.25-1.28l-1.42-6.39L451.25,1436.67z"/>
<path class="st0" d="M460.51,1410.34c0,0-5.23,2.36-3.14,5.76c2.09,3.4,4.71,0.79,5.23,0c0.52-0.79-3.66,1.57-2.88-2.09
	S460.51,1410.34,460.51,1410.34z"/>
<path class="st0" d="M341.42,1342.96c-9.99,1.48-2.59,12.22-2.59,12.22l12.4-2.41L341.42,1342.96z"/>
<path class="st0" d="M400.64,1353.55c5.55,4.71,7.16-5.32,7.16-5.32l-7.16-5.53V1353.55z"/>
<path class="st0" d="M364.37,1323.56c-2.73,4.71-3.52-5.32-3.52-5.32l3.52-5.53V1323.56z"/>
<path class="st0" d="M323.85,1287.32c7.25-0.6,1.3-8.83,1.3-8.83l-8.97,1.16L323.85,1287.32z"/>
<path class="st0" d="M389.54,1311.49c0,0-5.37-2.04-6.29,1.85c-0.93,3.89,2.78,3.89,3.7,3.7c0.93-0.19-3.7-1.48-0.56-3.52
	C389.54,1311.49,389.54,1311.49,389.54,1311.49z"/>
<path class="st0" d="M331.42,1278.18c0,0-4.81-4.44-4.44-0.74C327.35,1281.14,334.2,1280.22,331.42,1278.18z"/>
<path class="st0" d="M594.5,1433.58c9.99-1.48,2.59-12.22,2.59-12.22l-12.4,2.41L594.5,1433.58z"/>
<path class="st0" d="M288.27,1417.99c-5.55-4.71-7.16,5.32-7.16,5.32l7.16,5.53V1417.99z"/>
<path class="st0" d="M324.55,1447.97c2.73-4.71,3.52,5.32,3.52,5.32l-3.52,5.53V1447.97z"/>
<path class="st0" d="M428.8,1495.91c-5.55-4.71-7.16,5.32-7.16,5.32l7.16,5.53V1495.91z"/>
<path class="st0" d="M299.38,1460.04c0,0,5.37,2.04,6.29-1.85c0.93-3.89-2.78-3.89-3.7-3.7c-0.93,0.19,3.7,1.48,0.56,3.52
	C299.38,1460.04,299.38,1460.04,299.38,1460.04z"/>
<path class="st0" d="M329.74,1782.61c-6.02,8.11,6.81,10.47,6.81,10.47l7.07-10.47H329.74z"/>
<path class="st0" d="M332.25,1752.67c1.4,5.26-6.25-1.28-6.25-1.28l-1.42-6.39L332.25,1752.67z"/>
<path class="st0" d="M295.34,1721.79c7.25-0.6,1.3-8.83,1.3-8.83l-8.97,1.16L295.34,1721.79z"/>
<path class="st0" d="M341.51,1726.34c0,0-5.23,2.36-3.14,5.76c2.09,3.4,4.71,0.79,5.23,0c0.52-0.79-3.66,1.57-2.88-2.09
	C341.51,1726.34,341.51,1726.34,341.51,1726.34z"/>
<path class="st0" d="M276.86,1743.88c0,0-6.54,0.26-3.66,2.62C276.08,1748.85,280.27,1743.35,276.86,1743.88z"/>
<path class="st0" d="M1477.46,1355.96c6.02-8.11-6.81-10.47-6.81-10.47l-7.07,10.47H1477.46z"/>
<path class="st0" d="M1555.77,1685.03c9.99-1.48,2.59-12.22,2.59-12.22l-12.4,2.41L1555.77,1685.03z"/>
<path class="st0" d="M1532.83,1704.43c2.73-4.71,3.52,5.32,3.52,5.32l-3.52,5.53V1704.43z"/>
<path class="st0" d="M1549.93,1846c5.55,4.71,7.17-5.32,7.17-5.32l-7.17-5.53V1846z"/>
<path class="st0" d="M1567.46,1245.38c6.02-8.11-6.81-10.47-6.81-10.47l-7.07,10.47H1567.46z"/>
<path class="st0" d="M1518.09,1279.77c-7.25,0.6-1.3,8.83-1.3,8.83l8.97-1.16L1518.09,1279.77z"/>
<path class="st0" d="M1564.95,1275.32c-1.4-5.26,6.25,1.28,6.25,1.28l1.42,6.39L1564.95,1275.32z"/>
<path class="st0" d="M1601.85,1306.2c-7.25,0.6-1.3,8.83-1.3,8.83l8.97-1.16L1601.85,1306.2z"/>
<path class="st0" d="M1555.68,1301.65c0,0,5.23-2.36,3.14-5.76c-2.09-3.4-4.71-0.79-5.23,0c-0.52,0.79,3.66-1.57,2.88,2.09
	C1555.68,1301.65,1555.68,1301.65,1555.68,1301.65z"/>
<path class="st0" d="M1611.95,1454.32c-1.4-5.26,6.25,1.28,6.25,1.28l1.42,6.39L1611.95,1454.32z"/>
<path class="st0" d="M1620.33,1284.11c0,0,6.54-0.26,3.66-2.62C1621.12,1279.14,1616.93,1284.64,1620.33,1284.11z"/>
<path class="st0" d="M1141.66,1733.62c-6.02,8.11,6.81,10.47,6.81,10.47l7.07-10.47H1141.66z"/>
<path class="st0" d="M1279.27,1450.01c7.25-0.6,1.3-8.83,1.3-8.83l-8.97,1.16L1279.27,1450.01z"/>
<path class="st0" d="M1259.95,1824.9c-1.4-5.26,6.25,1.28,6.25,1.28l1.42,6.39L1259.95,1824.9z"/>
<path class="st0" d="M1250.68,1851.23c0,0,5.23-2.36,3.14-5.76c-2.09-3.4-4.71-0.79-5.23,0c-0.52,0.79,3.66-1.57,2.88,2.09
	C1250.68,1851.23,1250.68,1851.23,1250.68,1851.23z"/>
<path class="st0" d="M1532.46,1682.37c6.02-8.11-6.81-10.47-6.81-10.47l-7.07,10.47H1532.46z"/>
<path class="st0" d="M1529.95,1712.32c-1.4-5.26,6.25,1.28,6.25,1.28l1.42,6.39L1529.95,1712.32z"/>
<path class="st0" d="M1520.68,1738.65c0,0,5.23-2.36,3.14-5.76c-2.09-3.4-4.71-0.79-5.23,0c-0.52,0.79,3.66-1.57,2.88,2.09
	C1520.68,1738.65,1520.68,1738.65,1520.68,1738.65z"/>
<path class="st0" d="M650.04,2157.55c5.55,4.71,7.16-5.32,7.16-5.32l-7.16-5.53V2157.55z"/>
<path class="st0" d="M643.06,2070.42c5.26-1.4-1.28,6.25-1.28,6.25l-6.39,1.42L643.06,2070.42z"/>
<path class="st0" d="M612.17,2107.32c-0.6-7.25-8.83-1.3-8.83-1.3l1.16,8.97L612.17,2107.32z"/>
<path class="st0" d="M616.72,2061.15c0,0,2.36,5.23,5.76,3.14s0.79-4.71,0-5.23s1.57,3.66-2.09,2.88
	C616.72,2061.15,616.72,2061.15,616.72,2061.15z"/>
<path class="st0" d="M634.26,2125.8c0,0,0.26,6.54,2.62,3.66S633.74,2122.4,634.26,2125.8z"/>
<path class="st0" d="M562.66,2161.5c5.55,4.71,7.16-5.32,7.16-5.32l-7.16-5.52V2161.5z"/>
<path class="st0" d="M551.55,2119.45c0,0-5.37-2.04-6.29,1.85c-0.93,3.89,2.78,3.89,3.7,3.7s-3.7-1.48-0.56-3.52
	S551.55,2119.45,551.55,2119.45z"/>
<path class="st0" d="M638.33,1962.37c-0.6-7.25-8.83-1.3-8.83-1.3l1.16,8.97L638.33,1962.37z"/>
<path class="st0" d="M642.89,1916.2c0,0,2.36,5.23,5.76,3.14c3.4-2.09,0.79-4.71,0-5.23c-0.79-0.52,1.57,3.66-2.09,2.88
	C642.89,1916.2,642.89,1916.2,642.89,1916.2z"/>
<path class="st0" d="M206.94,2013.29c-4.71,5.55,5.32,7.16,5.32,7.16l5.53-7.16H206.94z"/>
<path class="st0" d="M247.82,1573.47c0,0,2.04-5.37-1.85-6.29s-3.89,2.78-3.7,3.7c0.19,0.93,1.48-3.7,3.52-0.56
	C247.82,1573.47,247.82,1573.47,247.82,1573.47z"/>
<path class="st0" d="M204.39,1984.6c0,0,4.44-4.81,0.74-4.44C201.42,1980.53,202.35,1987.38,204.39,1984.6z"/>
<path class="st0" d="M110.95,1315.43c6.02-8.11-6.81-10.47-6.81-10.47l-7.07,10.47H110.95z"/>
<path class="st0" d="M108.44,1345.37c-1.4-5.26,6.25,1.28,6.25,1.28l1.42,6.39L108.44,1345.37z"/>
<path class="st0" d="M99.17,1371.7c0,0,5.23-2.36,3.14-5.76c-2.09-3.4-4.71-0.79-5.23,0c-0.52,0.79,3.66-1.57,2.88,2.09
	C99.17,1371.7,99.17,1371.7,99.17,1371.7z"/>
<path class="st0" d="M107.95,1116.32c-1.4-5.26,6.25,1.28,6.25,1.28l1.42,6.39L107.95,1116.32z"/>
<path class="st0" d="M98.68,1142.65c0,0,5.23-2.36,3.14-5.76c-2.09-3.4-4.71-0.79-5.23,0c-0.52,0.79,3.66-1.57,2.88,2.09
	C98.68,1142.65,98.68,1142.65,98.68,1142.65z"/>
<path class="st0" d="M234.65,1105.02c-2.73,4.71-3.52-5.32-3.52-5.32l3.52-5.53V1105.02z"/>
<path class="st0" d="M252.09,1169.35c-7.25,0.6-1.3,8.83-1.3,8.83l8.97-1.16L252.09,1169.35z"/>
<path class="st0" d="M301.77,1331.03c9.99-1.48,2.59-12.22,2.59-12.22l-12.4,2.41L301.77,1331.03z"/>
<path class="st0" d="M278.83,1350.43c2.73-4.71,3.52,5.32,3.52,5.32l-3.52,5.53V1350.43z"/>
<path class="st0" d="M319.34,1386.67c-7.25,0.6-1.3,8.83-1.3,8.83l8.97-1.16L319.34,1386.67z"/>
<path class="st0" d="M253.65,1362.5c0,0,5.37,2.04,6.29-1.85c0.93-3.89-2.78-3.89-3.7-3.7c-0.93,0.19,3.7,1.48,0.56,3.52
	C253.65,1362.5,253.65,1362.5,253.65,1362.5z"/>
<path class="st0" d="M311.77,1395.81c0,0,4.81,4.44,4.44,0.74C315.84,1392.85,308.99,1393.77,311.77,1395.81z"/>
<path class="st0" d="M318.65,1226.02c-2.73,4.71-3.52-5.32-3.52-5.32l3.52-5.53V1226.02z"/>
<path class="st0" d="M314.39,1178.08c5.55,4.71,7.16-5.32,7.16-5.32l-7.16-5.53V1178.08z"/>
<path class="st0" d="M343.82,1213.95c0,0-5.37-2.04-6.29,1.85c-0.93,3.89,2.78,3.89,3.7,3.7s-3.7-1.48-0.56-3.52
	C343.82,1213.95,343.82,1213.95,343.82,1213.95z"/>
<path class="st0" d="M285.7,1180.64c0,0-4.81-4.44-4.44-0.74S288.48,1182.67,285.7,1180.64z"/>
<path class="st0" d="M90.95,1969.32c-1.4-5.26,6.25,1.28,6.25,1.28l1.42,6.39L90.95,1969.32z"/>
<path class="st0" d="M200.77,2063.03c9.99-1.48,2.59-12.22,2.59-12.22l-12.4,2.41L200.77,2063.03z"/>
<path class="st0" d="M217.65,1958.02c-2.73,4.71-3.52-5.32-3.52-5.32l3.52-5.53V1958.02z"/>
<path class="st0" d="M213.39,1910.08c5.55,4.71,7.16-5.32,7.16-5.32l-7.16-5.53V1910.08z"/>
<path class="st0" d="M242.82,1945.95c0,0-5.37-2.04-6.29,1.85c-0.93,3.89,2.78,3.89,3.7,3.7c0.93-0.19-3.7-1.48-0.56-3.52
	C242.82,1945.95,242.82,1945.95,242.82,1945.95z"/>
<path class="st0" d="M210.09,1836.77c-7.25,0.6-1.3,8.83-1.3,8.83l8.97-1.16L210.09,1836.77z"/>
<path class="st0" d="M256.95,1832.32c-1.4-5.26,6.25,1.28,6.25,1.28l1.42,6.39L256.95,1832.32z"/>
<path class="st0" d="M235.09,2022.35c-7.25,0.6-1.3,8.83-1.3,8.83l8.97-1.16L235.09,2022.35z"/>
<path class="st0" d="M268.7,2033.64c0,0-4.81-4.44-4.44-0.74S271.48,2035.67,268.7,2033.64z"/>
<path class="st0" d="M625.38,1973.52c-2.73,4.71-3.52-5.32-3.52-5.32l3.52-5.53V1973.52z"/>
<path class="st0" d="M650.55,1961.45c0,0-5.37-2.04-6.29,1.85c-0.93,3.89,2.78,3.89,3.7,3.7s-3.7-1.48-0.56-3.52
	C650.55,1961.45,650.55,1961.45,650.55,1961.45z"/>
<path class="st0" d="M609.31,1953.88c1.4,5.26-6.25-1.28-6.25-1.28l-1.42-6.39L609.31,1953.88z"/>
<path class="st0" d="M572.4,1923c7.25-0.6,1.3-8.83,1.3-8.83l-8.97,1.16L572.4,1923z"/>
<path class="st0" d="M553.92,1945.09c0,0-6.54,0.26-3.66,2.62C553.14,1950.06,557.33,1944.57,553.92,1945.09z"/>
<path class="st0" d="M927.74,1721.03c-6.02,8.11,6.81,10.47,6.81,10.47l7.07-10.47H927.74z"/>
<path class="st0" d="M899.1,1553.64c7.25-0.6,1.3-8.83,1.3-8.83l-8.97,1.16L899.1,1553.64z"/>
<path class="st0" d="M930.25,1691.09c1.4,5.26-6.25-1.28-6.25-1.28l-1.42-6.39L930.25,1691.09z"/>
<path class="st0" d="M893.34,1660.2c7.25-0.6,1.3-8.83,1.3-8.83l-8.97,1.16L893.34,1660.2z"/>
<path class="st0" d="M939.51,1664.76c0,0-5.23,2.36-3.14,5.76c2.09,3.4,4.71,0.79,5.23,0c0.52-0.79-3.66,1.57-2.88-2.09
	C939.51,1664.76,939.51,1664.76,939.51,1664.76z"/>
<path class="st0" d="M956.74,1515.62c-6.02,8.11,6.81,10.47,6.81,10.47l7.07-10.47H956.74z"/>
<path class="st0" d="M1006.1,1481.22c7.25-0.6,1.3-8.83,1.3-8.83l-8.97,1.16L1006.1,1481.22z"/>
<path class="st0" d="M959.25,1485.67c1.4,5.26-6.25-1.28-6.25-1.28l-1.42-6.39L959.25,1485.67z"/>
<path class="st0" d="M968.51,1459.34c0,0-5.23,2.36-3.14,5.76c2.09,3.4,4.71,0.79,5.23,0c0.52-0.79-3.66,1.57-2.88-2.09
	C968.51,1459.34,968.51,1459.34,968.51,1459.34z"/>
<path class="st0" d="M874.86,1682.29c0,0-6.54,0.26-3.66,2.62C874.08,1687.27,878.27,1681.77,874.86,1682.29z"/>
<path class="st0" d="M908.64,1402.55c5.55,4.71,7.16-5.32,7.16-5.32l-7.16-5.53V1402.55z"/>
<path class="st0" d="M897.54,1360.49c0,0-5.37-2.04-6.29,1.85c-0.93,3.89,2.78,3.89,3.7,3.7c0.93-0.19-3.7-1.48-0.56-3.52
	C897.54,1360.49,897.54,1360.49,897.54,1360.49z"/>
<path class="st0" d="M1102.5,1482.58c9.99-1.48,2.59-12.22,2.59-12.22l-12.4,2.41L1102.5,1482.58z"/>
<path class="st0" d="M803.34,1770.79c7.25-0.6,1.3-8.83,1.3-8.83l-8.97,1.16L803.34,1770.79z"/>
<path class="st0" d="M784.86,1792.88c0,0-6.54,0.26-3.66,2.62C784.08,1797.85,788.27,1792.35,784.86,1792.88z"/>
<path class="st0" d="M1078.62,2277.83c5.55,4.71,7.17-5.32,7.17-5.32l-7.17-5.53V2277.83z"/>
<path class="st0" d="M1049.93,2280.39c0,0-4.81-4.44-4.44-0.74C1045.86,2283.35,1052.71,2282.42,1049.93,2280.39z"/>
<path class="st0" d="M1146.33,2011.37c-0.6-7.25-8.83-1.3-8.83-1.3l1.16,8.97L1146.33,2011.37z"/>
<path class="st0" d="M886.31,2255.3c-7.25,0.6-1.3,8.83-1.3,8.83l8.97-1.16L886.31,2255.3z"/>
<path class="st0" d="M923.9,2277.18c0,0,5.23-2.36,3.14-5.76s-4.71-0.79-5.23,0s3.66-1.57,2.88,2.09
	C923.9,2277.18,923.9,2277.18,923.9,2277.18z"/>
<path class="st0" d="M873.35,2134.72c1.4,5.26-6.25-1.28-6.25-1.28l-1.42-6.39L873.35,2134.72z"/>
<path class="st0" d="M836.45,2103.84c7.25-0.6,1.3-8.83,1.3-8.83l-8.97,1.16L836.45,2103.84z"/>
<path class="st0" d="M882.62,2108.39c0,0-5.23,2.36-3.14,5.76c2.09,3.4,4.71,0.79,5.23,0c0.52-0.79-3.66,1.57-2.88-2.09
	S882.62,2108.39,882.62,2108.39z"/>
<path class="st0" d="M817.97,2125.93c0,0-6.54,0.26-3.66,2.62S821.37,2125.4,817.97,2125.93z"/>
<path class="st0" d="M812.26,2018.05c-4.71-2.73,5.32-3.52,5.32-3.52l5.53,3.52H812.26z"/>
<path class="st0" d="M824.32,2043.22c0,0,2.04-5.37-1.85-6.29s-3.89,2.78-3.7,3.7c0.19,0.93,1.48-3.7,3.52-0.56
	S824.32,2043.22,824.32,2043.22z"/>
<path class="st0" d="M948.77,2283.63c0,0,2.04-5.37-1.85-6.29c-3.89-0.93-3.89,2.78-3.7,3.7c0.19,0.93,1.48-3.7,3.52-0.56
	C948.77,2283.63,948.77,2283.63,948.77,2283.63z"/>
<path class="st0" d="M718.09,1885.77c-7.25,0.6-1.3,8.83-1.3,8.83l8.97-1.16L718.09,1885.77z"/>
<path class="st0" d="M764.95,1881.32c-1.4-5.26,6.25,1.28,6.25,1.28l1.42,6.39L764.95,1881.32z"/>
<path class="st0" d="M755.68,1907.65c0,0,5.23-2.36,3.14-5.76s-4.71-0.79-5.23,0c-0.52,0.79,3.66-1.57,2.88,2.09
	C755.68,1907.65,755.68,1907.65,755.68,1907.65z"/>
<path class="st0" d="M1133.38,2022.52c-2.73,4.71-3.52-5.32-3.52-5.32l3.52-5.53V2022.52z"/>
<path class="st0" d="M885.22,1983.71c-4.71,5.55,5.32,7.16,5.32,7.16l5.53-7.16H885.22z"/>
<path class="st0" d="M972.35,1976.72c1.4,5.26-6.25-1.28-6.25-1.28l-1.42-6.39L972.35,1976.72z"/>
<path class="st0" d="M935.45,1945.84c7.25-0.6,1.3-8.83,1.3-8.83l-8.97,1.16L935.45,1945.84z"/>
<path class="st0" d="M981.62,1950.39c0,0-5.23,2.36-3.14,5.76c2.09,3.4,4.71,0.79,5.23,0c0.52-0.79-3.66,1.57-2.88-2.09
	C981.62,1950.39,981.62,1950.39,981.62,1950.39z"/>
<path class="st0" d="M916.97,1967.93c0,0-6.54,0.26-3.66,2.62C916.18,1972.9,920.37,1967.4,916.97,1967.93z"/>
<path class="st0" d="M881.27,1896.32c-4.71,5.55,5.32,7.16,5.32,7.16l5.53-7.16H881.27z"/>
<path class="st0" d="M923.32,1885.22c0,0,2.04-5.37-1.85-6.29s-3.89,2.78-3.7,3.7c0.19,0.93,1.48-3.7,3.52-0.56
	S923.32,1885.22,923.32,1885.22z"/>
<path class="st0" d="M1030.18,2009.87c-4.71,5.55,5.32,7.16,5.32,7.16l5.53-7.16H1030.18z"/>
<path class="st0" d="M1117.31,2002.88c1.4,5.26-6.25-1.28-6.25-1.28l-1.42-6.39L1117.31,2002.88z"/>
<path class="st0" d="M1080.4,1972c7.25-0.6,1.3-8.83,1.3-8.83l-8.97,1.16L1080.4,1972z"/>
<path class="st0" d="M1061.92,1994.09c0,0-6.54,0.26-3.66,2.62C1061.14,1999.06,1065.33,1993.57,1061.92,1994.09z"/>
<path class="st0" d="M904.39,1922.08c5.55,4.71,7.16-5.32,7.16-5.32l-7.16-5.53V1922.08z"/>
<path class="st0" d="M875.7,1924.64c0,0-4.81-4.44-4.44-0.74C871.63,1927.6,878.48,1926.67,875.7,1924.64z"/>
<path class="st0" d="M837.4,2292c7.25-0.6,1.3-8.83,1.3-8.83l-8.97,1.16L837.4,2292z"/>
<path class="st0" d="M1087.7,2033.41c-9.99,1.48-2.59,12.22-2.59,12.22l12.4-2.41L1087.7,2033.41z"/>
<path class="st0" d="M1098.66,1949.84c-6.02,8.11,6.81,10.47,6.81,10.47l7.07-10.47H1098.66z"/>
<path class="st0" d="M1101.17,1919.9c1.4,5.26-6.25-1.28-6.25-1.28l-1.42-6.39L1101.17,1919.9z"/>
<path class="st0" d="M1110.44,1893.57c0,0-5.23,2.36-3.14,5.76c2.09,3.4,4.71,0.79,5.23,0c0.52-0.79-3.66,1.57-2.88-2.09
	C1110.44,1893.57,1110.44,1893.57,1110.44,1893.57z"/>
<path class="st0" d="M1528.18,1634.34c7.25-0.6,1.3-8.83,1.3-8.83l-8.97,1.16L1528.18,1634.34z"/>
<path class="st0" d="M1191.75,1470.24c8.11,6.02,10.47-6.81,10.47-6.81l-10.47-7.07V1470.24z"/>
<path class="st0" d="M1024.36,1498.87c-0.6-7.25-8.83-1.3-8.83-1.3l1.16,8.97L1024.36,1498.87z"/>
<path class="st0" d="M1161.81,1467.73c5.26-1.4-1.28,6.25-1.28,6.25l-6.39,1.42L1161.81,1467.73z"/>
<path class="st0" d="M1130.92,1504.63c-0.6-7.25-8.83-1.3-8.83-1.3l1.16,8.97L1130.92,1504.63z"/>
<path class="st0" d="M1135.48,1458.46c0,0,2.36,5.23,5.76,3.14c3.4-2.09,0.79-4.71,0-5.23c-0.79-0.52,1.57,3.66-2.09,2.88
	C1135.48,1458.46,1135.48,1458.46,1135.48,1458.46z"/>
<path class="st0" d="M986.33,1441.24c8.11,6.02,10.47-6.81,10.47-6.81l-10.47-7.07V1441.24z"/>
<path class="st0" d="M951.94,1391.87c-0.6-7.25-8.83-1.3-8.83-1.3l1.16,8.97L951.94,1391.87z"/>
<path class="st0" d="M956.39,1438.73c5.26-1.4-1.28,6.25-1.28,6.25l-6.39,1.42L956.39,1438.73z"/>
<path class="st0" d="M930.06,1429.46c0,0,2.36,5.23,5.76,3.14c3.4-2.09,0.79-4.71,0-5.23c-0.79-0.52,1.57,3.66-2.09,2.88
	C930.06,1429.46,930.06,1429.46,930.06,1429.46z"/>
<path class="st0" d="M1153.01,1523.11c0,0,0.26,6.54,2.62,3.66C1157.99,1523.9,1152.49,1519.71,1153.01,1523.11z"/>
<path class="st0" d="M953.29,1295.48c-1.48-9.99-12.22-2.59-12.22-2.59l2.41,12.4L953.29,1295.48z"/>
<path class="st0" d="M937.71,1601.7c-4.71,5.55,5.32,7.17,5.32,7.17l5.53-7.17H937.71z"/>
<path class="st0" d="M967.69,1565.43c-4.71-2.73,5.32-3.52,5.32-3.52l5.53,3.52H967.69z"/>
<path class="st0" d="M1015.62,1561.17c-4.71,5.55,5.32,7.16,5.32,7.16l5.53-7.16H1015.62z"/>
<path class="st0" d="M979.76,1590.6c0,0,2.04-5.37-1.85-6.29s-3.89,2.78-3.7,3.7c0.19,0.93,1.48-3.7,3.52-0.56
	C979.76,1590.6,979.76,1590.6,979.76,1590.6z"/>
<path class="st0" d="M1013.07,1532.48c0,0,4.44-4.81,0.74-4.44S1011.04,1535.26,1013.07,1532.48z"/>
<path class="st0" d="M1267.94,1510.87c-0.6-7.25-8.83-1.3-8.83-1.3l1.16,8.97L1267.94,1510.87z"/>
<path class="st0" d="M1272.39,1557.73c5.26-1.4-1.28,6.25-1.28,6.25l-6.39,1.42L1272.39,1557.73z"/>
<path class="st0" d="M1241.51,1594.63c-0.6-7.25-8.83-1.3-8.83-1.3l1.16,8.97L1241.51,1594.63z"/>
<path class="st0" d="M1246.06,1548.46c0,0,2.36,5.23,5.76,3.14c3.4-2.09,0.79-4.71,0-5.23c-0.79-0.52,1.57,3.66-2.09,2.88
	C1246.06,1548.46,1246.06,1548.46,1246.06,1548.46z"/>
<path class="st0" d="M1088.94,1557.87c-0.6-7.25-8.83-1.3-8.83-1.3l1.16,8.97L1088.94,1557.87z"/>
<path class="st0" d="M1093.39,1604.73c5.26-1.4-1.28,6.25-1.28,6.25l-6.39,1.42L1093.39,1604.73z"/>
<path class="st0" d="M1067.06,1595.46c0,0,2.36,5.23,5.76,3.14c3.4-2.09,0.79-4.71,0-5.23c-0.79-0.52,1.57,3.66-2.09,2.88
	C1067.06,1595.46,1067.06,1595.46,1067.06,1595.46z"/>
<path class="st0" d="M1263.6,1613.11c0,0,0.26,6.54,2.62,3.66S1263.07,1609.71,1263.6,1613.11z"/>
<path class="st0" d="M1590.14,1246.92c-1.4-5.26,6.25,1.28,6.25,1.28l1.42,6.39L1590.14,1246.92z"/>
<path class="st0" d="M1580.87,1273.25c0,0,5.23-2.36,3.14-5.76c-2.09-3.4-4.71-0.79-5.23,0c-0.52,0.79,3.66-1.57,2.88,2.09
	C1580.87,1273.25,1580.87,1273.25,1580.87,1273.25z"/>
<path class="st0" d="M1482.09,1251.64c-7.25,0.6-1.3,8.83-1.3,8.83l8.97-1.16L1482.09,1251.64z"/>
<path class="st0" d="M1435.92,1247.09c0,0,5.23-2.36,3.14-5.76c-2.09-3.4-4.71-0.79-5.23,0c-0.52,0.79,3.66-1.57,2.88,2.09
	C1435.92,1247.09,1435.92,1247.09,1435.92,1247.09z"/>
<path class="st0" d="M906.39,1570.63c0.6,7.25,8.83,1.3,8.83,1.3l-1.16-8.97L906.39,1570.63z"/>
<path class="st0" d="M915.53,1578.2c0,0,4.44-4.81,0.74-4.44S913.49,1580.98,915.53,1578.2z"/>
<path class="st0" d="M1118.74,1949.03c-6.02,8.11,6.81,10.47,6.81,10.47l7.07-10.47H1118.74z"/>
<path class="st0" d="M1121.25,1919.09c1.4,5.26-6.25-1.28-6.25-1.28l-1.42-6.39L1121.25,1919.09z"/>
<path class="st0" d="M1130.51,1892.76c0,0-5.23,2.36-3.14,5.76c2.09,3.4,4.71,0.79,5.23,0c0.52-0.79-3.66,1.57-2.88-2.09
	C1130.51,1892.76,1130.51,1892.76,1130.51,1892.76z"/>
<path class="st0" d="M1147.74,1743.62c-6.02,8.11,6.81,10.47,6.81,10.47l7.07-10.47H1147.74z"/>
<path class="st0" d="M1197.1,1709.22c7.25-0.6,1.3-8.83,1.3-8.83l-8.97,1.16L1197.1,1709.22z"/>
<path class="st0" d="M1150.25,1713.67c1.4,5.26-6.25-1.28-6.25-1.28l-1.42-6.39L1150.25,1713.67z"/>
<path class="st0" d="M1159.51,1687.34c0,0-5.23,2.36-3.14,5.76c2.09,3.4,4.71,0.79,5.23,0c0.52-0.79-3.66,1.57-2.88-2.09
	C1159.51,1687.34,1159.51,1687.34,1159.51,1687.34z"/>
<path class="st0" d="M1215.36,1726.87c-0.6-7.25-8.83-1.3-8.83-1.3l1.16,8.97L1215.36,1726.87z"/>
<path class="st0" d="M1177.33,1669.24c8.11,6.02,10.47-6.81,10.47-6.81l-10.47-7.07V1669.24z"/>
<path class="st0" d="M1142.94,1619.87c-0.6-7.25-8.83-1.3-8.83-1.3l1.16,8.97L1142.94,1619.87z"/>
<path class="st0" d="M1147.39,1666.73c5.26-1.4-1.28,6.25-1.28,6.25l-6.39,1.42L1147.39,1666.73z"/>
<path class="st0" d="M1121.06,1657.46c0,0,2.36,5.23,5.76,3.14c3.4-2.09,0.79-4.71,0-5.23c-0.79-0.52,1.57,3.66-2.09,2.88
	C1121.06,1657.46,1121.06,1657.46,1121.06,1657.46z"/>
<path class="st0" d="M1144.29,1523.48c-1.48-9.99-12.22-2.59-12.22-2.59l2.41,12.4L1144.29,1523.48z"/>
<path class="st0" d="M1128.71,1829.7c-4.71,5.55,5.32,7.17,5.32,7.17l5.53-7.17H1128.71z"/>
<path class="st0" d="M1158.69,1793.43c-4.71-2.73,5.32-3.52,5.32-3.52l5.53,3.52H1158.69z"/>
<path class="st0" d="M1206.62,1789.17c-4.71,5.55,5.32,7.16,5.32,7.16l5.53-7.16H1206.62z"/>
<path class="st0" d="M1170.76,1818.6c0,0,2.04-5.37-1.85-6.29c-3.89-0.93-3.89,2.78-3.7,3.7s1.48-3.7,3.52-0.56
	C1170.76,1818.6,1170.76,1818.6,1170.76,1818.6z"/>
<path class="st0" d="M1204.07,1760.48c0,0,4.44-4.81,0.74-4.44S1202.04,1763.26,1204.07,1760.48z"/>
<path class="st0" d="M1279.94,1785.87c-0.6-7.25-8.83-1.3-8.83-1.3l1.16,8.97L1279.94,1785.87z"/>
<path class="st0" d="M1284.39,1832.73c5.26-1.4-1.28,6.25-1.28,6.25l-6.39,1.42L1284.39,1832.73z"/>
<path class="st0" d="M1258.06,1823.46c0,0,2.36,5.23,5.76,3.14c3.4-2.09,0.79-4.71,0-5.23c-0.79-0.52,1.57,3.66-2.09,2.88
	C1258.06,1823.46,1258.06,1823.46,1258.06,1823.46z"/>
<path class="st0" d="M1106.53,1806.2c0,0,4.44-4.81,0.74-4.44S1104.49,1808.98,1106.53,1806.2z"/>
<path class="st0" d="M909.93,1131.1c-8.11-6.02-10.47,6.81-10.47,6.81l10.47,7.07V1131.1z"/>
<path class="st0" d="M939.88,1133.61c-5.26,1.4,1.28-6.25,1.28-6.25l6.39-1.42L939.88,1133.61z"/>
<path class="st0" d="M966.21,1142.88c0,0-2.36-5.23-5.76-3.14c-3.4,2.09-0.79,4.71,0,5.23c0.79,0.52-1.57-3.66,2.09-2.88
	C966.21,1142.88,966.21,1142.88,966.21,1142.88z"/>
<path class="st0" d="M1115.35,1160.1c-8.11-6.02-10.47,6.81-10.47,6.81l10.47,7.07V1160.1z"/>
<path class="st0" d="M1149.74,1209.46c0.6,7.25,8.83,1.3,8.83,1.3l-1.16-8.97L1149.74,1209.46z"/>
<path class="st0" d="M1145.29,1162.61c-5.26,1.4,1.28-6.25,1.28-6.25l6.39-1.42L1145.29,1162.61z"/>
<path class="st0" d="M1148.39,1305.86c1.48,9.99,12.22,2.59,12.22,2.59l-2.41-12.4L1148.39,1305.86z"/>
<path class="st0" d="M1132.09,1227.72c7.25-0.6,1.3-8.83,1.3-8.83l-8.97,1.16L1132.09,1227.72z"/>
<path class="st0" d="M1163.24,1365.17c1.4,5.26-6.25-1.28-6.25-1.28l-1.42-6.39L1163.24,1365.17z"/>
<path class="st0" d="M1126.34,1334.29c7.25-0.6,1.3-8.83,1.3-8.83l-8.97,1.16L1126.34,1334.29z"/>
<path class="st0" d="M1107.86,1356.38c0,0-6.54,0.26-3.66,2.62C1107.07,1361.35,1111.26,1355.85,1107.86,1356.38z"/>
<path class="st0" d="M1335.49,1156.66c9.99-1.48,2.59-12.22,2.59-12.22l-12.4,2.41L1335.49,1156.66z"/>
<path class="st0" d="M1029.27,1141.07c-5.55-4.71-7.17,5.32-7.17,5.32l7.17,5.53V1141.07z"/>
<path class="st0" d="M1065.54,1171.05c2.73-4.71,3.52,5.32,3.52,5.32l-3.52,5.53V1171.05z"/>
<path class="st0" d="M1069.8,1218.99c-5.55-4.71-7.17,5.32-7.17,5.32l7.17,5.53V1218.99z"/>
<path class="st0" d="M1040.37,1183.12c0,0,5.37,2.04,6.29-1.85c0.93-3.89-2.78-3.89-3.7-3.7c-0.93,0.19,3.7,1.48,0.56,3.52
	C1040.37,1183.12,1040.37,1183.12,1040.37,1183.12z"/>
<path class="st0" d="M1098.48,1216.44c0,0,4.81,4.44,4.44,0.74C1102.56,1213.48,1095.71,1214.4,1098.48,1216.44z"/>
<path class="st0" d="M1073.09,1292.31c7.25-0.6,1.3-8.83,1.3-8.83l-8.97,1.16L1073.09,1292.31z"/>
<path class="st0" d="M1026.24,1296.76c1.4,5.26-6.25-1.28-6.25-1.28l-1.42-6.39L1026.24,1296.76z"/>
<path class="st0" d="M1035.51,1270.42c0,0-5.23,2.36-3.14,5.76c2.09,3.4,4.71,0.79,5.23,0c0.52-0.79-3.66,1.57-2.88-2.09
	C1035.51,1270.42,1035.51,1270.42,1035.51,1270.42z"/>
<path class="st0" d="M1052.76,1118.89c0,0,4.81,4.44,4.44,0.74C1056.83,1115.93,1049.99,1116.86,1052.76,1118.89z"/>
<path class="st0" d="M1553.36,1621.27c0,0-4.44,4.81-0.74,4.44C1556.32,1625.34,1555.39,1618.5,1553.36,1621.27z"/>
<path class="st0" d="M1493.23,1264.59c4.71,2.73-5.32,3.52-5.32,3.52l-5.53-3.52H1493.23z"/>
<path class="st0" d="M1481.17,1239.42c0,0-2.04,5.37,1.85,6.29c3.89,0.93,3.89-2.78,3.7-3.7c-0.19-0.93-1.48,3.7-3.52,0.56
	S1481.17,1239.42,1481.17,1239.42z"/>
<path class="st0" d="M1473.6,1280.66c5.26-1.4-1.28,6.25-1.28,6.25l-6.39,1.42L1473.6,1280.66z"/>
<path class="st0" d="M1442.72,1317.57c-0.6-7.25-8.83-1.3-8.83-1.3l1.16,8.97L1442.72,1317.57z"/>
<path class="st0" d="M1464.81,1336.05c0,0,0.26,6.54,2.62,3.66S1464.28,1332.65,1464.81,1336.05z"/>
<path class="st0" d="M1504.13,1310.28c1.48,9.99,12.22,2.59,12.22,2.59l-2.41-12.4L1504.13,1310.28z"/>
<path class="st0" d="M1420.56,1299.31c8.11,6.02,10.47-6.81,10.47-6.81l-10.47-7.07V1299.31z"/>
<path class="st0" d="M1386.17,1249.95c-0.6-7.25-8.83-1.3-8.83-1.3l1.16,8.97L1386.17,1249.95z"/>
<path class="st0" d="M1390.62,1296.8c5.26-1.4-1.28,6.25-1.28,6.25l-6.39,1.42L1390.62,1296.8z"/>
<path class="st0" d="M1364.29,1287.54c0,0,2.36,5.23,5.76,3.14c3.4-2.09,0.79-4.71,0-5.23c-0.79-0.52,1.57,3.66-2.09,2.88
	C1364.29,1287.54,1364.29,1287.54,1364.29,1287.54z"/>
<path class="st0" d="M1260.79,1472.1c0,0-6.54,0.26-3.66,2.62C1260,1477.08,1264.19,1471.58,1260.79,1472.1z"/>
<path class="st0" d="M577.95,1757.43c6.02-8.11-6.81-10.47-6.81-10.47l-7.07,10.47H577.95z"/>
<path class="st0" d="M575.44,1787.37c-1.4-5.26,6.25,1.28,6.25,1.28l1.42,6.39L575.44,1787.37z"/>
<path class="st0" d="M612.34,1818.25c-7.25,0.6-1.3,8.83-1.3,8.83l8.97-1.16L612.34,1818.25z"/>
<path class="st0" d="M566.17,1813.7c0,0,5.23-2.36,3.14-5.76c-2.09-3.4-4.71-0.79-5.23,0c-0.52,0.79,3.66-1.57,2.88,2.09
	C566.17,1813.7,566.17,1813.7,566.17,1813.7z"/>
<path class="st0" d="M630.82,1796.17c0,0,6.54-0.26,3.66-2.62S627.42,1796.69,630.82,1796.17z"/>
<path class="st0" d="M606.46,1322.96c6.02-8.11-6.81-10.47-6.81-10.47l-7.07,10.47H606.46z"/>
<path class="st0" d="M635.09,1490.35c-7.25,0.6-1.3,8.83-1.3,8.83l8.97-1.16L635.09,1490.35z"/>
<path class="st0" d="M603.95,1352.9c-1.4-5.26,6.25,1.28,6.25,1.28l1.42,6.39L603.95,1352.9z"/>
<path class="st0" d="M640.85,1383.79c-7.25,0.6-1.3,8.83-1.3,8.83l8.97-1.16L640.85,1383.79z"/>
<path class="st0" d="M594.68,1379.23c0,0,5.23-2.36,3.14-5.76c-2.09-3.4-4.71-0.79-5.23,0c-0.52,0.79,3.66-1.57,2.88,2.09
	C594.68,1379.23,594.68,1379.23,594.68,1379.23z"/>
<path class="st0" d="M577.46,1528.37c6.02-8.11-6.81-10.47-6.81-10.47l-7.07,10.47H577.46z"/>
<path class="st0" d="M659.33,1361.7c0,0,6.54-0.26,3.66-2.62C660.12,1356.72,655.93,1362.22,659.33,1361.7z"/>
<path class="st0" d="M702.34,1707.67c-7.25,0.6-1.3,8.83-1.3,8.83l8.97-1.16L702.34,1707.67z"/>
<path class="st0" d="M694.77,1716.81c0,0,4.81,4.44,4.44,0.74C698.84,1713.85,691.99,1714.77,694.77,1716.81z"/>
<path class="st0" d="M678.93,1813c5.55,4.71,7.16-5.32,7.16-5.32l-7.16-5.53V1813z"/>
<path class="st0" d="M701.65,1547.02c-2.73,4.71-3.52-5.32-3.52-5.32l3.52-5.53L701.65,1547.02z"/>
<path class="st0" d="M668.7,1501.64c0,0-4.81-4.44-4.44-0.74C664.63,1504.6,671.48,1503.67,668.7,1501.64z"/>
<path class="st0" d="M684.68,1268.65c0,0,5.23-2.36,3.14-5.76s-4.71-0.79-5.23,0c-0.52,0.79,3.66-1.57,2.88,2.09
	C684.68,1268.65,684.68,1268.65,684.68,1268.65z"/>
<path class="st0" d="M694.09,1425.77c-7.25,0.6-1.3,8.83-1.3,8.83l8.97-1.16L694.09,1425.77z"/>
<path class="st0" d="M492.03,1443.45c7.25-0.6,1.3-8.83,1.3-8.83l-8.97,1.16L492.03,1443.45z"/>
<path class="st0" d="M445.17,1447.9c1.4,5.26-6.25-1.28-6.25-1.28l-1.42-6.39L445.17,1447.9z"/>
<path class="st0" d="M408.27,1417.01c7.25-0.6,1.3-8.83,1.3-8.83l-8.97,1.16L408.27,1417.01z"/>
<path class="st0" d="M454.44,1421.57c0,0-5.23,2.36-3.14,5.76c2.09,3.4,4.71,0.79,5.23,0c0.52-0.79-3.66,1.57-2.88-2.09
	C454.44,1421.57,454.44,1421.57,454.44,1421.57z"/>
<path class="st0" d="M649.68,1705.65c0,0,5.23-2.36,3.14-5.76c-2.09-3.4-4.71-0.79-5.23,0c-0.52,0.79,3.66-1.57,2.88,2.09
	C649.68,1705.65,649.68,1705.65,649.68,1705.65z"/>
<path class="st0" d="M768.77,1773.03c9.99-1.48,2.59-12.22,2.59-12.22l-12.4,2.41L768.77,1773.03z"/>
<path class="st0" d="M709.55,1762.44c-5.55-4.71-7.16,5.32-7.16,5.32l7.16,5.53V1762.44z"/>
<path class="st0" d="M745.83,1792.43c2.73-4.71,3.52,5.32,3.52,5.32l-3.52,5.53V1792.43z"/>
<path class="st0" d="M786.34,1828.67c-7.25,0.6-1.3,8.83-1.3,8.83l8.97-1.16L786.34,1828.67z"/>
<path class="st0" d="M720.65,1804.5c0,0,5.37,2.04,6.29-1.85c0.93-3.89-2.78-3.89-3.7-3.7c-0.93,0.19,3.7,1.48,0.56,3.52
	C720.65,1804.5,720.65,1804.5,720.65,1804.5z"/>
<path class="st0" d="M778.77,1837.81c0,0,4.81,4.44,4.44,0.74C782.84,1834.85,775.99,1835.77,778.77,1837.81z"/>
<path class="st0" d="M785.65,1668.02c-2.73,4.71-3.52-5.32-3.52-5.32l3.52-5.53L785.65,1668.02z"/>
<path class="st0" d="M810.82,1655.95c0,0-5.37-2.04-6.29,1.85c-0.93,3.89,2.78,3.89,3.7,3.7s-3.7-1.48-0.56-3.52
	C810.82,1655.95,810.82,1655.95,810.82,1655.95z"/>
<path class="st0" d="M636.77,1561.9c4.71-5.55-5.32-7.16-5.32-7.16l-5.53,7.16H636.77z"/>
<path class="st0" d="M320.75,1437.24c8.11,6.02,10.47-6.81,10.47-6.81l-10.47-7.07V1437.24z"/>
<path class="st0" d="M290.81,1434.73c5.26-1.4-1.28,6.25-1.28,6.25l-6.39,1.42L290.81,1434.73z"/>
<path class="st0" d="M617.77,1552.72c-2.73,4.71-3.52-5.32-3.52-5.32l3.52-5.53V1552.72z"/>
<path class="st0" d="M642.94,1540.65c0,0-5.37-2.04-6.29,1.85c-0.93,3.89,2.78,3.89,3.7,3.7c0.93-0.19-3.7-1.48-0.56-3.52
	C642.94,1540.65,642.94,1540.65,642.94,1540.65z"/>
<path class="st0" d="M326.1,1676.22c7.25-0.6,1.3-8.83,1.3-8.83l-8.97,1.16L326.1,1676.22z"/>
<path class="st0" d="M288.51,1654.34c0,0-5.23,2.36-3.14,5.76c2.09,3.4,4.71,0.79,5.23,0c0.52-0.79-3.66,1.57-2.88-2.09
	S288.51,1654.34,288.51,1654.34z"/>
<path class="st0" d="M344.36,1693.87c-0.6-7.25-8.83-1.3-8.83-1.3l1.16,8.97L344.36,1693.87z"/>
<path class="st0" d="M287.69,1760.43c-4.71-2.73,5.32-3.52,5.32-3.52l5.53,3.52H287.69z"/>
<path class="st0" d="M335.62,1756.17c-4.71,5.55,5.32,7.16,5.32,7.16l5.53-7.16H335.62z"/>
<path class="st0" d="M299.76,1785.6c0,0,2.04-5.37-1.85-6.29s-3.89,2.78-3.7,3.7s1.48-3.7,3.52-0.56
	C299.76,1785.6,299.76,1785.6,299.76,1785.6z"/>
<path class="st0" d="M333.07,1727.48c0,0,4.44-4.81,0.74-4.44C330.11,1723.41,331.04,1730.26,333.07,1727.48z"/>
<path class="st0" d="M292.24,1332.17c1.4,5.26-6.25-1.28-6.25-1.28l-1.42-6.39L292.24,1332.17z"/>
<path class="st0" d="M301.51,1305.84c0,0-5.23,2.36-3.14,5.76c2.09,3.4,4.71,0.79,5.23,0c0.52-0.79-3.66,1.57-2.88-2.09
	C301.51,1305.84,301.51,1305.84,301.51,1305.84z"/>
<path class="st0" d="M679.8,1559.58c4.71-5.55-5.32-7.17-5.32-7.17l-5.53,7.17H679.8z"/>
<path class="st0" d="M583.43,1479.75c5.55,4.71,7.16-5.32,7.16-5.32l-7.16-5.53V1479.75z"/>
<path class="st0" d="M576.44,1392.62c5.26-1.4-1.28,6.25-1.28,6.25l-6.39,1.42L576.44,1392.62z"/>
<path class="st0" d="M545.55,1429.53c-0.6-7.25-8.83-1.3-8.83-1.3l1.16,8.97L545.55,1429.53z"/>
<path class="st0" d="M550.11,1383.36c0,0,2.36,5.23,5.76,3.14c3.4-2.09,0.79-4.71,0-5.23c-0.79-0.52,1.57,3.66-2.09,2.88
	C550.11,1383.36,550.11,1383.36,550.11,1383.36z"/>
<path class="st0" d="M567.64,1448.01c0,0,0.26,6.54,2.62,3.66C572.62,1448.79,567.12,1444.6,567.64,1448.01z"/>
<path class="st0" d="M459.77,1453.72c-2.73,4.71-3.52-5.32-3.52-5.32l3.52-5.53V1453.72z"/>
<path class="st0" d="M484.94,1441.65c0,0-5.37-2.04-6.29,1.85c-0.93,3.89,2.78,3.89,3.7,3.7c0.93-0.19-3.7-1.48-0.56-3.52
	C484.94,1441.65,484.94,1441.65,484.94,1441.65z"/>
<path class="st0" d="M609.59,1334.8c5.55,4.71,7.16-5.32,7.16-5.32l-7.16-5.53V1334.8z"/>
<path class="st0" d="M571.72,1284.57c-0.6-7.25-8.83-1.3-8.83-1.3l1.16,8.97L571.72,1284.57z"/>
<path class="st0" d="M593.81,1303.05c0,0,0.26,6.54,2.62,3.66S593.28,1299.65,593.81,1303.05z"/>
<path class="st0" d="M521.8,1460.58c4.71-5.55-5.32-7.17-5.32-7.17l-5.53,7.17H521.8z"/>
<path class="st0" d="M633.13,1277.28c1.48,9.99,12.22,2.59,12.22,2.59l-2.41-12.4L633.13,1277.28z"/>
<path class="st0" d="M549.56,1266.31c8.11,6.02,10.47-6.81,10.47-6.81l-10.47-7.07V1266.31z"/>
<path class="st0" d="M519.62,1263.8c5.26-1.4-1.28,6.25-1.28,6.25l-6.39,1.42L519.62,1263.8z"/>
<path class="st0" d="M389.79,1439.1c0,0-6.54,0.26-3.66,2.62C389,1444.08,393.19,1438.58,389.79,1439.1z"/>
<path class="st0" d="M1246.59,1594.82c-7.25,0.6-1.3,8.83-1.3,8.83l8.97-1.16L1246.59,1594.82z"/>
<path class="st0" d="M1284.17,1616.7c0,0,5.23-2.36,3.14-5.76c-2.09-3.4-4.71-0.79-5.23,0c-0.52,0.79,3.66-1.57,2.88,2.09
	C1284.17,1616.7,1284.17,1616.7,1284.17,1616.7z"/>
<path class="st0" d="M1324.46,1125.96c6.02-8.11-6.81-10.47-6.81-10.47l-7.07,10.47H1324.46z"/>
<path class="st0" d="M1353.09,1293.35c-7.25,0.6-1.3,8.83-1.3,8.83l8.97-1.16L1353.09,1293.35z"/>
<path class="st0" d="M1321.95,1155.9c-1.4-5.26,6.25,1.28,6.25,1.28l1.42,6.39L1321.95,1155.9z"/>
<path class="st0" d="M1358.85,1186.79c-7.25,0.6-1.3,8.83-1.3,8.83l8.97-1.16L1358.85,1186.79z"/>
<path class="st0" d="M1312.68,1182.23c0,0,5.23-2.36,3.14-5.76c-2.09-3.4-4.71-0.79-5.23,0c-0.52,0.79,3.66-1.57,2.88,2.09
	C1312.68,1182.23,1312.68,1182.23,1312.68,1182.23z"/>
<path class="st0" d="M1377.33,1164.7c0,0,6.54-0.26,3.66-2.62C1378.12,1159.72,1373.93,1165.22,1377.33,1164.7z"/>
<path class="st0" d="M1149.7,1364.41c-9.99,1.48-2.59,12.22-2.59,12.22l12.4-2.41L1149.7,1364.41z"/>
<path class="st0" d="M1419.65,1350.02c-2.73,4.71-3.52-5.32-3.52-5.32l3.52-5.53V1350.02z"/>
<path class="st0" d="M1415.39,1302.08c5.55,4.71,7.16-5.32,7.16-5.32l-7.16-5.53V1302.08z"/>
<path class="st0" d="M1444.82,1337.95c0,0-5.37-2.04-6.29,1.85c-0.93,3.89,2.78,3.89,3.7,3.7s-3.7-1.48-0.56-3.52
	C1444.82,1337.95,1444.82,1337.95,1444.82,1337.95z"/>
<path class="st0" d="M1386.7,1304.64c0,0-4.81-4.44-4.44-0.74C1382.63,1307.6,1389.48,1306.67,1386.7,1304.64z"/>
<path class="st0" d="M1412.09,1228.77c-7.25,0.6-1.3,8.83-1.3,8.83l8.97-1.16L1412.09,1228.77z"/>
<path class="st0" d="M1458.95,1224.32c-1.4-5.26,6.25,1.28,6.25,1.28l1.42,6.39L1458.95,1224.32z"/>
<path class="st0" d="M1449.68,1250.65c0,0,5.23-2.36,3.14-5.76c-2.09-3.4-4.71-0.79-5.23,0c-0.52,0.79,3.66-1.57,2.88,2.09
	C1449.68,1250.65,1449.68,1250.65,1449.68,1250.65z"/>
<path class="st0" d="M1163.17,1250.9c1.4,5.26-6.25-1.28-6.25-1.28l-1.42-6.39L1163.17,1250.9z"/>
<path class="st0" d="M1126.27,1220.01c7.25-0.6,1.3-8.83,1.3-8.83l-8.97,1.16L1126.27,1220.01z"/>
<path class="st0" d="M1106.95,1594.9c-1.4-5.26,6.25,1.28,6.25,1.28l1.42,6.39L1106.95,1594.9z"/>
<path class="st0" d="M1143.85,1625.79c-7.25,0.6-1.3,8.83-1.3,8.83l8.97-1.16L1143.85,1625.79z"/>
<path class="st0" d="M1097.68,1621.23c0,0,5.23-2.36,3.14-5.76c-2.09-3.4-4.71-0.79-5.23,0c-0.52,0.79,3.66-1.57,2.88,2.09
	C1097.68,1621.23,1097.68,1621.23,1097.68,1621.23z"/>
<path class="st0" d="M1162.33,1603.7c0,0,6.54-0.26,3.66-2.62C1163.12,1598.72,1158.93,1604.22,1162.33,1603.7z"/>
<path class="st0" d="M1233.7,1485.41c-9.99,1.48-2.59,12.22-2.59,12.22l12.4-2.41L1233.7,1485.41z"/>
<path class="st0" d="M1038.75,1240.24c8.11,6.02,10.47-6.81,10.47-6.81l-10.47-7.07V1240.24z"/>
<path class="st0" d="M1008.81,1237.73c5.26-1.4-1.28,6.25-1.28,6.25l-6.39,1.42L1008.81,1237.73z"/>
<path class="st0" d="M1149.33,1330.24c8.11,6.02,10.47-6.81,10.47-6.81l-10.47-7.07V1330.24z"/>
<path class="st0" d="M1114.94,1280.87c-0.6-7.25-8.83-1.3-8.83-1.3l1.16,8.97L1114.94,1280.87z"/>
<path class="st0" d="M1119.39,1327.73c5.26-1.4-1.28,6.25-1.28,6.25l-6.39,1.42L1119.39,1327.73z"/>
<path class="st0" d="M1088.51,1364.63c-0.6-7.25-8.83-1.3-8.83-1.3l1.16,8.97L1088.51,1364.63z"/>
<path class="st0" d="M1093.06,1318.46c0,0,2.36,5.23,5.76,3.14c3.4-2.09,0.79-4.71,0-5.23c-0.79-0.52,1.57,3.66-2.09,2.88
	C1093.06,1318.46,1093.06,1318.46,1093.06,1318.46z"/>
<path class="st0" d="M1110.6,1383.11c0,0,0.26,6.54,2.62,3.66S1110.07,1379.71,1110.6,1383.11z"/>
<path class="st0" d="M1452.44,1294.62c5.26-1.4-1.28,6.25-1.28,6.25l-6.39,1.42L1452.44,1294.62z"/>
<path class="st0" d="M1421.55,1331.53c-0.6-7.25-8.83-1.3-8.83-1.3l1.16,8.97L1421.55,1331.53z"/>
<path class="st0" d="M1426.11,1285.36c0,0,2.36,5.23,5.76,3.14c3.4-2.09,0.79-4.71,0-5.23c-0.79-0.52,1.57,3.66-2.09,2.88
	C1426.11,1285.36,1426.11,1285.36,1426.11,1285.36z"/>
<path class="st0" d="M1443.64,1350.01c0,0,0.26,6.54,2.62,3.66S1443.12,1346.6,1443.64,1350.01z"/>
<path class="st0" d="M1335.77,1355.72c-2.73,4.71-3.52-5.32-3.52-5.32l3.52-5.53V1355.72z"/>
<path class="st0" d="M1360.94,1343.65c0,0-5.37-2.04-6.29,1.85c-0.93,3.89,2.78,3.89,3.7,3.7s-3.7-1.48-0.56-3.52
	C1360.94,1343.65,1360.94,1343.65,1360.94,1343.65z"/>
<path class="st0" d="M1447.72,1186.57c-0.6-7.25-8.83-1.3-8.83-1.3l1.16,8.97L1447.72,1186.57z"/>
<path class="st0" d="M1044.1,1479.22c7.25-0.6,1.3-8.83,1.3-8.83l-8.97,1.16L1044.1,1479.22z"/>
<path class="st0" d="M1006.51,1457.34c0,0-5.23,2.36-3.14,5.76c2.09,3.4,4.71,0.79,5.23,0c0.52-0.79-3.66,1.57-2.88-2.09
	C1006.51,1457.34,1006.51,1457.34,1006.51,1457.34z"/>
<path class="st0" d="M1140.5,1480.58c9.99-1.48,2.59-12.22,2.59-12.22l-12.4,2.41L1140.5,1480.58z"/>
<path class="st0" d="M1062.36,1496.87c-0.6-7.25-8.83-1.3-8.83-1.3l1.16,8.97L1062.36,1496.87z"/>
<path class="st0" d="M1199.81,1465.73c5.26-1.4-1.28,6.25-1.28,6.25l-6.39,1.42L1199.81,1465.73z"/>
<path class="st0" d="M1168.92,1502.63c-0.6-7.25-8.83-1.3-8.83-1.3l1.16,8.97L1168.92,1502.63z"/>
<path class="st0" d="M1173.48,1456.46c0,0,2.36,5.23,5.76,3.14c3.4-2.09,0.79-4.71,0-5.23c-0.79-0.52,1.57,3.66-2.09,2.88
	C1173.48,1456.46,1173.48,1456.46,1173.48,1456.46z"/>
<path class="st0" d="M1024.33,1439.24c8.11,6.02,10.47-6.81,10.47-6.81l-10.47-7.07V1439.24z"/>
<path class="st0" d="M1191.01,1521.11c0,0,0.26,6.54,2.62,3.66C1195.99,1521.9,1190.49,1517.71,1191.01,1521.11z"/>
<path class="st0" d="M1005.69,1563.43c-4.71-2.73,5.32-3.52,5.32-3.52l5.53,3.52H1005.69z"/>
<path class="st0" d="M1053.62,1559.17c-4.71,5.55,5.32,7.16,5.32,7.16l5.53-7.16H1053.62z"/>
<path class="st0" d="M1017.76,1588.6c0,0,2.04-5.37-1.85-6.29s-3.89,2.78-3.7,3.7c0.19,0.93,1.48-3.7,3.52-0.56
	C1017.76,1588.6,1017.76,1588.6,1017.76,1588.6z"/>
<path class="st0" d="M1051.07,1530.48c0,0,4.44-4.81,0.74-4.44S1049.04,1533.26,1051.07,1530.48z"/>
<path class="st0" d="M1126.94,1555.87c-0.6-7.25-8.83-1.3-8.83-1.3l1.16,8.97L1126.94,1555.87z"/>
<path class="st0" d="M1131.39,1602.73c5.26-1.4-1.28,6.25-1.28,6.25l-6.39,1.42L1131.39,1602.73z"/>
<path class="st0" d="M1105.06,1593.46c0,0,2.36,5.23,5.76,3.14c3.4-2.09,0.79-4.71,0-5.23c-0.79-0.52,1.57,3.66-2.09,2.88
	C1105.06,1593.46,1105.06,1593.46,1105.06,1593.46z"/>
<path class="st0" d="M1010.24,1135.17c1.4,5.26-6.25-1.28-6.25-1.28l-1.42-6.39L1010.24,1135.17z"/>
<path class="st0" d="M1019.51,1108.84c0,0-5.23,2.36-3.14,5.76c2.09,3.4,4.71,0.79,5.23,0c0.52-0.79-3.66,1.57-2.88-2.09
	C1019.51,1108.84,1019.51,1108.84,1019.51,1108.84z"/>
<path class="st0" d="M1301.43,1282.75c5.55,4.71,7.16-5.32,7.16-5.32l-7.16-5.53V1282.75z"/>
<path class="st0" d="M1294.44,1195.62c5.26-1.4-1.28,6.25-1.28,6.25l-6.39,1.42L1294.44,1195.62z"/>
<path class="st0" d="M1285.64,1251.01c0,0,0.26,6.54,2.62,3.66S1285.12,1247.6,1285.64,1251.01z"/>
<path class="st0" d="M1327.59,1137.8c5.55,4.71,7.17-5.32,7.17-5.32l-7.17-5.53V1137.8z"/>
<path class="st0" d="M1311.81,1106.05c0,0,0.26,6.54,2.62,3.66S1311.28,1102.65,1311.81,1106.05z"/>
<path class="st0" d="M1107.79,1242.1c0,0-6.54,0.26-3.66,2.62C1107,1247.08,1111.19,1241.58,1107.79,1242.1z"/>
<path class="st0" d="M1097.76,1654.48c7.25-0.6,1.3-8.83,1.3-8.83l-8.97,1.16L1097.76,1654.48z"/>
<path class="st5" d="M-91.98,2031.01c-10.91-10.11-30.25-271.82,162.78-145.02s255.25,92.91,255.25,92.91s87.98-148.93,204.67-26.53
	c116.68,122.4,64.55,0.58,85.78-14.67c21.23-15.25,54.62-18.67,54.62-18.67s-110.11-8.97-150.45-43.93s-120.74-61.76-163.53-56.82
	s-117.31,55.57-124.88,59.23c-7.57,3.66-75.43-83.9-107.58-109.21c-32.15-25.3-202.34-105.07-263.17-53.45
	C-199.31,1766.48-91.98,2031.01-91.98,2031.01z"/>
<path class="st2" d="M474.65,2511.44c0,0-167.86-7.16-220.82,90.7c-52.96,97.86,26.79,44.43,26.79,44.43s19.62-21.26,16.81-34.79
	C294.62,2598.24,421.65,2570.42,474.65,2511.44z"/>
<path class="st6" d="M1492.32,1872.03c0,0-228.86,89.8-245.74,157.37c-16.89,67.57-36,97.69-103.35,131.97
	c-67.35,34.28-68.82,63.48-82.46,99.3s-138.44,122.45-138.44,122.45s142.06-89.7,191.75-60.72c49.69,28.98,44.32-63.56,83.15-70.49
	s70.04-19.17,81.76-65.79s29.13-36.36,66.88-11.93s130.86-152.46,205.91-143.59C1551.77,2030.61,1429.04,1979.04,1492.32,1872.03z"
	/>
<path class="st7" d="M866.06,1474.54c0,0,603.01,171.03,787.51,55.45c184.5-115.57-155-165.22-152.14-132.06
	c2.86,33.17-42.92,16.84-63.9,2.21c-20.98-14.63-133.19-40-220.35,10.49C1130.01,1461.13,962.8,1484.84,866.06,1474.54z"/>
</svg>
