<?xml version="1.0" encoding="utf-8"?>
<!-- Generator: Adobe Illustrator 24.0.0, SVG Export Plug-In . SVG Version: 6.00 Build 0)  -->
<svg version="1.1" id="Layer_1" xmlns="http://www.w3.org/2000/svg" xmlns:xlink="http://www.w3.org/1999/xlink" x="0px" y="0px"
	 viewBox="0 0 27 17" style="enable-background:new 0 0 27 17;" xml:space="preserve">
<style type="text/css">
	.st0{enable-background:new    ;}
	.st1{clip-path:url(#SVGID_2_);enable-background:new    ;}
	.st2{fill:#3689B3;}
	.st3{clip-path:url(#SVGID_4_);enable-background:new    ;}
	.st4{fill:#2B6E8F;}
	.st5{fill:#2D7294;}
	.st6{clip-path:url(#SVGID_6_);enable-background:new    ;}
	.st7{fill:#286685;}
	.st8{fill:#2A6A8A;}
	.st9{clip-path:url(#SVGID_8_);enable-background:new    ;}
	.st10{fill:#3485AD;}
	.st11{clip-path:url(#SVGID_10_);enable-background:new    ;}
	.st12{clip-path:url(#SVGID_12_);enable-background:new    ;}
	.st13{fill:#2E7699;}
	.st14{clip-path:url(#SVGID_14_);enable-background:new    ;}
	.st15{clip-path:url(#SVGID_16_);enable-background:new    ;}
	.st16{clip-path:url(#SVGID_18_);enable-background:new    ;}
	.st17{fill:#378DB8;}
	.st18{clip-path:url(#SVGID_20_);enable-background:new    ;}
	.st19{clip-path:url(#SVGID_22_);enable-background:new    ;}
	.st20{clip-path:url(#SVGID_24_);enable-background:new    ;}
	.st21{clip-path:url(#SVGID_26_);enable-background:new    ;}
	.st22{clip-path:url(#SVGID_28_);enable-background:new    ;}
	.st23{clip-path:url(#SVGID_30_);enable-background:new    ;}
	.st24{clip-path:url(#SVGID_32_);enable-background:new    ;}
	.st25{fill:#40A2D2;}
	.st26{clip-path:url(#SVGID_34_);enable-background:new    ;}
	.st27{clip-path:url(#SVGID_36_);enable-background:new    ;}
	.st28{clip-path:url(#SVGID_38_);enable-background:new    ;}
	.st29{fill:#317DA3;}
	.st30{fill:#3381A8;}
	.st31{clip-path:url(#SVGID_40_);enable-background:new    ;}
	.st32{clip-path:url(#SVGID_42_);enable-background:new    ;}
	.st33{fill:#307A9E;}
	.st34{clip-path:url(#SVGID_44_);enable-background:new    ;}
	.st35{clip-path:url(#SVGID_46_);enable-background:new    ;}
	.st36{clip-path:url(#SVGID_48_);enable-background:new    ;}
	.st37{clip-path:url(#SVGID_50_);enable-background:new    ;}
	.st38{clip-path:url(#SVGID_52_);enable-background:new    ;}
	.st39{clip-path:url(#SVGID_54_);enable-background:new    ;}
	.st40{clip-path:url(#SVGID_56_);enable-background:new    ;}
	.st41{clip-path:url(#SVGID_58_);enable-background:new    ;}
	.st42{clip-path:url(#SVGID_60_);enable-background:new    ;}
	.st43{clip-path:url(#SVGID_62_);enable-background:new    ;}
	.st44{clip-path:url(#SVGID_64_);enable-background:new    ;}
	.st45{clip-path:url(#SVGID_66_);enable-background:new    ;}
	.st46{clip-path:url(#SVGID_68_);enable-background:new    ;}
	.st47{clip-path:url(#SVGID_70_);enable-background:new    ;}
	.st48{clip-path:url(#SVGID_72_);enable-background:new    ;}
	.st49{clip-path:url(#SVGID_74_);enable-background:new    ;}
	.st50{clip-path:url(#SVGID_76_);enable-background:new    ;}
	.st51{clip-path:url(#SVGID_78_);enable-background:new    ;}
	.st52{clip-path:url(#SVGID_80_);enable-background:new    ;}
	.st53{clip-path:url(#SVGID_82_);enable-background:new    ;}
	.st54{clip-path:url(#SVGID_84_);enable-background:new    ;}
</style>
<g>
	<g>
		<g class="st0">
			<g class="st0">
				<defs>
					<path id="SVGID_1_" class="st0" d="M5.93,0.62L6.54,1.4C6.19,2.11,5.84,2.81,5.48,3.52L4.87,2.74
						C5.23,2.03,5.58,1.33,5.93,0.62z"/>
				</defs>
				<clipPath id="SVGID_2_">
					<use xlink:href="#SVGID_1_"  style="overflow:visible;"/>
				</clipPath>
				<g class="st1">
					<path class="st2" d="M5.93,0.62L6.54,1.4C6.19,2.11,5.84,2.81,5.48,3.52L4.87,2.74C5.23,2.03,5.58,1.33,5.93,0.62"/>
				</g>
			</g>
			<g class="st0">
				<defs>
					<path id="SVGID_3_" class="st0" d="M3.48,4.02L4.09,4.8c-0.49,0.27-1,0.61-1.54,1.01L1.94,5.03C2.47,4.63,2.99,4.29,3.48,4.02z
						"/>
				</defs>
				<clipPath id="SVGID_4_">
					<use xlink:href="#SVGID_3_"  style="overflow:visible;"/>
				</clipPath>
				<g class="st3">
					<path class="st4" d="M3.48,4.02L4.09,4.8c-0.2,0.11-0.39,0.22-0.6,0.35L2.88,4.37C3.08,4.25,3.28,4.13,3.48,4.02"/>
					<path class="st5" d="M2.88,4.37l0.61,0.78C3.19,5.35,2.87,5.57,2.55,5.81L1.94,5.03C2.26,4.79,2.58,4.57,2.88,4.37"/>
				</g>
			</g>
			<g class="st0">
				<defs>
					<path id="SVGID_5_" class="st0" d="M5.7,3.19l0.61,0.78c-0.4,0.08-0.8,0.2-1.24,0.36L4.46,3.55C4.9,3.39,5.3,3.27,5.7,3.19z"/>
				</defs>
				<clipPath id="SVGID_6_">
					<use xlink:href="#SVGID_5_"  style="overflow:visible;"/>
				</clipPath>
				<g class="st6">
					<path class="st7" d="M5.7,3.19l0.61,0.78c-0.35,0.07-0.72,0.17-1.1,0.31L4.6,3.5C4.98,3.36,5.35,3.26,5.7,3.19"/>
					<path class="st8" d="M4.6,3.5l0.61,0.78C5.17,4.3,5.12,4.32,5.07,4.33L4.46,3.55C4.51,3.54,4.56,3.52,4.6,3.5"/>
				</g>
			</g>
			<g class="st0">
				<defs>
					<path id="SVGID_7_" class="st0" d="M7.97,0.4l0.61,0.78c-0.34,0.65-0.67,1.3-1.01,1.95L6.96,2.35C7.3,1.7,7.63,1.05,7.97,0.4z"
						/>
				</defs>
				<clipPath id="SVGID_8_">
					<use xlink:href="#SVGID_7_"  style="overflow:visible;"/>
				</clipPath>
				<g class="st9">
					<path class="st10" d="M7.97,0.4l0.61,0.78c-0.34,0.65-0.67,1.3-1.01,1.95L6.96,2.35C7.3,1.7,7.63,1.05,7.97,0.4"/>
				</g>
			</g>
			<g class="st0">
				<defs>
					<path id="SVGID_9_" class="st0" d="M4.46,3.55l0.61,0.78c-0.27,0.54-0.53,1.08-0.8,1.63L3.66,5.18
						C3.93,4.63,4.2,4.09,4.46,3.55z"/>
				</defs>
				<clipPath id="SVGID_10_">
					<use xlink:href="#SVGID_9_"  style="overflow:visible;"/>
				</clipPath>
				<g class="st11">
					<path class="st2" d="M4.46,3.55l0.61,0.78c-0.27,0.54-0.53,1.08-0.8,1.63L3.66,5.18C3.93,4.63,4.2,4.09,4.46,3.55"/>
				</g>
			</g>
			<g class="st0">
				<defs>
					<path id="SVGID_11_" class="st0" d="M2.22,6.58l0.61,0.78c-0.48,0.3-0.99,0.66-1.51,1.09L0.71,7.67
						C1.23,7.24,1.74,6.88,2.22,6.58z"/>
				</defs>
				<clipPath id="SVGID_12_">
					<use xlink:href="#SVGID_11_"  style="overflow:visible;"/>
				</clipPath>
				<g class="st12">
					<path class="st4" d="M2.22,6.58l0.61,0.78C2.8,7.37,2.78,7.39,2.75,7.41L2.14,6.63C2.17,6.61,2.19,6.59,2.22,6.58"/>
					<path class="st5" d="M2.14,6.63l0.61,0.78C2.41,7.62,2.07,7.86,1.72,8.13L1.11,7.35C1.46,7.08,1.8,6.84,2.14,6.63"/>
					<path class="st13" d="M1.11,7.35l0.61,0.78c-0.13,0.1-0.26,0.2-0.4,0.31L0.71,7.67C0.84,7.56,0.98,7.45,1.11,7.35"/>
				</g>
			</g>
			<g class="st0">
				<defs>
					<path id="SVGID_13_" class="st0" d="M4.51,5.54l0.61,0.78C4.72,6.43,4.29,6.59,3.85,6.79L3.24,6.01
						C3.68,5.81,4.11,5.65,4.51,5.54z"/>
				</defs>
				<clipPath id="SVGID_14_">
					<use xlink:href="#SVGID_13_"  style="overflow:visible;"/>
				</clipPath>
				<g class="st14">
					<path class="st7" d="M4.51,5.54l0.61,0.78C4.94,6.37,4.76,6.42,4.57,6.49L3.96,5.71C4.15,5.65,4.33,5.59,4.51,5.54"/>
					<path class="st8" d="M3.96,5.71l0.61,0.78c-0.23,0.08-0.47,0.18-0.72,0.3L3.24,6.01C3.49,5.9,3.72,5.8,3.96,5.71"/>
				</g>
			</g>
			<g class="st0">
				<defs>
					<path id="SVGID_15_" class="st0" d="M6.56,3.1l0.61,0.78c-0.25,0.5-0.51,1.01-0.76,1.5L5.8,4.61C6.05,4.11,6.31,3.6,6.56,3.1z"
						/>
				</defs>
				<clipPath id="SVGID_16_">
					<use xlink:href="#SVGID_15_"  style="overflow:visible;"/>
				</clipPath>
				<g class="st15">
					<path class="st2" d="M6.56,3.1l0.61,0.78c-0.25,0.5-0.51,1.01-0.76,1.5L5.8,4.61C6.05,4.11,6.31,3.6,6.56,3.1"/>
				</g>
			</g>
			<g class="st0">
				<defs>
					<path id="SVGID_17_" class="st0" d="M7.97,2.46l0.61,0.78C8.5,3.49,8.42,3.74,8.34,3.99L7.73,3.21
						C7.81,2.96,7.89,2.71,7.97,2.46z"/>
				</defs>
				<clipPath id="SVGID_18_">
					<use xlink:href="#SVGID_17_"  style="overflow:visible;"/>
				</clipPath>
				<g class="st16">
					<path class="st17" d="M7.97,2.46l0.61,0.78C8.5,3.49,8.42,3.74,8.34,3.99L7.73,3.21C7.81,2.96,7.89,2.71,7.97,2.46"/>
				</g>
			</g>
			<g class="st0">
				<defs>
					<path id="SVGID_19_" class="st0" d="M7.73,3.21l0.61,0.78C8.29,3.98,8.25,3.97,8.2,3.97C7.87,3.91,7.53,3.88,7.17,3.88
						L6.56,3.1c0.35-0.01,0.7,0.03,1.03,0.08C7.64,3.2,7.68,3.2,7.73,3.21z"/>
				</defs>
				<clipPath id="SVGID_20_">
					<use xlink:href="#SVGID_19_"  style="overflow:visible;"/>
				</clipPath>
				<g class="st18">
					<path class="st7" d="M7.73,3.21l0.61,0.78C8.29,3.98,8.25,3.97,8.2,3.97C7.87,3.91,7.53,3.88,7.17,3.88L6.56,3.1
						c0.35-0.01,0.7,0.03,1.03,0.08C7.64,3.2,7.68,3.2,7.73,3.21"/>
				</g>
			</g>
			<g class="st0">
				<defs>
					<path id="SVGID_21_" class="st0" d="M3.24,6.01l0.61,0.78C3.49,7.51,3.14,8.24,2.77,8.97L2.17,8.19
						C2.53,7.46,2.88,6.74,3.24,6.01z"/>
				</defs>
				<clipPath id="SVGID_22_">
					<use xlink:href="#SVGID_21_"  style="overflow:visible;"/>
				</clipPath>
				<g class="st19">
					<path class="st2" d="M3.24,6.01l0.61,0.78C3.49,7.51,3.14,8.24,2.77,8.97L2.17,8.19C2.53,7.46,2.88,6.74,3.24,6.01"/>
				</g>
			</g>
			<g class="st0">
				<defs>
					<path id="SVGID_23_" class="st0" d="M2.17,8.19l0.61,0.78C2.44,9.16,2.09,9.37,1.72,9.62L1.11,8.84
						C1.48,8.59,1.83,8.38,2.17,8.19z"/>
				</defs>
				<clipPath id="SVGID_24_">
					<use xlink:href="#SVGID_23_"  style="overflow:visible;"/>
				</clipPath>
				<g class="st20">
					<path class="st4" d="M2.17,8.19l0.61,0.78c-0.23,0.13-0.46,0.27-0.7,0.42L1.47,8.61C1.7,8.46,1.94,8.32,2.17,8.19"/>
					<path class="st5" d="M1.47,8.61l0.61,0.78C1.96,9.46,1.84,9.54,1.72,9.62L1.11,8.84C1.23,8.76,1.35,8.68,1.47,8.61"/>
				</g>
			</g>
			<g class="st0">
				<defs>
					<path id="SVGID_25_" class="st0" d="M6.65,5.39l0.61,0.78C6.86,6.11,6.45,6.11,6.01,6.15L5.4,5.37
						C5.84,5.33,6.25,5.33,6.65,5.39z"/>
				</defs>
				<clipPath id="SVGID_26_">
					<use xlink:href="#SVGID_25_"  style="overflow:visible;"/>
				</clipPath>
				<g class="st21">
					<path class="st7" d="M6.65,5.39l0.61,0.78C6.86,6.11,6.45,6.11,6.01,6.15L5.4,5.37C5.84,5.33,6.25,5.33,6.65,5.39"/>
				</g>
			</g>
			<g class="st0">
				<defs>
					<path id="SVGID_27_" class="st0" d="M6.89,4.64L7.5,5.41C7.42,5.67,7.34,5.92,7.26,6.17L6.65,5.39
						C6.73,5.14,6.81,4.89,6.89,4.64z"/>
				</defs>
				<clipPath id="SVGID_28_">
					<use xlink:href="#SVGID_27_"  style="overflow:visible;"/>
				</clipPath>
				<g class="st22">
					<path class="st17" d="M6.89,4.64L7.5,5.41C7.42,5.67,7.34,5.92,7.26,6.17L6.65,5.39C6.73,5.14,6.81,4.89,6.89,4.64"/>
				</g>
			</g>
			<g class="st0">
				<defs>
					<path id="SVGID_29_" class="st0" d="M4.38,7.38l0.61,0.78C4.7,8.21,4.39,8.28,4.08,8.39L3.47,7.61
						C3.78,7.51,4.09,7.43,4.38,7.38z"/>
				</defs>
				<clipPath id="SVGID_30_">
					<use xlink:href="#SVGID_29_"  style="overflow:visible;"/>
				</clipPath>
				<g class="st23">
					<path class="st7" d="M4.38,7.38l0.61,0.78C4.7,8.21,4.39,8.28,4.08,8.39L3.47,7.61C3.78,7.51,4.09,7.43,4.38,7.38"/>
				</g>
			</g>
			<g class="st0">
				<defs>
					<path id="SVGID_31_" class="st0" d="M5.4,5.37l0.61,0.78c-0.33,0.66-0.67,1.33-1.02,2L4.38,7.38C4.73,6.71,5.07,6.03,5.4,5.37z
						"/>
				</defs>
				<clipPath id="SVGID_32_">
					<use xlink:href="#SVGID_31_"  style="overflow:visible;"/>
				</clipPath>
				<g class="st24">
					<path class="st2" d="M5.4,5.37l0.61,0.78c-0.33,0.66-0.67,1.33-1.02,2L4.38,7.38C4.73,6.71,5.07,6.03,5.4,5.37"/>
				</g>
			</g>
			<g>
				<path class="st25" d="M7.81,2.43c0.05,0.01,0.11,0.02,0.16,0.03c-0.08,0.25-0.16,0.5-0.24,0.75C7.68,3.2,7.64,3.2,7.59,3.19
					C7.26,3.13,6.92,3.1,6.56,3.1C6.31,3.6,6.05,4.11,5.8,4.61c0.38-0.03,0.74-0.02,1.09,0.03C6.81,4.89,6.73,5.14,6.65,5.39
					C6.25,5.33,5.84,5.33,5.4,5.37c-0.33,0.66-0.67,1.33-1.02,2c-0.29,0.05-0.6,0.13-0.91,0.24c0.35-0.7,0.7-1.39,1.04-2.08
					C4.11,5.65,3.68,5.81,3.24,6.01C2.88,6.74,2.53,7.46,2.17,8.19C1.83,8.38,1.48,8.59,1.11,8.84c0.37-0.76,0.74-1.52,1.11-2.26
					c-0.48,0.3-0.99,0.66-1.51,1.09c0.08-0.24,0.16-0.5,0.24-0.74c0.59-0.48,1.16-0.88,1.7-1.21C2.92,5.15,3.2,4.58,3.48,4.02
					c-0.49,0.27-1,0.61-1.54,1.01c0.08-0.24,0.16-0.5,0.24-0.74c0.59-0.46,1.17-0.82,1.72-1.1c0.37-0.75,0.73-1.48,1.09-2.2
					c0.33-0.15,0.65-0.27,0.95-0.36C5.58,1.33,5.23,2.03,4.87,2.74C5.3,2.59,5.7,2.48,6.1,2.42C6.45,1.74,6.79,1.07,7.13,0.4
					c0.28-0.03,0.57-0.02,0.84,0C7.63,1.05,7.3,1.7,6.96,2.35C7.25,2.35,7.53,2.38,7.81,2.43z M4.92,4.75
					C5.18,4.23,5.44,3.71,5.7,3.19c-0.4,0.08-0.8,0.2-1.24,0.36C4.2,4.09,3.93,4.63,3.66,5.18C4.09,4.99,4.51,4.85,4.92,4.75"/>
			</g>
		</g>
		<g class="st0">
			<g class="st0">
				<defs>
					<path id="SVGID_33_" class="st0" d="M11.43,3.22l0.61,0.78c-0.13-0.17-0.29-0.33-0.48-0.46c-0.24-0.18-0.47-0.35-0.72-0.5
						l-0.61-0.78c0.25,0.15,0.48,0.32,0.72,0.5C11.14,2.89,11.3,3.04,11.43,3.22z"/>
				</defs>
				<clipPath id="SVGID_34_">
					<use xlink:href="#SVGID_33_"  style="overflow:visible;"/>
				</clipPath>
				<g class="st26">
					<path class="st7" d="M11.43,3.22l0.61,0.78c-0.13-0.17-0.29-0.33-0.48-0.46c-0.24-0.18-0.47-0.35-0.72-0.5l-0.61-0.78
						c0.25,0.15,0.48,0.32,0.72,0.5C11.14,2.89,11.3,3.04,11.43,3.22"/>
				</g>
			</g>
			<g class="st0">
				<defs>
					<path id="SVGID_35_" class="st0" d="M10.23,2.25l0.61,0.78c-0.53,1.66-1.06,3.32-1.59,4.98L8.64,7.24
						C9.17,5.58,9.7,3.91,10.23,2.25z"/>
				</defs>
				<clipPath id="SVGID_36_">
					<use xlink:href="#SVGID_35_"  style="overflow:visible;"/>
				</clipPath>
				<g class="st27">
					<path class="st17" d="M10.23,2.25l0.61,0.78c-0.53,1.66-1.06,3.32-1.59,4.98L8.64,7.24C9.17,5.58,9.7,3.91,10.23,2.25"/>
				</g>
			</g>
			<g class="st0">
				<defs>
					<path id="SVGID_37_" class="st0" d="M11.93,2.44l0.61,0.78c0.21,0.27,0.39,0.57,0.55,0.91c0.29,0.65,0.46,1.33,0.51,2.05
						l-0.61-0.78c-0.05-0.72-0.22-1.4-0.51-2.05C12.33,3.02,12.14,2.71,11.93,2.44z"/>
				</defs>
				<clipPath id="SVGID_38_">
					<use xlink:href="#SVGID_37_"  style="overflow:visible;"/>
				</clipPath>
				<g class="st28">
					<path class="st29" d="M11.93,2.44l0.61,0.78c0.03,0.04,0.07,0.09,0.1,0.14l-0.61-0.78C12,2.53,11.97,2.49,11.93,2.44"/>
					<path class="st30" d="M12.03,2.58l0.61,0.78c0.1,0.14,0.19,0.29,0.28,0.44l-0.61-0.78C12.23,2.86,12.13,2.72,12.03,2.58"/>
					<path class="st10" d="M12.31,3.02l0.61,0.78c0.06,0.11,0.11,0.22,0.17,0.33c0.04,0.09,0.08,0.18,0.11,0.27l-0.61-0.78
						c-0.04-0.09-0.07-0.18-0.11-0.27C12.43,3.23,12.37,3.12,12.31,3.02"/>
					<path class="st2" d="M12.59,3.62l0.61,0.78c0.12,0.3,0.21,0.6,0.28,0.91l-0.61-0.78C12.8,4.22,12.71,3.91,12.59,3.62"/>
					<path class="st17" d="M12.87,4.53l0.61,0.78c0.06,0.28,0.1,0.57,0.12,0.87l-0.61-0.78C12.97,5.1,12.93,4.81,12.87,4.53"/>
				</g>
			</g>
			<g class="st0">
				<defs>
					<path id="SVGID_39_" class="st0" d="M10.63,9.45l0.61,0.78c-0.03-0.01-0.07-0.01-0.11-0.02c-0.48-0.1-0.97-0.38-1.5-0.77
						C9.06,9.02,8.48,8.66,7.85,8.42L7.24,7.65c0.62,0.24,1.21,0.59,1.77,1.01c0.53,0.39,1.03,0.67,1.5,0.77
						C10.56,9.44,10.59,9.44,10.63,9.45z"/>
				</defs>
				<clipPath id="SVGID_40_">
					<use xlink:href="#SVGID_39_"  style="overflow:visible;"/>
				</clipPath>
				<g class="st31">
					<path class="st7" d="M10.63,9.45l0.61,0.78c-0.03-0.01-0.07-0.01-0.11-0.02c-0.48-0.1-0.97-0.38-1.5-0.77
						C9.06,9.02,8.48,8.66,7.85,8.42L7.24,7.65c0.62,0.24,1.21,0.59,1.77,1.01c0.53,0.39,1.03,0.67,1.5,0.77
						C10.56,9.44,10.59,9.44,10.63,9.45"/>
				</g>
			</g>
			<g>
				<path class="st25" d="M12.99,5.39c0.05,0.72-0.04,1.4-0.25,2.04c-0.04,0.11-0.07,0.23-0.11,0.34c-0.21,0.65-0.5,1.12-0.85,1.4
					c-0.34,0.26-0.72,0.34-1.15,0.27c-0.03-0.01-0.07-0.01-0.11-0.02c-0.48-0.1-0.97-0.38-1.5-0.77C8.45,8.24,7.87,7.89,7.24,7.65
					c0.74-2.3,1.47-4.61,2.2-6.9c0.64,0.24,1.24,0.6,1.82,1.03c0.52,0.39,0.92,0.93,1.22,1.57C12.77,3.99,12.94,4.68,12.99,5.39z
					 M11.67,6.83c0.04-0.13,0.08-0.26,0.12-0.38c0.24-0.75,0.29-1.46,0.15-2.1c-0.14-0.64-0.46-1.19-0.99-1.59
					c-0.24-0.18-0.47-0.35-0.72-0.5C9.7,3.91,9.17,5.58,8.64,7.24c0.23,0.14,0.45,0.29,0.67,0.45c0.33,0.25,0.64,0.41,0.92,0.46
					c0.17,0.03,0.33,0.02,0.48-0.04C11.11,7.99,11.43,7.56,11.67,6.83"/>
			</g>
			<g class="st0">
				<defs>
					<path id="SVGID_41_" class="st0" d="M12.99,5.39l0.61,0.78c0.05,0.72-0.04,1.4-0.25,2.04c-0.04,0.11-0.07,0.23-0.11,0.34
						c-0.21,0.65-0.5,1.12-0.85,1.4c-0.34,0.26-0.72,0.34-1.15,0.27l-0.61-0.78c0.43,0.08,0.82-0.01,1.15-0.27
						c0.36-0.28,0.64-0.75,0.85-1.4c0.04-0.11,0.07-0.23,0.11-0.34C12.95,6.79,13.04,6.11,12.99,5.39z"/>
				</defs>
				<clipPath id="SVGID_42_">
					<use xlink:href="#SVGID_41_"  style="overflow:visible;"/>
				</clipPath>
				<g class="st32">
					<path class="st17" d="M12.99,5.39l0.61,0.78c0.05,0.72-0.04,1.4-0.25,2.04c-0.04,0.11-0.07,0.23-0.11,0.34
						c-0.02,0.05-0.03,0.1-0.05,0.14l-0.61-0.78c0.02-0.05,0.03-0.09,0.05-0.14c0.04-0.11,0.07-0.23,0.11-0.34
						C12.95,6.79,13.04,6.11,12.99,5.39"/>
					<path class="st2" d="M12.59,7.92L13.2,8.7c-0.07,0.19-0.14,0.35-0.22,0.51l-0.61-0.78C12.45,8.28,12.52,8.11,12.59,7.92"/>
					<path class="st10" d="M12.37,8.43l0.61,0.78c-0.05,0.09-0.1,0.18-0.15,0.27L12.22,8.7C12.27,8.61,12.32,8.52,12.37,8.43"/>
					<path class="st30" d="M12.22,8.7l0.61,0.78c-0.04,0.06-0.08,0.12-0.13,0.18l-0.61-0.78C12.13,8.82,12.17,8.76,12.22,8.7"/>
					<path class="st29" d="M12.09,8.87l0.61,0.78c-0.04,0.05-0.07,0.09-0.11,0.13L11.98,9C12.01,8.96,12.05,8.92,12.09,8.87"/>
					<path class="st33" d="M11.98,9l0.61,0.78c-0.04,0.04-0.07,0.07-0.11,0.11l-0.61-0.78C11.9,9.08,11.94,9.04,11.98,9"/>
					<path class="st13" d="M11.87,9.11l0.61,0.78c-0.03,0.03-0.06,0.05-0.09,0.07c0,0-0.01,0.01-0.01,0.01l-0.61-0.78
						c0,0,0.01-0.01,0.01-0.01C11.81,9.16,11.84,9.14,11.87,9.11"/>
					<path class="st5" d="M11.77,9.19l0.61,0.78c-0.03,0.02-0.06,0.05-0.1,0.07l-0.61-0.78C11.7,9.24,11.73,9.22,11.77,9.19"/>
					<path class="st4" d="M11.67,9.26l0.61,0.78c-0.04,0.03-0.08,0.05-0.12,0.07l-0.61-0.78C11.59,9.31,11.63,9.29,11.67,9.26"/>
					<path class="st8" d="M11.55,9.33l0.61,0.78c-0.05,0.02-0.1,0.05-0.15,0.06L11.4,9.39C11.45,9.38,11.5,9.35,11.55,9.33"/>
					<path class="st7" d="M11.4,9.39l0.61,0.78c-0.24,0.09-0.5,0.1-0.77,0.05l-0.61-0.78C10.9,9.5,11.16,9.48,11.4,9.39"/>
				</g>
			</g>
		</g>
		<g class="st0">
			<g class="st0">
				<defs>
					<path id="SVGID_43_" class="st0" d="M15.7,9.63l0.61,0.78c-0.06-0.08-0.13-0.15-0.2-0.22c-0.17-0.16-0.33-0.26-0.49-0.28
						c-0.08-0.01-0.16-0.01-0.23,0.01c-0.23,0.06-0.42,0.27-0.59,0.62l-0.61-0.78c0.16-0.35,0.36-0.56,0.59-0.62
						c0.08-0.02,0.15-0.03,0.23-0.01c0.16,0.03,0.32,0.12,0.49,0.28C15.57,9.48,15.64,9.55,15.7,9.63z"/>
				</defs>
				<clipPath id="SVGID_44_">
					<use xlink:href="#SVGID_43_"  style="overflow:visible;"/>
				</clipPath>
				<g class="st34">
					<path class="st7" d="M15.7,9.63l0.61,0.78c-0.06-0.08-0.13-0.15-0.2-0.22c-0.17-0.16-0.33-0.26-0.49-0.28
						c-0.08-0.01-0.16-0.01-0.23,0.01c-0.01,0-0.03,0.01-0.04,0.01l-0.61-0.78c0.01,0,0.03-0.01,0.04-0.01
						c0.08-0.02,0.15-0.03,0.23-0.01c0.16,0.03,0.32,0.12,0.49,0.28C15.57,9.48,15.64,9.55,15.7,9.63"/>
					<path class="st8" d="M14.74,9.15l0.61,0.78c-0.02,0.01-0.04,0.02-0.07,0.03l-0.61-0.78C14.69,9.17,14.71,9.16,14.74,9.15"/>
					<path class="st4" d="M14.67,9.18l0.61,0.78c-0.02,0.01-0.04,0.02-0.05,0.03l-0.61-0.78C14.63,9.2,14.65,9.19,14.67,9.18"/>
					<path class="st5" d="M14.62,9.21l0.61,0.78c-0.02,0.01-0.03,0.02-0.05,0.04l-0.61-0.78C14.58,9.24,14.6,9.22,14.62,9.21"/>
					<path class="st13" d="M14.56,9.25l0.61,0.78c-0.02,0.01-0.03,0.03-0.05,0.04l-0.61-0.78C14.53,9.28,14.55,9.26,14.56,9.25"/>
					<path class="st33" d="M14.51,9.29l0.61,0.78c-0.02,0.02-0.04,0.03-0.05,0.05l-0.61-0.78C14.48,9.33,14.5,9.31,14.51,9.29"/>
					<path class="st29" d="M14.46,9.34l0.61,0.78c-0.02,0.02-0.04,0.05-0.06,0.07L14.4,9.41C14.42,9.39,14.44,9.37,14.46,9.34"/>
					<path class="st30" d="M14.4,9.41l0.61,0.78c-0.02,0.03-0.05,0.06-0.07,0.1l-0.61-0.78C14.35,9.48,14.37,9.45,14.4,9.41"/>
					<path class="st10" d="M14.33,9.51l0.61,0.78c-0.03,0.05-0.06,0.11-0.1,0.16l-0.61-0.78C14.26,9.62,14.29,9.56,14.33,9.51"/>
					<path class="st2" d="M14.23,9.68l0.61,0.78c-0.01,0.03-0.03,0.05-0.04,0.08l-0.61-0.78C14.2,9.73,14.22,9.71,14.23,9.68"/>
				</g>
			</g>
			<g class="st0">
				<defs>
					<path id="SVGID_45_" class="st0" d="M14.95,13.6l-0.61-0.78c-0.19-0.25-0.33-0.54-0.43-0.88c-0.12-0.44-0.12-0.9-0.02-1.35
						l0.61,0.78c-0.1,0.45-0.1,0.91,0.02,1.35C14.62,13.06,14.76,13.35,14.95,13.6z"/>
				</defs>
				<clipPath id="SVGID_46_">
					<use xlink:href="#SVGID_45_"  style="overflow:visible;"/>
				</clipPath>
				<g class="st35">
					<path class="st17" d="M13.9,10.59l0.61,0.78c-0.09,0.41-0.1,0.82-0.01,1.23l-0.61-0.78C13.8,11.41,13.81,11,13.9,10.59"/>
					<path class="st2" d="M13.89,11.82l0.61,0.78c0.01,0.04,0.02,0.08,0.03,0.12c0.03,0.11,0.06,0.21,0.1,0.31l-0.61-0.78
						c-0.04-0.1-0.07-0.2-0.1-0.31C13.91,11.9,13.9,11.86,13.89,11.82"/>
					<path class="st10" d="M14.02,12.24l0.61,0.78c0.04,0.1,0.09,0.2,0.14,0.29l-0.61-0.78C14.11,12.44,14.06,12.35,14.02,12.24"/>
					<path class="st30" d="M14.16,12.53l0.61,0.78c0.04,0.08,0.09,0.15,0.14,0.22l-0.61-0.78C14.24,12.68,14.2,12.61,14.16,12.53"/>
					<path class="st29" d="M14.29,12.75l0.61,0.78c0.02,0.02,0.03,0.05,0.05,0.07l-0.61-0.78C14.33,12.8,14.31,12.77,14.29,12.75"/>
				</g>
			</g>
			<g class="st0">
				<defs>
					<path id="SVGID_47_" class="st0" d="M16.27,9l0.61,0.78c0.31,0.4,0.54,0.83,0.67,1.3c0.19,0.69,0.15,1.41-0.11,2.23l-0.61-0.78
						c0.26-0.82,0.29-1.54,0.11-2.23C16.8,9.83,16.58,9.4,16.27,9z"/>
				</defs>
				<clipPath id="SVGID_48_">
					<use xlink:href="#SVGID_47_"  style="overflow:visible;"/>
				</clipPath>
				<g class="st36">
					<path class="st29" d="M16.27,9l0.61,0.78c0.04,0.05,0.07,0.09,0.1,0.14l-0.61-0.78C16.34,9.09,16.3,9.04,16.27,9"/>
					<path class="st30" d="M16.37,9.14l0.61,0.78c0.09,0.12,0.17,0.25,0.24,0.38l-0.61-0.78C16.54,9.39,16.46,9.26,16.37,9.14"/>
					<path class="st10" d="M16.61,9.52l0.61,0.78c0.08,0.14,0.14,0.28,0.2,0.43l-0.61-0.78C16.76,9.8,16.69,9.66,16.61,9.52"/>
					<path class="st2" d="M16.81,9.94l0.61,0.78c0.05,0.12,0.09,0.24,0.12,0.36c0.02,0.06,0.03,0.11,0.04,0.17l-0.61-0.78
						c-0.01-0.06-0.03-0.11-0.04-0.17C16.9,10.18,16.86,10.06,16.81,9.94"/>
					<path class="st17" d="M16.97,10.47l0.61,0.78c0.14,0.64,0.09,1.31-0.15,2.06l-0.61-0.78C17.06,11.78,17.11,11.11,16.97,10.47"
						/>
				</g>
			</g>
			<g class="st0">
				<defs>
					<path id="SVGID_49_" class="st0" d="M16.82,12.53l0.61,0.78c-0.05,0.16-0.1,0.31-0.15,0.47L16.68,13
						C16.73,12.84,16.77,12.69,16.82,12.53z"/>
				</defs>
				<clipPath id="SVGID_50_">
					<use xlink:href="#SVGID_49_"  style="overflow:visible;"/>
				</clipPath>
				<g class="st37">
					<path class="st17" d="M16.82,12.53l0.61,0.78c-0.05,0.16-0.1,0.31-0.15,0.47L16.68,13C16.73,12.84,16.77,12.69,16.82,12.53"/>
				</g>
			</g>
			<g class="st0">
				<defs>
					<path id="SVGID_51_" class="st0" d="M16.68,13l0.61,0.78c-0.98-0.62-1.89-1.49-2.77-2.41l-0.61-0.78
						C14.79,11.51,15.69,12.38,16.68,13z"/>
				</defs>
				<clipPath id="SVGID_52_">
					<use xlink:href="#SVGID_51_"  style="overflow:visible;"/>
				</clipPath>
				<g class="st38">
					<path class="st7" d="M16.68,13l0.61,0.78c-0.98-0.62-1.89-1.49-2.77-2.41l-0.61-0.78C14.79,11.51,15.69,12.38,16.68,13"/>
				</g>
			</g>
			<g class="st0">
				<defs>
					<path id="SVGID_53_" class="st0" d="M14.43,14.27l-0.61-0.78c0.12,0.15,0.25,0.29,0.39,0.42c0.35,0.32,0.69,0.51,1.03,0.57
						l0.61,0.78c-0.34-0.06-0.69-0.25-1.03-0.57C14.68,14.57,14.55,14.42,14.43,14.27z"/>
				</defs>
				<clipPath id="SVGID_54_">
					<use xlink:href="#SVGID_53_"  style="overflow:visible;"/>
				</clipPath>
				<g class="st39">
					<path class="st7" d="M15.24,14.49l0.61,0.78c-0.34-0.06-0.69-0.25-1.03-0.57c-0.14-0.13-0.27-0.27-0.39-0.42l-0.61-0.78
						c0.12,0.15,0.25,0.29,0.39,0.42C14.56,14.24,14.9,14.43,15.24,14.49"/>
				</g>
			</g>
			<g class="st0">
				<defs>
					<path id="SVGID_55_" class="st0" d="M15.84,13.31l0.61,0.78c0.11,0.34,0.23,0.66,0.34,0.97l-0.61-0.78
						C16.06,13.97,15.94,13.65,15.84,13.31z"/>
				</defs>
				<clipPath id="SVGID_56_">
					<use xlink:href="#SVGID_55_"  style="overflow:visible;"/>
				</clipPath>
				<g class="st40">
					<path class="st2" d="M15.84,13.31l0.61,0.78c0.11,0.34,0.23,0.66,0.34,0.97l-0.61-0.78C16.06,13.97,15.94,13.65,15.84,13.31"/>
				</g>
			</g>
			<g>
				<path class="st25" d="M16.82,12.53c-0.05,0.16-0.1,0.31-0.15,0.47c-0.98-0.62-1.89-1.49-2.77-2.41c-0.1,0.45-0.1,0.91,0.02,1.35
					c0.12,0.45,0.33,0.83,0.64,1.11c0.22,0.2,0.45,0.33,0.67,0.36c0.21,0.04,0.41,0,0.61-0.11c0.11,0.34,0.23,0.66,0.34,0.97
					c-0.28,0.19-0.59,0.26-0.94,0.21c-0.34-0.06-0.69-0.25-1.03-0.57c-0.6-0.56-0.98-1.29-1.2-2.13c-0.21-0.84-0.19-1.65,0.05-2.41
					l0.04-0.14c0.16-0.51,0.39-0.89,0.67-1.12c0.27-0.22,0.57-0.31,0.9-0.25c0.02,0,0.04,0.01,0.06,0.01
					c0.36,0.07,0.71,0.28,1.07,0.62c0.56,0.54,0.94,1.13,1.13,1.81C17.12,10.99,17.09,11.72,16.82,12.53z M15.97,11.44L16,11.36
					c0.1-0.4,0.11-0.77,0.02-1.09c-0.09-0.33-0.26-0.61-0.52-0.86c-0.17-0.16-0.33-0.26-0.49-0.28c-0.08-0.01-0.16-0.01-0.23,0.01
					c-0.23,0.06-0.42,0.27-0.59,0.62C14.77,10.36,15.36,10.94,15.97,11.44"/>
			</g>
			<g class="st0">
				<defs>
					<path id="SVGID_57_" class="st0" d="M16.18,14.28l0.61,0.78c-0.28,0.19-0.59,0.26-0.94,0.21l-0.61-0.78
						C15.59,14.54,15.9,14.48,16.18,14.28z"/>
				</defs>
				<clipPath id="SVGID_58_">
					<use xlink:href="#SVGID_57_"  style="overflow:visible;"/>
				</clipPath>
				<g class="st41">
					<path class="st5" d="M16.18,14.28l0.61,0.78c-0.02,0.01-0.03,0.02-0.05,0.03l-0.61-0.78C16.15,14.3,16.16,14.29,16.18,14.28"/>
					<path class="st4" d="M16.13,14.31l0.61,0.78c-0.04,0.02-0.07,0.04-0.11,0.06l-0.61-0.78C16.06,14.36,16.1,14.34,16.13,14.31"/>
					<path class="st8" d="M16.03,14.37l0.61,0.78c-0.04,0.02-0.09,0.04-0.13,0.06l-0.61-0.78C15.94,14.42,15.98,14.4,16.03,14.37"/>
					<path class="st7" d="M15.89,14.43l0.61,0.78c-0.2,0.07-0.42,0.09-0.65,0.06l-0.61-0.78C15.47,14.52,15.69,14.51,15.89,14.43"/>
				</g>
			</g>
		</g>
		<g class="st0">
			<g class="st0">
				<defs>
					<path id="SVGID_59_" class="st0" d="M19.92,10.13l0.61,0.78c-0.22,0.69-0.44,1.37-0.66,2.06l-0.61-0.78
						C19.48,11.51,19.7,10.82,19.92,10.13z"/>
				</defs>
				<clipPath id="SVGID_60_">
					<use xlink:href="#SVGID_59_"  style="overflow:visible;"/>
				</clipPath>
				<g class="st42">
					<path class="st17" d="M19.92,10.13l0.61,0.78c-0.22,0.69-0.44,1.37-0.66,2.06l-0.61-0.78C19.48,11.51,19.7,10.82,19.92,10.13"
						/>
				</g>
			</g>
			<g class="st0">
				<defs>
					<path id="SVGID_61_" class="st0" d="M23.72,8.76l0.61,0.78c-0.1,0.32-0.21,0.65-0.31,0.96l-0.61-0.78
						C23.51,9.4,23.62,9.08,23.72,8.76z"/>
				</defs>
				<clipPath id="SVGID_62_">
					<use xlink:href="#SVGID_61_"  style="overflow:visible;"/>
				</clipPath>
				<g class="st43">
					<path class="st17" d="M23.72,8.76l0.61,0.78c-0.1,0.32-0.21,0.65-0.31,0.96l-0.61-0.78C23.51,9.4,23.62,9.08,23.72,8.76"/>
				</g>
			</g>
			<g class="st0">
				<defs>
					<path id="SVGID_63_" class="st0" d="M23.41,9.72l0.61,0.78c-1.2,0.52-2.28,0.63-3.26,0.46c-0.08-0.01-0.16-0.03-0.23-0.05
						l-0.61-0.78c0.08,0.02,0.16,0.03,0.23,0.05C21.13,10.35,22.21,10.24,23.41,9.72z"/>
				</defs>
				<clipPath id="SVGID_64_">
					<use xlink:href="#SVGID_63_"  style="overflow:visible;"/>
				</clipPath>
				<g class="st44">
					<path class="st8" d="M23.41,9.72l0.61,0.78c-0.14,0.06-0.27,0.11-0.4,0.16l-0.61-0.78C23.14,9.83,23.28,9.78,23.41,9.72"/>
					<path class="st7" d="M23.01,9.88l0.61,0.78c-1.04,0.38-1.99,0.45-2.86,0.3c-0.08-0.01-0.16-0.03-0.23-0.05l-0.61-0.78
						c0.08,0.02,0.16,0.03,0.23,0.05C21.02,10.33,21.97,10.26,23.01,9.88"/>
				</g>
			</g>
			<g class="st0">
				<defs>
					<path id="SVGID_65_" class="st0" d="M21.96,12.92l0.61,0.78c-1.01,0.35-1.92,0.42-2.78,0.27c-0.08-0.01-0.15-0.03-0.23-0.05
						l-0.61-0.78c0.08,0.02,0.15,0.03,0.23,0.05C20.04,13.34,20.95,13.28,21.96,12.92z"/>
				</defs>
				<clipPath id="SVGID_66_">
					<use xlink:href="#SVGID_65_"  style="overflow:visible;"/>
				</clipPath>
				<g class="st45">
					<path class="st7" d="M21.96,12.92l0.61,0.78c-1.01,0.35-1.92,0.42-2.78,0.27c-0.08-0.01-0.15-0.03-0.23-0.05l-0.61-0.78
						c0.08,0.02,0.15,0.03,0.23,0.05C20.04,13.34,20.95,13.28,21.96,12.92"/>
				</g>
			</g>
			<g class="st0">
				<defs>
					<path id="SVGID_67_" class="st0" d="M22.26,11.97l0.61,0.78c-0.1,0.32-0.2,0.64-0.31,0.96l-0.61-0.78
						C22.06,12.61,22.16,12.29,22.26,11.97z"/>
				</defs>
				<clipPath id="SVGID_68_">
					<use xlink:href="#SVGID_67_"  style="overflow:visible;"/>
				</clipPath>
				<g class="st46">
					<path class="st17" d="M22.26,11.97l0.61,0.78c-0.1,0.32-0.2,0.64-0.31,0.96l-0.61-0.78C22.06,12.61,22.16,12.29,22.26,11.97"/>
				</g>
			</g>
			<g class="st0">
				<defs>
					<path id="SVGID_69_" class="st0" d="M18.02,16.08l0.61,0.78c-0.39-0.09-0.77-0.22-1.14-0.39l-0.61-0.78
						C17.25,15.86,17.63,15.99,18.02,16.08z"/>
				</defs>
				<clipPath id="SVGID_70_">
					<use xlink:href="#SVGID_69_"  style="overflow:visible;"/>
				</clipPath>
				<g class="st47">
					<path class="st7" d="M18.02,16.08l0.61,0.78c-0.39-0.09-0.77-0.22-1.14-0.39l-0.61-0.78C17.25,15.86,17.63,15.99,18.02,16.08"
						/>
				</g>
			</g>
			<g class="st0">
				<defs>
					<path id="SVGID_71_" class="st0" d="M18.96,13.15l0.61,0.78c-0.31,0.98-0.62,1.95-0.94,2.93l-0.61-0.78
						C18.33,15.1,18.64,14.13,18.96,13.15z"/>
				</defs>
				<clipPath id="SVGID_72_">
					<use xlink:href="#SVGID_71_"  style="overflow:visible;"/>
				</clipPath>
				<g class="st48">
					<path class="st17" d="M18.96,13.15l0.61,0.78c-0.31,0.98-0.62,1.95-0.94,2.93l-0.61-0.78C18.33,15.1,18.64,14.13,18.96,13.15"
						/>
				</g>
			</g>
			<g>
				<path class="st25" d="M23.72,8.76c-0.1,0.32-0.21,0.65-0.31,0.96c-1.2,0.52-2.28,0.63-3.26,0.46c-0.08-0.01-0.16-0.03-0.23-0.05
					c-0.22,0.69-0.44,1.37-0.66,2.06c0.06,0.01,0.13,0.03,0.19,0.04c0.87,0.15,1.79,0.09,2.81-0.26c-0.1,0.32-0.2,0.64-0.31,0.96
					c-1.01,0.35-1.92,0.42-2.78,0.27c-0.08-0.01-0.15-0.03-0.23-0.05c-0.31,0.98-0.62,1.95-0.94,2.93
					c-0.39-0.09-0.77-0.22-1.14-0.39c0.73-2.29,1.47-4.6,2.2-6.9c0.43,0.19,0.88,0.34,1.34,0.42C21.42,9.38,22.5,9.27,23.72,8.76z"
					/>
			</g>
		</g>
		<g class="st0">
			<g class="st0">
				<defs>
					<path id="SVGID_73_" class="st0" d="M25.25,9.69l-0.61-0.78c0.02,0.02,0.05,0.04,0.08,0.05l0.61,0.78
						C25.3,9.73,25.27,9.72,25.25,9.69z"/>
				</defs>
				<clipPath id="SVGID_74_">
					<use xlink:href="#SVGID_73_"  style="overflow:visible;"/>
				</clipPath>
				<g class="st49">
					<path class="st7" d="M24.73,8.96l0.61,0.78c-0.04-0.01-0.06-0.02-0.08-0.05l-0.61-0.78C24.66,8.94,24.69,8.95,24.73,8.96"/>
				</g>
			</g>
			<g class="st0">
				<defs>
					<path id="SVGID_75_" class="st0" d="M24.74,8.96l0.61,0.78c0,0-0.01,0-0.01,0l-0.61-0.78C24.73,8.96,24.73,8.96,24.74,8.96z"/>
				</defs>
				<clipPath id="SVGID_76_">
					<use xlink:href="#SVGID_75_"  style="overflow:visible;"/>
				</clipPath>
				<g class="st50">
					<path class="st7" d="M24.74,8.96l0.61,0.78c0,0-0.01,0-0.01,0l-0.61-0.78C24.73,8.96,24.73,8.96,24.74,8.96"/>
				</g>
			</g>
			<g class="st0">
				<defs>
					<path id="SVGID_77_" class="st0" d="M25.31,8.71l0.61,0.78c-0.28,0.19-0.46,0.27-0.58,0.25l-0.61-0.78
						C24.85,8.98,25.04,8.9,25.31,8.71z"/>
				</defs>
				<clipPath id="SVGID_78_">
					<use xlink:href="#SVGID_77_"  style="overflow:visible;"/>
				</clipPath>
				<g class="st51">
					<path class="st5" d="M25.31,8.71l0.61,0.78c-0.04,0.03-0.08,0.05-0.12,0.08L25.2,8.79C25.23,8.76,25.27,8.74,25.31,8.71"/>
					<path class="st4" d="M25.2,8.79l0.61,0.78c-0.06,0.04-0.12,0.07-0.17,0.1l-0.61-0.78C25.08,8.86,25.13,8.83,25.2,8.79"/>
					<path class="st8" d="M25.03,8.89l0.61,0.78c-0.04,0.02-0.08,0.04-0.11,0.05l-0.61-0.78C24.95,8.92,24.99,8.91,25.03,8.89"/>
					<path class="st7" d="M24.91,8.94l0.61,0.78c-0.07,0.03-0.13,0.03-0.18,0.03l-0.61-0.78C24.78,8.97,24.84,8.96,24.91,8.94"/>
				</g>
			</g>
			<g>
				<path class="st25" d="M24.74,8.96c0,0-0.01,0-0.01,0c-0.11-0.02-0.14-0.13-0.09-0.3C24.7,8.48,24.82,8.29,25,8.09
					c0.19-0.21,0.41-0.4,0.7-0.6c0.28-0.2,0.49-0.32,0.61-0.32c0.02,0,0.04,0,0.05,0c0.08,0.01,0.1,0.09,0.05,0.24
					c-0.05,0.17-0.18,0.38-0.38,0.63c-0.2,0.24-0.44,0.47-0.72,0.68C25.04,8.9,24.85,8.98,24.74,8.96z"/>
			</g>
			<g class="st0">
				<defs>
					<path id="SVGID_79_" class="st0" d="M26.43,7.19l0.61,0.78c0.03,0.04,0.03,0.11-0.01,0.21c-0.05,0.17-0.18,0.38-0.38,0.63
						c-0.2,0.24-0.44,0.47-0.72,0.68l-0.61-0.78c0.28-0.2,0.53-0.43,0.72-0.68c0.2-0.25,0.33-0.46,0.38-0.63
						C26.45,7.3,26.46,7.23,26.43,7.19z"/>
				</defs>
				<clipPath id="SVGID_80_">
					<use xlink:href="#SVGID_79_"  style="overflow:visible;"/>
				</clipPath>
				<g class="st52">
					<polyline class="st29" points="26.43,7.19 27.04,7.97 27.04,7.97 26.43,7.19 26.43,7.19 					"/>
					<polyline class="st30" points="26.43,7.19 27.04,7.97 27.04,7.98 26.43,7.2 26.43,7.19 					"/>
					<polyline class="st10" points="26.43,7.2 27.04,7.98 27.05,7.99 26.44,7.21 26.43,7.2 					"/>
					<path class="st2" d="M26.44,7.21l0.61,0.78c0,0.01,0,0.01,0.01,0.02l-0.61-0.78C26.44,7.22,26.44,7.22,26.44,7.21"/>
					<path class="st17" d="M26.44,7.23l0.61,0.78c0.01,0.04,0,0.1-0.02,0.17c0,0.01-0.01,0.02-0.01,0.02l-0.61-0.78
						c0-0.01,0.01-0.02,0.01-0.02C26.45,7.33,26.45,7.27,26.44,7.23"/>
					<path class="st2" d="M26.41,7.43l0.61,0.78c-0.02,0.05-0.04,0.1-0.07,0.15l-0.61-0.78C26.37,7.53,26.4,7.48,26.41,7.43"/>
					<path class="st10" d="M26.35,7.58l0.61,0.78c-0.03,0.06-0.07,0.12-0.11,0.18l-0.61-0.78C26.28,7.7,26.32,7.64,26.35,7.58"/>
					<path class="st30" d="M26.24,7.76l0.61,0.78c-0.05,0.08-0.11,0.16-0.18,0.25l-0.61-0.78C26.13,7.92,26.19,7.84,26.24,7.76"/>
					<path class="st29" d="M26.06,8.01l0.61,0.78c-0.01,0.01-0.01,0.01-0.02,0.02c-0.05,0.06-0.1,0.12-0.16,0.18l-0.61-0.78
						c0.06-0.06,0.11-0.12,0.16-0.18C26.04,8.03,26.05,8.02,26.06,8.01"/>
					<path class="st33" d="M25.88,8.21l0.61,0.78c-0.07,0.07-0.14,0.15-0.22,0.22l-0.61-0.78C25.74,8.36,25.81,8.29,25.88,8.21"/>
					<path class="st13" d="M25.66,8.43l0.61,0.78c-0.08,0.07-0.16,0.14-0.25,0.21l-0.61-0.78C25.5,8.57,25.58,8.5,25.66,8.43"/>
					<path class="st5" d="M25.41,8.64l0.61,0.78c-0.03,0.02-0.06,0.05-0.1,0.07l-0.61-0.78C25.35,8.69,25.38,8.66,25.41,8.64"/>
				</g>
			</g>
			<g class="st0">
				<defs>
					<path id="SVGID_81_" class="st0" d="M25.88,8.83l0.61,0.78c-0.55,1.71-1.09,3.42-1.64,5.14l-0.61-0.78
						C24.79,12.25,25.33,10.54,25.88,8.83z"/>
				</defs>
				<clipPath id="SVGID_82_">
					<use xlink:href="#SVGID_81_"  style="overflow:visible;"/>
				</clipPath>
				<g class="st53">
					<path class="st17" d="M25.88,8.83l0.61,0.78c-0.55,1.71-1.09,3.42-1.64,5.14l-0.61-0.78C24.79,12.25,25.33,10.54,25.88,8.83"/>
				</g>
			</g>
			<g class="st0">
				<defs>
					<path id="SVGID_83_" class="st0" d="M24.24,13.96l0.61,0.78c-0.55,0.44-1.07,0.8-1.57,1.1l-0.61-0.78
						C23.17,14.77,23.69,14.4,24.24,13.96z"/>
				</defs>
				<clipPath id="SVGID_84_">
					<use xlink:href="#SVGID_83_"  style="overflow:visible;"/>
				</clipPath>
				<g class="st54">
					<path class="st13" d="M24.24,13.96l0.61,0.78c-0.11,0.09-0.21,0.17-0.32,0.25l-0.61-0.78C24.03,14.13,24.13,14.05,24.24,13.96"
						/>
					<path class="st5" d="M23.92,14.21l0.61,0.78c-0.34,0.26-0.66,0.49-0.98,0.69l-0.61-0.78C23.26,14.7,23.58,14.47,23.92,14.21"/>
					<path class="st4" d="M22.94,14.9l0.61,0.78c-0.09,0.06-0.18,0.11-0.27,0.17l-0.61-0.78C22.76,15.01,22.85,14.96,22.94,14.9"/>
				</g>
			</g>
			<g>
				<path class="st25" d="M24.31,9.94c0.5-0.3,1.03-0.67,1.57-1.11c-0.55,1.71-1.09,3.42-1.64,5.14c-0.55,0.44-1.07,0.8-1.57,1.1
					C23.22,13.36,23.76,11.65,24.31,9.94z"/>
			</g>
		</g>
	</g>
</g>
</svg>
