<svg xmlns="http://www.w3.org/2000/svg" viewBox="0 0 945 353.59"><line x1="57.05" y1="174.87" x2="888.05" y2="172.23" fill="none" stroke="pink" stroke-miterlimit="10" stroke-width="10"/><path d="M64.38,198.94c-1.83-.06-4.4-.09-8.27.06-1.79.08-2.21-.66-2.82-3.79-.27-1.36-1.3-.64-2.78-1.05s-1.59-3.72-1.59-3.72c0-.72-.41-.74-.64-.63-5.23,2.23-10.77-1.11-10.9-.53-1,2.65-3.59,2.45-3.93,1.77.08,1.19-1.75,2.18-2.31,1.91-2-1.07-2.06-1.84-3.47-2.33-2.57-1.1-2-2.31-4.49-2.43-1.79-.09-2.39-.39-2.81-.76-1.87-1.82-.26-4.26.86-5.07-.43-1.89,2.31-4.21,2.93-5.8a13.73,13.73,0,0,1-4.11-.87c-1-.35-.79.17-2.6,0a12.15,12.15,0,0,1-4.16-.81c-.45-.21-2.81-.15-4-.57A3.52,3.52,0,0,1,6,169.91c0-.14.07-.14.8-.15,1,.07,2.75-.45,4.19-.22a24.41,24.41,0,0,1,2.81,0c1.71-.3,3,.15,4.94-.57.3-.09.24.2.9.13.35,0,.3-.32,1.34-.2a38,38,0,0,0,4.14,0c1.44,0,2.56-.3,6.08-.61,1.43-.13,2.56-.78,3.61-.26,1.61.8,7.19,3.21,13.17,6.15.13.06.65.35,1-.43.67-1.24,1.06-.88,3.41-.82,1.68-.07.43-1.36,2.28-1.32,2.85.05,4,.28,8.12.18,1.69,0,2.15-.1,2.18,1.09l.08,25.29A.67.67,0,0,1,64.38,198.94Z" transform="translate(-5.95 -9.95)" fill="pink"/><path d="M6.89,170.61c-.1,1.12,2,.84,2.79.67.49-.1.86-.88.37-1.05L7,170.52S6.88,170.59,6.89,170.61Z" transform="translate(-5.95 -9.95)" fill="#fff"/><path d="M23.4,183.61c1.2.18,1.09.67,1.73.58.85-.12.09-.44,3-.38a3.13,3.13,0,0,1,1.87.29c.28-.23.94-.55,1.4-.14,1-.22.68-.34,2.46.06,2.41.54,2.88-.44,4-1a1.49,1.49,0,0,1,1.08-.16c4.43.52,2.52.51,8.66.12,2.12-.41,2.94-1.56,2.84-4.44-.18-3.26-.88-2.81-2.68-3.57-7.29-3.21-12.18-6-14.07-5.83-5.38.09-4.4,1.07-11.5.88-2.25-.27-2.17.88-3,.75-.63-.35-.11-.69-2.28-.48-4.42.41-5.3-.34-5.7.36-.53.94-.52,1.53-3.38,1.29a3.52,3.52,0,0,1-.45,0c-.35-.09-.37.13,0,.38a8.58,8.58,0,0,0,5.35.9c1.54-.25.74.35,3.3.34,1.13-.07,1.83-.08,2.18-.15a9.67,9.67,0,0,0,4,.28c.86-.23,1.26-.5,2-.09a8.37,8.37,0,0,0,5,.69c3-.36,2.79-.93,3.09-.71.69.52-.71,1.49.75,2.6.75.57,1.54-1.73,2.28-1.7.44.06.53.47.32,1-.1.23-1,1.54-.24,2.08,1.2.87,3.33-1.77,5-.69.39.3,0,.72-.49.67a4.75,4.75,0,0,0-2.71,1.17,17.6,17.6,0,0,1-3.61,2c-2.74,1.13-3.65.29-4.14,1-.42.53-1.28-.26-2.26-.41-1.83-.3-6.05,1.23-5.65,2.16.16.31.44.28.82.21A2.75,2.75,0,0,1,23.4,183.61Z" transform="translate(-5.95 -9.95)" fill="#fff"/><path d="M24.44,185.88c-.43-.92-.47-1-1.36-1.23s-3,.5-2.72,1.45c.23.3,1.18.31,1.78.45S24.74,186.91,24.44,185.88Z" transform="translate(-5.95 -9.95)" fill="#fff"/><path d="M52.11,193.23c-.9,0-1-.59-1.15-1.18-.21-.85.41-4.36.47-8.79a60.48,60.48,0,0,0-.31-8.08c-.06-.59-.53-1.33.28-1.37,2.63-.16,3.44-.37,3.87,1.7.5,2.43.59,11.85,0,16.81C55,192.71,55.57,193.48,52.11,193.23Z" transform="translate(-5.95 -9.95)" fill="#fff"/><path d="M892.71,196.31c1.83-.07,4.4-.12,8.27,0,1.79.06,2.21-.68,2.8-3.81.25-1.37,1.29-.64,2.77-1.07s1.57-3.73,1.57-3.73c0-.72.4-.74.63-.63,5.24,2.19,10.77-1.18,10.9-.6,1,2.64,3.61,2.43,3.94,1.75-.07,1.19,1.76,2.17,2.32,1.89,2-1.08,2.05-1.86,3.46-2.35,2.56-1.12,2-2.32,4.47-2.46,1.79-.1,2.39-.4,2.81-.78,1.86-1.83.23-4.26-.89-5.06.41-1.9-2.34-4.2-3-5.78a14,14,0,0,0,4.11-.9c1-.36.79.16,2.6,0a12,12,0,0,0,4.15-.84c.45-.21,2.81-.16,4-.59a3.52,3.52,0,0,0,3.18-4.42c0-.14-.07-.14-.8-.14-1,.07-2.75-.43-4.19-.2a23.44,23.44,0,0,0-2.81,0c-1.71-.29-2.95.17-4.94-.54-.3-.08-.24.2-.9.14-.35,0-.3-.32-1.34-.19s-2.7,0-4.14,0-2.57-.29-6.08-.58c-1.44-.12-2.57-.76-3.62-.23-1.6.8-7.16,3.25-13.13,6.23-.12.06-.65.36-1-.43-.68-1.23-1.06-.87-3.42-.79-1.68-.06-.44-1.36-2.28-1.31-2.85.07-4,.31-8.12.23-1.69,0-2.15-.08-2.18,1.11l.08,25.29A.68.68,0,0,0,892.71,196.31Z" transform="translate(-5.95 -9.95)" fill="pink"/><path d="M950,167.62c.11,1.12-2,.85-2.79.69-.49-.1-.86-.88-.37-1.06l3.06.27S950,167.6,950,167.62Z" transform="translate(-5.95 -9.95)" fill="#fff"/><path d="M933.59,180.72c-1.2.18-1.09.68-1.73.59-.85-.11-.09-.44-3-.36a3,3,0,0,0-1.86.31,1.13,1.13,0,0,0-1.41-.14c-1.05-.21-.68-.34-2.46.08-2.4.55-2.88-.43-4-1a1.46,1.46,0,0,0-1.07-.15c-4.43.55-2.52.53-8.66.18-2.12-.4-2.95-1.54-2.87-4.43.16-3.26.86-2.81,2.66-3.59,7.26-3.26,12.14-6.05,14-5.91,5.38,0,4.4,1,11.5.81,2.25-.29,2.19.86,3,.72.63-.35.11-.69,2.28-.5,4.41.39,5.29-.36,5.7.34.54.93.53,1.52,3.39,1.27l.45-.05c.35-.09.37.12,0,.38a8.54,8.54,0,0,1-5.34.93c-1.55-.24-.74.36-3.31.37-1.12-.07-1.82-.07-2.17-.14a9.55,9.55,0,0,1-4,.3c-.86-.22-1.27-.49-2-.07a8.47,8.47,0,0,1-5,.72c-3-.34-2.8-.91-3.09-.69-.69.52.72,1.48-.73,2.6-.75.58-1.56-1.72-2.29-1.68-.45.06-.53.47-.32,1,.1.23,1,1.53.26,2.07-1.2.89-3.35-1.74-5-.65-.38.3,0,.72.49.67a4.71,4.71,0,0,1,2.72,1.15,17.76,17.76,0,0,0,3.62,2c2.75,1.12,3.66.27,4.15,1,.43.53,1.28-.27,2.25-.43,1.84-.3,6.07,1.2,5.67,2.13-.15.31-.44.29-.82.21A2.59,2.59,0,0,0,933.59,180.72Z" transform="translate(-5.95 -9.95)" fill="#fff"/><path d="M932.57,183c.42-.91.46-1,1.35-1.23s3,.48,2.73,1.43c-.23.3-1.18.32-1.78.46S932.27,184,932.57,183Z" transform="translate(-5.95 -9.95)" fill="#fff"/><path d="M904.94,190.52c.9-.05,1-.6,1.15-1.19.2-.84-.44-4.35-.53-8.78a61.06,61.06,0,0,1,.26-8.09c0-.58.52-1.32-.29-1.36-2.63-.14-3.44-.35-3.86,1.73-.48,2.42-.52,11.85.13,16.8C902,190,901.49,190.79,904.94,190.52Z" transform="translate(-5.95 -9.95)" fill="#fff"/><line x1="207.05" y1="322.05" x2="207.05" y2="249.05" fill="none" stroke="pink" stroke-miterlimit="10" stroke-width="10"/><path d="M227.13,260.33c-.07-1.83-.11-4.4,0-8.26.07-1.79-.67-2.21-3.8-2.81-1.36-.27-.64-1.31-1.06-2.78s-3.73-1.58-3.73-1.58c-.72,0-.73-.41-.63-.64,2.22-5.23-1.14-10.77-.56-10.89,2.64-1,2.44-3.61,1.76-3.94,1.19.07,2.18-1.76,1.9-2.32-1.07-2-1.85-2.06-2.34-3.46-1.11-2.57-2.31-2-2.45-4.48-.09-1.8-.39-2.39-.77-2.81-1.82-1.87-4.25-.25-5.06.87-1.9-.42-4.21,2.32-5.79,3a13.89,13.89,0,0,0-.89-4.11c-.35-1,.17-.79,0-2.61a12.3,12.3,0,0,0-.82-4.15c-.21-.45-.16-2.81-.58-4a3.51,3.51,0,0,0-4.41-3.19c-.14,0-.14.07-.14.8.07,1-.44,2.74-.21,4.19a22.83,22.83,0,0,0,0,2.81c-.3,1.7.15,3-.56,4.94-.08.3.2.23.14.89,0,.36-.32.31-.2,1.35a40.38,40.38,0,0,1,0,4.14c0,1.44-.3,2.56-.6,6.08-.12,1.44-.77,2.56-.24,3.62.8,1.6,3.23,7.17,6.18,13.14.06.13.36.65-.42,1-1.24.67-.88,1.05-.81,3.41-.07,1.68-1.36.43-1.32,2.28.06,2.85.3,4,.21,8.12,0,1.69-.09,2.15,1.1,2.18h25.29A.69.69,0,0,0,227.13,260.33Z" transform="translate(-5.95 -9.95)" fill="pink"/><path d="M198.62,202.93c1.11-.1.84,2,.67,2.79-.09.49-.87.86-1,.37l.28-3.05S198.59,202.92,198.62,202.93Z" transform="translate(-5.95 -9.95)" fill="#fff"/><path d="M211.66,219.4c.18,1.2.68,1.09.59,1.73-.12.85-.44.09-.37,3a3,3,0,0,0,.3,1.87c-.23.28-.55.95-.14,1.4-.22,1.05-.34.68.07,2.46.54,2.41-.44,2.88-1,4a1.48,1.48,0,0,0-.16,1.08c.54,4.43.53,2.51.15,8.65-.4,2.13-1.54,2.95-4.43,2.86-3.26-.17-2.81-.87-3.58-2.67-3.23-7.28-6-12.16-5.87-14.06.07-5.38,1.06-4.39.84-11.49-.28-2.25.88-2.18.74-3-.35-.64-.69-.12-.49-2.29.4-4.41-.35-5.29.35-5.69.94-.54,1.52-.53,1.28-3.39a3.17,3.17,0,0,0-.05-.45c-.08-.35.13-.37.39,0a8.59,8.59,0,0,1,.91,5.34c-.24,1.55.36.74.36,3.31-.08,1.12-.08,1.82-.15,2.17a9.57,9.57,0,0,1,.29,4c-.22.86-.5,1.26-.08,2a8.43,8.43,0,0,1,.71,5c-.36,2.95-.93,2.8-.71,3.09.52.69,1.49-.71,2.6.74.58.75-1.72,1.55-1.68,2.29.06.44.46.53.95.31.23-.1,1.53-1,2.07-.24.88,1.19-1.76,3.34-.67,5,.3.39.72,0,.67-.49a4.67,4.67,0,0,1,1.16-2.71,17.1,17.1,0,0,0,2-3.62c1.13-2.74.29-3.65,1-4.15.53-.42-.27-1.27-.43-2.25-.3-1.83,1.22-6.06,2.15-5.66.31.16.29.45.21.82A2.75,2.75,0,0,0,211.66,219.4Z" transform="translate(-5.95 -9.95)" fill="#fff"/><path d="M213.94,220.43c-.92-.42-1-.47-1.23-1.35s.49-3,1.44-2.72c.3.23.31,1.17.45,1.77S215,220.73,213.94,220.43Z" transform="translate(-5.95 -9.95)" fill="#fff"/><path d="M221.37,248.09c0-.91-.59-1-1.18-1.16-.84-.2-4.36.43-8.79.5a58.06,58.06,0,0,1-8.08-.29c-.59,0-1.33-.52-1.37.29-.14,2.63-.35,3.44,1.72,3.87,2.43.49,11.85.55,16.8-.08C220.86,251,221.64,251.54,221.37,248.09Z" transform="translate(-5.95 -9.95)" fill="#fff"/><line x1="363.16" y1="319.92" x2="363.16" y2="246.92" fill="none" stroke="pink" stroke-miterlimit="10" stroke-width="10"/><path d="M383.24,258.2c-.06-1.83-.1-4.4,0-8.27.07-1.79-.67-2.21-3.81-2.81-1.36-.26-.63-1.3-1.05-2.77s-3.73-1.59-3.73-1.59c-.72,0-.74-.4-.63-.63,2.21-5.24-1.14-10.77-.56-10.9,2.64-1,2.44-3.6,1.76-3.93,1.19.07,2.17-1.76,1.89-2.32-1.07-2-1.84-2.06-2.33-3.46-1.11-2.57-2.32-2-2.45-4.48-.09-1.8-.39-2.39-.77-2.82-1.83-1.86-4.25-.24-5.06.88-1.9-.42-4.21,2.32-5.79,3a14,14,0,0,0-.89-4.11c-.35-1,.17-.79,0-2.6a12.3,12.3,0,0,0-.82-4.15c-.21-.45-.16-2.81-.58-4A3.53,3.53,0,0,0,354,200c-.14,0-.14.08-.14.8.08,1-.44,2.75-.2,4.19a21,21,0,0,0,0,2.81c-.31,1.71.15,3-.56,4.95-.09.29.2.23.13.89,0,.35-.31.31-.19,1.34a40.58,40.58,0,0,1,0,4.14c0,1.45-.29,2.57-.59,6.08-.12,1.44-.77,2.57-.25,3.62.8,1.61,3.24,7.17,6.19,13.15.06.13.36.65-.42,1-1.25.67-.88,1.06-.81,3.41-.07,1.69-1.36.44-1.32,2.29.06,2.84.3,4,.21,8.12,0,1.69-.09,2.15,1.1,2.18h25.29A.68.68,0,0,0,383.24,258.2Z" transform="translate(-5.95 -9.95)" fill="pink"/><path d="M354.73,200.8c1.12-.11.85,2,.68,2.79-.09.49-.87.86-1.05.37l.28-3.06S354.71,200.79,354.73,200.8Z" transform="translate(-5.95 -9.95)" fill="#fff"/><path d="M367.78,217.27c.18,1.2.67,1.09.59,1.73-.12.85-.44.09-.37,3a3.06,3.06,0,0,0,.3,1.87,1.13,1.13,0,0,0-.15,1.4c-.21,1.05-.33.68.08,2.46.54,2.4-.44,2.88-1,4a1.51,1.51,0,0,0-.15,1.07c.54,4.43.52,2.52.15,8.66-.4,2.12-1.55,3-4.43,2.86-3.27-.18-2.81-.88-3.58-2.67-3.24-7.28-6-12.16-5.87-14.06.07-5.38,1.05-4.39.84-11.49-.28-2.25.88-2.18.74-3-.35-.63-.69-.11-.49-2.28.4-4.41-.35-5.29.35-5.7.93-.54,1.52-.52,1.28-3.39,0-.23,0-.3-.05-.44-.09-.36.13-.37.39,0a8.66,8.66,0,0,1,.91,5.34c-.25,1.55.35.74.35,3.31-.07,1.12-.07,1.82-.14,2.17a9.51,9.51,0,0,1,.28,4c-.21.86-.49,1.27-.07,2a8.51,8.51,0,0,1,.7,5c-.35,2.95-.92,2.8-.7,3.09.52.69,1.49-.72,2.6.74.57.75-1.72,1.55-1.68,2.29.06.44.46.52.95.31.22-.1,1.53-1,2.07-.24.88,1.19-1.76,3.34-.67,5,.3.39.72,0,.67-.49a4.67,4.67,0,0,1,1.16-2.71,17.82,17.82,0,0,0,2-3.62c1.13-2.74.29-3.65,1-4.15.52-.42-.27-1.27-.43-2.25-.3-1.84,1.22-6.06,2.15-5.66.31.16.28.44.21.82A2.75,2.75,0,0,0,367.78,217.27Z" transform="translate(-5.95 -9.95)" fill="#fff"/><path d="M370.05,218.3c-.91-.42-1-.47-1.23-1.35s.5-3,1.45-2.73c.29.23.31,1.18.45,1.78S371.09,218.6,370.05,218.3Z" transform="translate(-5.95 -9.95)" fill="#fff"/><path d="M377.49,246c0-.9-.59-1-1.18-1.15-.85-.2-4.36.42-8.79.5a61.43,61.43,0,0,1-8.08-.29c-.59,0-1.33-.52-1.37.29-.15,2.63-.35,3.44,1.72,3.86,2.42.49,11.85.56,16.8-.07C377,248.87,377.75,249.41,377.49,246Z" transform="translate(-5.95 -9.95)" fill="#fff"/><line x1="519.28" y1="319.92" x2="519.28" y2="246.92" fill="none" stroke="pink" stroke-miterlimit="10" stroke-width="10"/><path d="M539.36,258.2c-.07-1.83-.1-4.4,0-8.27.06-1.79-.67-2.21-3.81-2.81-1.36-.26-.63-1.3-1.05-2.77s-3.73-1.59-3.73-1.59c-.72,0-.74-.4-.63-.63,2.21-5.24-1.14-10.77-.57-10.9,2.65-1,2.45-3.6,1.76-3.93,1.2.07,2.18-1.76,1.9-2.32-1.07-2-1.84-2.06-2.34-3.46-1.1-2.57-2.31-2-2.44-4.48-.1-1.8-.39-2.39-.77-2.82-1.83-1.86-4.26-.24-5.07.88-1.89-.42-4.2,2.32-5.79,3a13.9,13.9,0,0,0-.88-4.11c-.36-1,.16-.79,0-2.6a12.3,12.3,0,0,0-.82-4.15c-.21-.45-.16-2.81-.59-4a3.52,3.52,0,0,0-4.41-3.2c-.14,0-.14.08-.14.8.07,1-.44,2.75-.21,4.19a25.14,25.14,0,0,0,0,2.81c-.3,1.71.16,3-.55,4.95-.09.29.19.23.13.89,0,.35-.32.31-.19,1.34.13,1.19,0,2.7,0,4.14s-.29,2.57-.59,6.08c-.13,1.44-.78,2.57-.25,3.62.8,1.61,3.23,7.17,6.19,13.15.06.13.36.65-.43,1-1.24.67-.88,1.06-.8,3.41-.07,1.69-1.36.44-1.32,2.29.06,2.84.29,4,.21,8.12,0,1.69-.1,2.15,1.1,2.18h25.29A.68.68,0,0,0,539.36,258.2Z" transform="translate(-5.95 -9.95)" fill="pink"/><path d="M510.85,200.8c1.12-.11.85,2,.68,2.79-.1.49-.88.86-1,.37l.28-3.06S510.83,200.79,510.85,200.8Z" transform="translate(-5.95 -9.95)" fill="#fff"/><path d="M523.9,217.27c.18,1.2.67,1.09.59,1.73-.12.85-.44.09-.37,3a3.06,3.06,0,0,0,.3,1.87,1.13,1.13,0,0,0-.15,1.4c-.21,1.05-.33.68.07,2.46.55,2.4-.43,2.88-1,4a1.51,1.51,0,0,0-.15,1.07c.54,4.43.52,2.52.15,8.66-.4,2.12-1.55,3-4.43,2.86-3.27-.18-2.81-.88-3.59-2.67-3.23-7.28-6-12.16-5.86-14.06.07-5.38,1-4.39.84-11.49-.28-2.25.87-2.18.74-3-.35-.63-.69-.11-.49-2.28.4-4.41-.35-5.29.34-5.7.94-.54,1.53-.52,1.29-3.39,0-.23,0-.3-.05-.44-.09-.36.12-.37.38,0a8.56,8.56,0,0,1,.92,5.34c-.25,1.55.35.74.35,3.31-.07,1.12-.07,1.82-.14,2.17a9.67,9.67,0,0,1,.28,4c-.22.86-.49,1.27-.07,2a8.51,8.51,0,0,1,.7,5c-.35,2.95-.92,2.8-.7,3.09.52.69,1.48-.72,2.6.74.57.75-1.72,1.55-1.69,2.29.06.44.47.52,1,.31.23-.1,1.53-1,2.07-.24.89,1.19-1.75,3.34-.66,5,.3.39.72,0,.66-.49a4.75,4.75,0,0,1,1.17-2.71,18.31,18.31,0,0,0,2-3.62c1.12-2.74.28-3.65,1-4.15.53-.42-.26-1.27-.42-2.25-.3-1.84,1.21-6.06,2.15-5.66.3.16.28.44.21.82A2.57,2.57,0,0,0,523.9,217.27Z" transform="translate(-5.95 -9.95)" fill="#fff"/><path d="M526.17,218.3c-.91-.42-1-.47-1.23-1.35s.49-3,1.44-2.73c.3.23.32,1.18.46,1.78S527.21,218.6,526.17,218.3Z" transform="translate(-5.95 -9.95)" fill="#fff"/><path d="M533.61,246c-.05-.9-.6-1-1.18-1.15-.85-.2-4.36.42-8.79.5a61.26,61.26,0,0,1-8.08-.29c-.59,0-1.33-.52-1.37.29-.15,2.63-.36,3.44,1.71,3.86,2.43.49,11.86.56,16.81-.07C533.1,248.87,533.87,249.41,533.61,246Z" transform="translate(-5.95 -9.95)" fill="#fff"/><line x1="675.4" y1="319.92" x2="675.4" y2="246.92" fill="none" stroke="pink" stroke-miterlimit="10" stroke-width="10"/><path d="M695.48,258.2c-.07-1.83-.11-4.4,0-8.27.07-1.79-.67-2.21-3.8-2.81-1.36-.26-.64-1.3-1.05-2.77s-3.73-1.59-3.73-1.59c-.72,0-.74-.4-.63-.63,2.21-5.24-1.15-10.77-.57-10.9,2.65-1,2.45-3.6,1.76-3.93,1.19.07,2.18-1.76,1.9-2.32-1.07-2-1.85-2.06-2.34-3.46-1.11-2.57-2.31-2-2.44-4.48-.1-1.8-.4-2.39-.78-2.82-1.82-1.86-4.25-.24-5.06.88-1.89-.42-4.21,2.32-5.79,3a13.9,13.9,0,0,0-.88-4.11c-.36-1,.16-.79,0-2.6a12.22,12.22,0,0,0-.83-4.15c-.21-.45-.15-2.81-.58-4a3.52,3.52,0,0,0-4.41-3.2c-.14,0-.14.08-.14.8.07,1-.44,2.75-.21,4.19a22.86,22.86,0,0,0,0,2.81c-.3,1.71.15,3-.55,4.95-.09.29.19.23.13.89,0,.35-.32.31-.19,1.34.13,1.19,0,2.7,0,4.14s-.29,2.57-.59,6.08c-.13,1.44-.78,2.57-.25,3.62.8,1.61,3.23,7.17,6.18,13.15.07.13.36.65-.42,1-1.24.67-.88,1.06-.81,3.41-.06,1.69-1.36.44-1.32,2.29.07,2.84.3,4,.22,8.12,0,1.69-.1,2.15,1.09,2.18H694.7A.69.69,0,0,0,695.48,258.2Z" transform="translate(-5.95 -9.95)" fill="pink"/><path d="M667,200.8c1.12-.11.84,2,.68,2.79-.1.49-.88.86-1.06.37l.28-3.06S667,200.79,667,200.8Z" transform="translate(-5.95 -9.95)" fill="#fff"/><path d="M680,217.27c.18,1.2.67,1.09.58,1.73-.12.85-.44.09-.36,3a3.13,3.13,0,0,0,.29,1.87,1.14,1.14,0,0,0-.14,1.4c-.21,1.05-.34.68.07,2.46.55,2.4-.43,2.88-1,4a1.46,1.46,0,0,0-.15,1.07c.53,4.43.52,2.52.15,8.66-.41,2.12-1.55,3-4.43,2.86-3.27-.18-2.82-.88-3.59-2.67-3.23-7.28-6-12.16-5.87-14.06.07-5.38,1.06-4.39.85-11.49-.28-2.25.87-2.18.74-3-.36-.63-.7-.11-.5-2.28.41-4.41-.35-5.29.35-5.7.94-.54,1.53-.52,1.28-3.39a3.52,3.52,0,0,0,0-.44c-.09-.36.12-.37.38,0a8.51,8.51,0,0,1,.91,5.34c-.24,1.55.36.74.36,3.31-.08,1.12-.08,1.82-.15,2.17a9.53,9.53,0,0,1,.29,4c-.22.86-.5,1.27-.08,2a8.41,8.41,0,0,1,.71,5c-.35,2.95-.92,2.8-.71,3.09.53.69,1.49-.72,2.61.74.57.75-1.72,1.55-1.69,2.29.06.44.47.52,1,.31.23-.1,1.53-1,2.07-.24.88,1.19-1.75,3.34-.66,5,.29.39.72,0,.66-.49a4.8,4.8,0,0,1,1.16-2.71,17.88,17.88,0,0,0,2-3.62c1.12-2.74.28-3.65,1-4.15.53-.42-.26-1.27-.42-2.25-.3-1.84,1.21-6.06,2.14-5.66.31.16.29.44.22.82A2.42,2.42,0,0,0,680,217.27Z" transform="translate(-5.95 -9.95)" fill="#fff"/><path d="M682.29,218.3c-.92-.42-1-.47-1.23-1.35s.49-3,1.44-2.73c.3.23.32,1.18.46,1.78S683.33,218.6,682.29,218.3Z" transform="translate(-5.95 -9.95)" fill="#fff"/><path d="M689.73,246c-.05-.9-.6-1-1.19-1.15-.84-.2-4.35.42-8.78.5a61.52,61.52,0,0,1-8.09-.29c-.58,0-1.32-.52-1.36.29-.15,2.63-.36,3.44,1.71,3.86,2.43.49,11.86.56,16.8-.07C689.22,248.87,690,249.41,689.73,246Z" transform="translate(-5.95 -9.95)" fill="#fff"/><path d="M101.19,218.79l2.39-12.65h3.65l-3.94,17.78H99.6L96.71,212l-2.9,11.89H90.13l-3.95-17.78h3.65l2.41,12.63,2.93-12.63h3.1Z" transform="translate(-5.95 -9.95)" fill="pink"/><path d="M119.9,216.21h-7V221h8.25v2.94H109.21V206.14H121.1v3h-8.23v4.24h7Z" transform="translate(-5.95 -9.95)" fill="pink"/><path d="M134,216.21h-7V221h8.25v2.94H123.27V206.14h11.89v3h-8.23v4.24h7Z" transform="translate(-5.95 -9.95)" fill="pink"/><path d="M142.9,216.79,141,218.84v5.08h-3.66V206.14H141v8.06l1.62-2.21,4.52-5.85h4.51l-6.31,7.9,6.49,9.88h-4.36Z" transform="translate(-5.95 -9.95)" fill="pink"/><path d="M167.62,223.92h-3.53v-13.6l-4.21,1.3v-2.86l7.36-2.64h.38Z" transform="translate(-5.95 -9.95)" fill="pink"/><path d="M261.46,217.42l2.39-12.65h3.65l-3.94,17.77h-3.69L257,210.65l-2.9,11.89H250.4l-4-17.77h3.65l2.41,12.62,2.93-12.62h3.1Z" transform="translate(-5.95 -9.95)" fill="pink"/><path d="M280.17,214.84h-7v4.76h8.25v2.94H269.48V204.77h11.89v3h-8.23V212h7Z" transform="translate(-5.95 -9.95)" fill="pink"/><path d="M294.23,214.84h-7v4.76h8.25v2.94H283.54V204.77h11.89v3H287.2V212h7Z" transform="translate(-5.95 -9.95)" fill="pink"/><path d="M303.17,215.41l-1.91,2.05v5.08H297.6V204.77h3.66v8.06l1.62-2.21,4.52-5.85h4.51l-6.31,7.9,6.49,9.87h-4.36Z" transform="translate(-5.95 -9.95)" fill="pink"/><path d="M331.5,222.54H319.32v-2.41l5.75-6.13a14.7,14.7,0,0,0,1.75-2.26,3.6,3.6,0,0,0,.57-1.83,2.7,2.7,0,0,0-.6-1.86,2.14,2.14,0,0,0-1.71-.68,2.33,2.33,0,0,0-1.89.82,3.26,3.26,0,0,0-.69,2.17H319a5.83,5.83,0,0,1,.78-3,5.54,5.54,0,0,1,2.19-2.1,6.62,6.62,0,0,1,3.21-.77,6.32,6.32,0,0,1,4.27,1.32,4.68,4.68,0,0,1,1.52,3.73,5.93,5.93,0,0,1-.69,2.68,14.8,14.8,0,0,1-2.34,3.19l-4,4.26h7.64Z" transform="translate(-5.95 -9.95)" fill="pink"/><path d="M421.73,216l2.39-12.65h3.65l-3.94,17.78h-3.69l-2.89-11.89-2.9,11.89h-3.68l-3.95-17.78h3.65L412.78,216l2.93-12.63h3.1Z" transform="translate(-5.95 -9.95)" fill="pink"/><path d="M440.44,213.46h-7v4.77h8.25v2.94H429.75V203.39h11.89v3h-8.23v4.24h7Z" transform="translate(-5.95 -9.95)" fill="pink"/><path d="M454.5,213.46h-7v4.77h8.25v2.94H443.81V203.39H455.7v3h-8.23v4.24h7Z" transform="translate(-5.95 -9.95)" fill="pink"/><path d="M463.44,214l-1.91,2.05v5.08h-3.66V203.39h3.66v8.06l1.62-2.21,4.52-5.85h4.51l-6.31,7.9,6.49,9.88H468Z" transform="translate(-5.95 -9.95)" fill="pink"/><path d="M483.18,210.72h1.88a2.69,2.69,0,0,0,2-.67,2.49,2.49,0,0,0,.64-1.79,2.17,2.17,0,0,0-.64-1.67,2.45,2.45,0,0,0-1.76-.6,2.62,2.62,0,0,0-1.7.56,1.79,1.79,0,0,0-.68,1.45h-3.53a4.36,4.36,0,0,1,.75-2.5,5,5,0,0,1,2.1-1.73,7.08,7.08,0,0,1,3-.62,6.63,6.63,0,0,1,4.42,1.35,4.6,4.6,0,0,1,1.6,3.72,3.76,3.76,0,0,1-.74,2.24,4.84,4.84,0,0,1-2,1.58,4.14,4.14,0,0,1,3,4.15,4.66,4.66,0,0,1-1.72,3.79,7,7,0,0,1-4.58,1.43,6.62,6.62,0,0,1-4.35-1.4,4.59,4.59,0,0,1-1.69-3.71h3.53a2,2,0,0,0,.75,1.63,3.11,3.11,0,0,0,3.82,0,2.27,2.27,0,0,0,.71-1.76c0-1.78-1-2.66-2.93-2.66h-1.86Z" transform="translate(-5.95 -9.95)" fill="pink"/><path d="M582,214.67,584.39,202H588l-3.94,17.77h-3.69l-2.89-11.89-2.9,11.89h-3.68L567,202h3.65l2.41,12.62L576,202h3.1Z" transform="translate(-5.95 -9.95)" fill="pink"/><path d="M600.71,212.09h-7v4.76h8.25v2.94H590V202h11.89v3h-8.23v4.23h7Z" transform="translate(-5.95 -9.95)" fill="pink"/><path d="M614.77,212.09h-7v4.76H616v2.94H604.08V202H616v3h-8.23v4.23h7Z" transform="translate(-5.95 -9.95)" fill="pink"/><path d="M623.71,212.66l-1.91,2.05v5.08h-3.66V202h3.66v8.06l1.62-2.21,4.52-5.85h4.51l-6.31,7.9,6.49,9.87h-4.36Z" transform="translate(-5.95 -9.95)" fill="pink"/><path d="M650.29,213.1h2V216h-2v3.84h-3.52V216h-7.29l-.16-2.22L646.73,202h3.56Zm-7.45,0h3.93v-6.27l-.23.4Z" transform="translate(-5.95 -9.95)" fill="pink"/><path d="M732.35,213.29l2.39-12.65h3.65l-3.94,17.78h-3.69l-2.89-11.89L725,218.42h-3.68l-3.95-17.78H721l2.41,12.63,2.93-12.63h3.1Z" transform="translate(-5.95 -9.95)" fill="pink"/><path d="M751.06,210.71h-7v4.77h8.25v2.94H740.37V200.64h11.88v3H744v4.24h7Z" transform="translate(-5.95 -9.95)" fill="pink"/><path d="M765.12,210.71h-7v4.77h8.25v2.94H754.43V200.64h11.89v3h-8.23v4.24h7Z" transform="translate(-5.95 -9.95)" fill="pink"/><path d="M774.06,211.29l-1.91,2.05v5.08h-3.66V200.64h3.66v8.06l1.61-2.21,4.53-5.85h4.51l-6.31,7.9,6.49,9.88h-4.36Z" transform="translate(-5.95 -9.95)" fill="pink"/><path d="M790.73,209.68l1-9h10v3h-7.07l-.44,3.82a5.57,5.57,0,0,1,2.67-.67,5.11,5.11,0,0,1,4,1.57,6.3,6.3,0,0,1,1.44,4.41,6.48,6.48,0,0,1-.72,3.08,5.16,5.16,0,0,1-2.08,2.11,6.52,6.52,0,0,1-3.2.75,7,7,0,0,1-3-.65,5.32,5.32,0,0,1-2.18-1.84,5,5,0,0,1-.85-2.7h3.49a2.57,2.57,0,0,0,.78,1.73,2.45,2.45,0,0,0,1.74.62,2.18,2.18,0,0,0,1.84-.86,4,4,0,0,0,.65-2.44,3.29,3.29,0,0,0-.75-2.32,2.74,2.74,0,0,0-2.11-.8,3.05,3.05,0,0,0-2,.66l-.34.31Z" transform="translate(-5.95 -9.95)" fill="pink"/><path d="M811.81,208.47h4.41v3.19h-4.41v5h-3.35v-5H804v-3.19h4.42V203.7h3.35Z" transform="translate(-5.95 -9.95)" fill="pink"/><path d="M199.71,349.45a4.18,4.18,0,0,1-.65,2.3,4.59,4.59,0,0,1-1.78,1.59,5.18,5.18,0,0,1,2.05,1.72,4.43,4.43,0,0,1,.76,2.57,4.67,4.67,0,0,1-1.61,3.74,7.7,7.7,0,0,1-8.78,0,4.64,4.64,0,0,1-1.62-3.73,4.48,4.48,0,0,1,.75-2.58,5.18,5.18,0,0,1,2-1.71,4.59,4.59,0,0,1-1.78-1.59,4.25,4.25,0,0,1-.64-2.3,4.62,4.62,0,0,1,1.52-3.62,7,7,0,0,1,8.22,0A4.59,4.59,0,0,1,199.71,349.45Zm-3.16,7.92a2.58,2.58,0,0,0-.67-1.85,2.69,2.69,0,0,0-3.61,0,2.58,2.58,0,0,0-.67,1.86,2.54,2.54,0,0,0,.66,1.83,2.38,2.38,0,0,0,1.83.7,2.41,2.41,0,0,0,1.8-.67A2.55,2.55,0,0,0,196.55,357.37Zm-.37-7.75a2.44,2.44,0,0,0-.55-1.67,2.25,2.25,0,0,0-3.09,0,2.43,2.43,0,0,0-.55,1.68,2.58,2.58,0,0,0,.55,1.71,1.94,1.94,0,0,0,1.55.65,1.92,1.92,0,0,0,1.55-.65A2.58,2.58,0,0,0,196.18,349.62Z" transform="translate(-5.95 -9.95)" fill="pink"/><path d="M212.9,355.81h2v2.84h-2v3.85h-3.52v-3.85h-7.29l-.16-2.22,7.41-11.7h3.56Zm-7.45,0h3.93v-6.27l-.24.4Z" transform="translate(-5.95 -9.95)" fill="pink"/><path d="M216.76,348.14a3.53,3.53,0,0,1,1.06-2.65,4.36,4.36,0,0,1,5.59,0,3.57,3.57,0,0,1,1.07,2.72v.88a3.46,3.46,0,0,1-1.07,2.65,3.86,3.86,0,0,1-2.78,1,3.92,3.92,0,0,1-2.8-1,3.58,3.58,0,0,1-1.07-2.72Zm2.35.94a1.65,1.65,0,0,0,.42,1.18,1.44,1.44,0,0,0,1.1.45,1.36,1.36,0,0,0,1.09-.46,1.72,1.72,0,0,0,.4-1.2v-.91a1.71,1.71,0,0,0-.4-1.18,1.42,1.42,0,0,0-1.11-.45,1.45,1.45,0,0,0-1.09.44,1.74,1.74,0,0,0-.41,1.24Zm2.22,12.09-1.72-.93,8.68-13.89,1.72.93Zm3.93-3a3.47,3.47,0,0,1,1.07-2.65,3.89,3.89,0,0,1,2.79-1,4,4,0,0,1,2.8,1,3.58,3.58,0,0,1,1.06,2.74v.88a3.56,3.56,0,0,1-1,2.65,4.43,4.43,0,0,1-5.62,0,3.54,3.54,0,0,1-1.06-2.69Zm2.34.95a1.65,1.65,0,0,0,.44,1.15,1.43,1.43,0,0,0,1.1.48c1,0,1.49-.55,1.49-1.65v-.93a1.65,1.65,0,0,0-.42-1.18,1.58,1.58,0,0,0-2.19,0,1.72,1.72,0,0,0-.42,1.22Z" transform="translate(-5.95 -9.95)" fill="pink"/><path d="M354,356.19a4.48,4.48,0,0,1-3.23,1.35,4.77,4.77,0,0,1-3.77-1.62,6.4,6.4,0,0,1-1.41-4.36,6.84,6.84,0,0,1,.76-3.21,5.69,5.69,0,0,1,2.13-2.27,5.93,5.93,0,0,1,3.08-.81,5.69,5.69,0,0,1,3.12.88,5.86,5.86,0,0,1,2.13,2.53,9,9,0,0,1,.76,3.77v1.31a10.24,10.24,0,0,1-2.21,7,8.38,8.38,0,0,1-6.26,2.71h-.86v-2.94H349C352.1,360.37,353.77,358.93,354,356.19Zm-2.36-1.35a2.41,2.41,0,0,0,1.47-.44,3,3,0,0,0,.94-1.06v-1.45a4.78,4.78,0,0,0-.69-2.78,2.11,2.11,0,0,0-1.83-1,2,2,0,0,0-1.74,1,4.08,4.08,0,0,0-.69,2.43,4,4,0,0,0,.67,2.39A2.17,2.17,0,0,0,351.66,354.84Z" transform="translate(-5.95 -9.95)" fill="pink"/><path d="M372.19,347.49l-6.87,15.8H361.6l6.88-14.93h-8.83v-2.84h12.54Z" transform="translate(-5.95 -9.95)" fill="pink"/><path d="M374.4,348.93a3.5,3.5,0,0,1,1.07-2.65,3.83,3.83,0,0,1,2.78-1,3.94,3.94,0,0,1,2.81,1,3.61,3.61,0,0,1,1.06,2.73v.87a3.49,3.49,0,0,1-1.06,2.65,4.41,4.41,0,0,1-5.59,0,3.57,3.57,0,0,1-1.07-2.72Zm2.35.94a1.64,1.64,0,0,0,.42,1.18,1.44,1.44,0,0,0,1.1.45,1.39,1.39,0,0,0,1.09-.45,1.75,1.75,0,0,0,.4-1.21v-.91a1.71,1.71,0,0,0-.4-1.18,1.42,1.42,0,0,0-1.11-.45,1.45,1.45,0,0,0-1.09.44,1.78,1.78,0,0,0-.41,1.24ZM379,362l-1.72-.93,8.68-13.89,1.72.93Zm3.93-3a3.47,3.47,0,0,1,1.07-2.65,4.41,4.41,0,0,1,5.59,0,3.58,3.58,0,0,1,1.07,2.74v.88a3.51,3.51,0,0,1-1.05,2.65,4.43,4.43,0,0,1-5.62,0,3.53,3.53,0,0,1-1.06-2.69Zm2.34.95a1.65,1.65,0,0,0,.44,1.15,1.44,1.44,0,0,0,1.1.48c1,0,1.49-.55,1.49-1.65v-.93a1.69,1.69,0,0,0-.41-1.18,1.47,1.47,0,0,0-1.1-.44,1.44,1.44,0,0,0-1.1.44,1.72,1.72,0,0,0-.42,1.22Z" transform="translate(-5.95 -9.95)" fill="pink"/><path d="M516.92,354.6A4.43,4.43,0,0,1,513.7,356a4.75,4.75,0,0,1-3.77-1.62,6.41,6.41,0,0,1-1.42-4.36,6.82,6.82,0,0,1,.77-3.21,5.62,5.62,0,0,1,2.13-2.27,5.89,5.89,0,0,1,3.07-.81,5.64,5.64,0,0,1,3.13.88,5.77,5.77,0,0,1,2.12,2.53,9,9,0,0,1,.77,3.77v1.3a10.32,10.32,0,0,1-2.21,7,8.38,8.38,0,0,1-6.26,2.71h-.87v-2.94l.78,0Q516.54,358.73,516.92,354.6Zm-2.35-1.34a2.48,2.48,0,0,0,1.47-.44,2.93,2.93,0,0,0,.93-1.06v-1.45a4.84,4.84,0,0,0-.68-2.79,2.13,2.13,0,0,0-1.83-1,2.09,2.09,0,0,0-1.75,1,4.18,4.18,0,0,0-.68,2.44,4.06,4.06,0,0,0,.66,2.39A2.18,2.18,0,0,0,514.57,353.26Z" transform="translate(-5.95 -9.95)" fill="pink"/><path d="M531.27,354.6A4.45,4.45,0,0,1,528,356a4.77,4.77,0,0,1-3.77-1.62,6.4,6.4,0,0,1-1.41-4.36,6.82,6.82,0,0,1,.76-3.21,5.62,5.62,0,0,1,2.13-2.27,5.93,5.93,0,0,1,3.08-.81,5.6,5.6,0,0,1,3.12.88,5.86,5.86,0,0,1,2.13,2.53,9,9,0,0,1,.76,3.77v1.3a10.27,10.27,0,0,1-2.21,7,8.38,8.38,0,0,1-6.26,2.71h-.86v-2.94l.78,0Q530.88,358.73,531.27,354.6Zm-2.36-1.34a2.48,2.48,0,0,0,1.47-.44,3.06,3.06,0,0,0,.94-1.06v-1.45a4.83,4.83,0,0,0-.69-2.79,2.11,2.11,0,0,0-1.83-1,2.06,2.06,0,0,0-1.74,1,4.11,4.11,0,0,0-.69,2.44,4,4,0,0,0,.67,2.39A2.17,2.17,0,0,0,528.91,353.26Z" transform="translate(-5.95 -9.95)" fill="pink"/><path d="M537.31,347.35a3.5,3.5,0,0,1,1.06-2.65,4.36,4.36,0,0,1,5.59,0,3.56,3.56,0,0,1,1.06,2.72v.88a3.47,3.47,0,0,1-1.06,2.65,4.39,4.39,0,0,1-5.58,0,3.58,3.58,0,0,1-1.07-2.72Zm2.34.94a1.62,1.62,0,0,0,.43,1.18,1.42,1.42,0,0,0,1.1.45,1.38,1.38,0,0,0,1.09-.46,1.77,1.77,0,0,0,.4-1.2v-.91a1.74,1.74,0,0,0-.4-1.18,1.58,1.58,0,0,0-2.2,0,1.74,1.74,0,0,0-.42,1.24Zm2.23,12.09-1.73-.93,8.68-13.89,1.72.93Zm3.93-3a3.44,3.44,0,0,1,1.07-2.65,3.87,3.87,0,0,1,2.78-1,3.94,3.94,0,0,1,2.8,1,3.55,3.55,0,0,1,1.07,2.74v.88a3.52,3.52,0,0,1-1,2.65,3.86,3.86,0,0,1-2.79,1,3.94,3.94,0,0,1-2.82-1,3.54,3.54,0,0,1-1.06-2.69Zm2.34.95a1.65,1.65,0,0,0,.44,1.15,1.43,1.43,0,0,0,1.1.48c1,0,1.49-.55,1.49-1.65v-.93a1.65,1.65,0,0,0-.42-1.18,1.44,1.44,0,0,0-1.1-.44,1.47,1.47,0,0,0-1.1.44,1.75,1.75,0,0,0-.41,1.22Z" transform="translate(-5.95 -9.95)" fill="pink"/><path d="M658.92,353.81a4.43,4.43,0,0,1-3.22,1.36,4.75,4.75,0,0,1-3.77-1.62,6.41,6.41,0,0,1-1.42-4.36,6.79,6.79,0,0,1,.77-3.21,5.62,5.62,0,0,1,2.13-2.27,5.89,5.89,0,0,1,3.07-.81,5.64,5.64,0,0,1,3.13.88,5.72,5.72,0,0,1,2.12,2.53,9,9,0,0,1,.77,3.77v1.3a10.32,10.32,0,0,1-2.21,7,8.38,8.38,0,0,1-6.26,2.71h-.87v-2.94l.78,0C657,358,658.67,356.55,658.92,353.81Zm-2.35-1.34A2.48,2.48,0,0,0,658,352,2.93,2.93,0,0,0,659,351v-1.45a4.84,4.84,0,0,0-.68-2.79,2.13,2.13,0,0,0-1.83-1,2.09,2.09,0,0,0-1.75,1,4.18,4.18,0,0,0-.68,2.44,4.06,4.06,0,0,0,.66,2.39A2.18,2.18,0,0,0,656.57,352.47Z" transform="translate(-5.95 -9.95)" fill="pink"/><path d="M673.27,353.81a4.45,4.45,0,0,1-3.23,1.36,4.77,4.77,0,0,1-3.77-1.62,6.4,6.4,0,0,1-1.41-4.36,6.79,6.79,0,0,1,.76-3.21,5.62,5.62,0,0,1,2.13-2.27,5.93,5.93,0,0,1,3.08-.81,5.6,5.6,0,0,1,3.12.88,5.8,5.8,0,0,1,2.13,2.53,9,9,0,0,1,.76,3.77v1.3a10.27,10.27,0,0,1-2.21,7,8.38,8.38,0,0,1-6.26,2.71h-.86v-2.94l.78,0C671.35,358,673,356.55,673.27,353.81Zm-2.36-1.34a2.48,2.48,0,0,0,1.47-.44,3.06,3.06,0,0,0,.94-1.06v-1.45a4.83,4.83,0,0,0-.69-2.79,2.11,2.11,0,0,0-1.83-1,2.06,2.06,0,0,0-1.74,1,4.11,4.11,0,0,0-.69,2.44,4,4,0,0,0,.67,2.39A2.17,2.17,0,0,0,670.91,352.47Z" transform="translate(-5.95 -9.95)" fill="pink"/><path d="M679.69,359.18a1.76,1.76,0,0,1,.57-1.36,2,2,0,0,1,1.42-.53,2,2,0,0,1,1.43.53,1.91,1.91,0,0,1,0,2.71,2,2,0,0,1-1.44.52,2,2,0,0,1-1.43-.52A1.75,1.75,0,0,1,679.69,359.18Z" transform="translate(-5.95 -9.95)" fill="pink"/><path d="M694.87,353.81a4.43,4.43,0,0,1-3.22,1.36,4.75,4.75,0,0,1-3.77-1.62,6.36,6.36,0,0,1-1.42-4.36,6.79,6.79,0,0,1,.77-3.21,5.49,5.49,0,0,1,2.13-2.27,5.89,5.89,0,0,1,3.07-.81,5.64,5.64,0,0,1,3.13.88,5.72,5.72,0,0,1,2.12,2.53,9,9,0,0,1,.77,3.77v1.3a10.32,10.32,0,0,1-2.21,7,8.38,8.38,0,0,1-6.26,2.71h-.87v-2.94l.78,0C693,358,694.62,356.55,694.87,353.81Zm-2.35-1.34A2.48,2.48,0,0,0,694,352a2.93,2.93,0,0,0,.93-1.06v-1.45a4.92,4.92,0,0,0-.68-2.79,2.13,2.13,0,0,0-1.83-1,2.09,2.09,0,0,0-1.75,1,4.18,4.18,0,0,0-.68,2.44,4.06,4.06,0,0,0,.66,2.39A2.18,2.18,0,0,0,692.52,352.47Z" transform="translate(-5.95 -9.95)" fill="pink"/><path d="M700.92,346.56a3.5,3.5,0,0,1,1.06-2.65,3.84,3.84,0,0,1,2.78-1,3.93,3.93,0,0,1,2.81,1,3.6,3.6,0,0,1,1.06,2.73v.88a3.47,3.47,0,0,1-1.06,2.65,4.39,4.39,0,0,1-5.59,0,3.54,3.54,0,0,1-1.06-2.71Zm2.34.94a1.65,1.65,0,0,0,.42,1.18,1.45,1.45,0,0,0,1.11.45,1.39,1.39,0,0,0,1.08-.46,1.74,1.74,0,0,0,.41-1.21v-.9a1.69,1.69,0,0,0-.41-1.18,1.58,1.58,0,0,0-2.2,0,1.78,1.78,0,0,0-.41,1.24Zm2.22,12.09-1.72-.93,8.68-13.89,1.72.92Zm3.93-3a3.48,3.48,0,0,1,1.08-2.66,3.89,3.89,0,0,1,2.78-1,4,4,0,0,1,2.8,1,3.58,3.58,0,0,1,1.07,2.74v.88a3.49,3.49,0,0,1-1,2.64,3.84,3.84,0,0,1-2.8,1,3.94,3.94,0,0,1-2.82-1,3.58,3.58,0,0,1-1.06-2.69Zm2.35.95a1.61,1.61,0,0,0,.44,1.15,1.4,1.4,0,0,0,1.09.47c1,0,1.49-.55,1.49-1.64v-.93a1.69,1.69,0,0,0-.41-1.18,1.59,1.59,0,0,0-2.2,0,1.7,1.7,0,0,0-.41,1.22Z" transform="translate(-5.95 -9.95)" fill="pink"/><path d="M32,325.32H27.68v11.85H24.75V325.32h-4.3V323H32Z" transform="translate(-5.95 -9.95)" fill="pink"/><path d="M45.11,330.38a8.63,8.63,0,0,1-.74,3.68,5.59,5.59,0,0,1-2.13,2.44,6.27,6.27,0,0,1-6.32,0,5.58,5.58,0,0,1-2.15-2.42,8.24,8.24,0,0,1-.77-3.63v-.71a8.45,8.45,0,0,1,.76-3.69,5.56,5.56,0,0,1,2.13-2.45,6.24,6.24,0,0,1,6.32,0,5.58,5.58,0,0,1,2.14,2.45,8.42,8.42,0,0,1,.76,3.69Zm-3-.64a6,6,0,0,0-.8-3.4,2.82,2.82,0,0,0-4.56,0,5.84,5.84,0,0,0-.81,3.37v.69a6,6,0,0,0,.8,3.38,2.8,2.8,0,0,0,4.57,0,6,6,0,0,0,.8-3.37Z" transform="translate(-5.95 -9.95)" fill="pink"/><path d="M51.69,331.46l-1.52,1.64v4.07H47.24V323h2.93v6.44l1.29-1.76L55.08,323h3.6l-5,6.32,5.2,7.9H55.34Z" transform="translate(-5.95 -9.95)" fill="pink"/><path d="M68.49,331H62.86v3.81h6.6v2.36H59.93V323h9.51v2.37H62.86v3.39h5.63Z" transform="translate(-5.95 -9.95)" fill="pink"/><path d="M82.74,337.17H79.81l-5.7-9.36v9.36H71.18V323h2.93l5.71,9.37V323h2.92Z" transform="translate(-5.95 -9.95)" fill="pink"/><path d="M92.68,333.44a1.52,1.52,0,0,0-.59-1.28,7.84,7.84,0,0,0-2.11-.94,14.19,14.19,0,0,1-2.41-1,3.92,3.92,0,0,1-2.42-3.52,3.39,3.39,0,0,1,.65-2.06,4.23,4.23,0,0,1,1.86-1.41,7,7,0,0,1,2.73-.51,6.54,6.54,0,0,1,2.72.55A4.37,4.37,0,0,1,95,324.86a4.07,4.07,0,0,1,.66,2.29H92.69a1.92,1.92,0,0,0-.62-1.52,2.54,2.54,0,0,0-1.73-.54,2.74,2.74,0,0,0-1.67.45,1.44,1.44,0,0,0-.59,1.2,1.37,1.37,0,0,0,.69,1.16,8.41,8.41,0,0,0,2.06.88,8.85,8.85,0,0,1,3.64,1.86,3.75,3.75,0,0,1,1.15,2.78,3.42,3.42,0,0,1-1.4,2.89,6.1,6.1,0,0,1-3.76,1.05,7.29,7.29,0,0,1-3-.6,4.72,4.72,0,0,1-2-1.64,4.19,4.19,0,0,1-.71-2.43h2.94c0,1.57.93,2.36,2.81,2.36a2.68,2.68,0,0,0,1.63-.43A1.38,1.38,0,0,0,92.68,333.44Z" transform="translate(-5.95 -9.95)" fill="pink"/><path d="M21.33,361.17V347H25.7a6.7,6.7,0,0,1,3.36.84,6,6,0,0,1,2.31,2.41,7.4,7.4,0,0,1,.83,3.54v.65a7.39,7.39,0,0,1-.82,3.53,5.88,5.88,0,0,1-2.3,2.39,6.78,6.78,0,0,1-3.35.86Zm2.93-11.85v9.49h1.41a3.17,3.17,0,0,0,2.63-1.12,5,5,0,0,0,.93-3.21v-.75a5.14,5.14,0,0,0-.9-3.29,3.16,3.16,0,0,0-2.63-1.12Z" transform="translate(-5.95 -9.95)" fill="pink"/><path d="M37.44,361.17H34.51V347h2.93Z" transform="translate(-5.95 -9.95)" fill="pink"/><path d="M47.53,357.44a1.52,1.52,0,0,0-.59-1.28,7.84,7.84,0,0,0-2.11-.94,14.19,14.19,0,0,1-2.41-1A3.93,3.93,0,0,1,40,350.73a3.46,3.46,0,0,1,.65-2.06,4.21,4.21,0,0,1,1.87-1.41,7,7,0,0,1,2.72-.51,6.51,6.51,0,0,1,2.72.55,4.37,4.37,0,0,1,1.85,1.56,4.07,4.07,0,0,1,.66,2.29H47.54a1.92,1.92,0,0,0-.62-1.52,2.52,2.52,0,0,0-1.72-.54,2.7,2.7,0,0,0-1.67.45,1.43,1.43,0,0,0-.6,1.2,1.36,1.36,0,0,0,.7,1.16,8.14,8.14,0,0,0,2,.88,9,9,0,0,1,3.65,1.86,3.74,3.74,0,0,1,1.14,2.78,3.42,3.42,0,0,1-1.4,2.89,6.1,6.1,0,0,1-3.76,1.05,7.29,7.29,0,0,1-3-.6,4.78,4.78,0,0,1-2-1.64,4.26,4.26,0,0,1-.71-2.43H42.5c0,1.57.94,2.36,2.81,2.36a2.68,2.68,0,0,0,1.63-.43A1.38,1.38,0,0,0,47.53,357.44Z" transform="translate(-5.95 -9.95)" fill="pink"/><path d="M63.15,349.32H58.8v11.85H55.87V349.32h-4.3V347H63.15Z" transform="translate(-5.95 -9.95)" fill="pink"/><path d="M70.09,356H67.75v5.21H64.82V347h5.29A5.94,5.94,0,0,1,74,348.07a3.86,3.86,0,0,1,1.37,3.18,4.38,4.38,0,0,1-.63,2.42,4.22,4.22,0,0,1-1.91,1.55L75.9,361v.14H72.75Zm-2.34-2.37h2.37a2.46,2.46,0,0,0,1.71-.56,2,2,0,0,0,.6-1.55,2.14,2.14,0,0,0-.57-1.58,2.34,2.34,0,0,0-1.75-.58H67.75Z" transform="translate(-5.95 -9.95)" fill="pink"/><path d="M80.7,361.17H77.77V347H80.7Z" transform="translate(-5.95 -9.95)" fill="pink"/><path d="M83.42,361.17V347h5a6.53,6.53,0,0,1,3.92,1,3.37,3.37,0,0,1,1.34,2.9,3.29,3.29,0,0,1-.53,1.85,3.07,3.07,0,0,1-1.5,1.16A3,3,0,0,1,93.35,355a3.25,3.25,0,0,1,.63,2,3.75,3.75,0,0,1-1.3,3.1A5.91,5.91,0,0,1,89,361.17Zm2.93-8.26h2.17c1.47,0,2.21-.62,2.21-1.77a1.6,1.6,0,0,0-.56-1.39,2.88,2.88,0,0,0-1.77-.43H86.35Zm0,2.07v3.83h2.51a2.38,2.38,0,0,0,1.61-.49,1.69,1.69,0,0,0,.59-1.36,1.79,1.79,0,0,0-2-2Z" transform="translate(-5.95 -9.95)" fill="pink"/><path d="M106.94,347v9.36a4.76,4.76,0,0,1-1.46,3.69,5.6,5.6,0,0,1-4,1.36A5.68,5.68,0,0,1,97.54,360a4.64,4.64,0,0,1-1.49-3.62V347H99v9.38a2.75,2.75,0,0,0,.66,2,2.57,2.57,0,0,0,1.85.64c1.65,0,2.49-.87,2.51-2.6V347Z" transform="translate(-5.95 -9.95)" fill="pink"/><path d="M120.05,349.32h-4.36v11.85h-2.93V349.32h-4.29V347h11.58Z" transform="translate(-5.95 -9.95)" fill="pink"/><path d="M130.27,355h-5.62v3.81h6.6v2.36h-9.53V347h9.51v2.37h-6.58v3.39h5.62Z" transform="translate(-5.95 -9.95)" fill="pink"/><path d="M133,361.17V347h4.37a6.7,6.7,0,0,1,3.36.84A5.9,5.9,0,0,1,143,350.2a7.4,7.4,0,0,1,.83,3.54v.65a7.39,7.39,0,0,1-.82,3.53,5.88,5.88,0,0,1-2.3,2.39,6.78,6.78,0,0,1-3.35.86Zm2.93-11.85v9.49h1.41a3.17,3.17,0,0,0,2.63-1.12,5,5,0,0,0,.93-3.21v-.75a5.14,5.14,0,0,0-.9-3.29,3.16,3.16,0,0,0-2.63-1.12Z" transform="translate(-5.95 -9.95)" fill="pink"/><path d="M26.25,75.92h6.22v2.35H23.32V64.05h2.93Z" transform="translate(-5.95 -9.95)" fill="pink"/><path d="M42.37,75.34H37.23l-1,2.93H33.14l5.29-14.22h2.72l5.32,14.22H43.35ZM38,73h3.56l-1.79-5.32Z" transform="translate(-5.95 -9.95)" fill="pink"/><path d="M58.39,64.05v9.37a4.78,4.78,0,0,1-1.46,3.69,5.64,5.64,0,0,1-4,1.36A5.66,5.66,0,0,1,49,77.15a4.72,4.72,0,0,1-1.5-3.63V64.05h2.93v9.39a2.71,2.71,0,0,0,.67,2,2.57,2.57,0,0,0,1.85.64c1.65,0,2.49-.86,2.51-2.6V64.05Z" transform="translate(-5.95 -9.95)" fill="pink"/><path d="M72.36,78.27H69.43l-5.71-9.35v9.35H60.79V64.05h2.93l5.72,9.38V64.05h2.92Z" transform="translate(-5.95 -9.95)" fill="pink"/><path d="M86.08,73.53a5,5,0,0,1-1.7,3.62,6,6,0,0,1-4,1.32,5.38,5.38,0,0,1-4.3-1.84,7.6,7.6,0,0,1-1.56-5.06V70.7a8.52,8.52,0,0,1,.72-3.61,5.46,5.46,0,0,1,2.06-2.4,5.78,5.78,0,0,1,3.12-.83,5.85,5.85,0,0,1,4,1.31,5.46,5.46,0,0,1,1.74,3.71H83.17a3,3,0,0,0-.77-2,2.86,2.86,0,0,0-2-.62,2.5,2.5,0,0,0-2.19,1,6,6,0,0,0-.75,3.26v1.07a6.34,6.34,0,0,0,.7,3.37,2.44,2.44,0,0,0,2.2,1.06,2.85,2.85,0,0,0,2-.62,2.79,2.79,0,0,0,.77-1.92Z" transform="translate(-5.95 -9.95)" fill="pink"/><path d="M99.57,78.27H96.64V72.18H90.93v6.09H88V64.05h2.93v5.76h5.71V64.05h2.93Z" transform="translate(-5.95 -9.95)" fill="pink"/><path d="M118.79,71.48a8.71,8.71,0,0,1-.74,3.69,5.62,5.62,0,0,1-2.12,2.44,5.93,5.93,0,0,1-3.17.86,6,6,0,0,1-3.16-.85,5.73,5.73,0,0,1-2.15-2.43,8.5,8.5,0,0,1-.77-3.63v-.7a8.64,8.64,0,0,1,.76-3.7,5.64,5.64,0,0,1,2.14-2.45,6.3,6.3,0,0,1,6.32,0A5.7,5.7,0,0,1,118,67.16a8.62,8.62,0,0,1,.75,3.69Zm-3-.64a5.93,5.93,0,0,0-.8-3.4,2.83,2.83,0,0,0-4.56,0,5.94,5.94,0,0,0-.81,3.36v.69a6.07,6.07,0,0,0,.8,3.38,2.61,2.61,0,0,0,2.31,1.2A2.56,2.56,0,0,0,115,74.91a6,6,0,0,0,.8-3.38Z" transform="translate(-5.95 -9.95)" fill="pink"/><path d="M129.48,72.46h-5.63v5.81h-2.93V64.05h9.26v2.37h-6.33V70.1h5.63Z" transform="translate(-5.95 -9.95)" fill="pink"/><path d="M26.25,97.26v5H23.32V88.05h5.55a6.43,6.43,0,0,1,2.82.59,4.32,4.32,0,0,1,1.87,1.66,4.71,4.71,0,0,1,.65,2.46,4.05,4.05,0,0,1-1.43,3.29,5.91,5.91,0,0,1-4,1.21Zm0-2.37h2.62a2.52,2.52,0,0,0,1.77-.55,2,2,0,0,0,.61-1.56,2.2,2.2,0,0,0-2.31-2.36H26.25Z" transform="translate(-5.95 -9.95)" fill="pink"/><path d="M47.9,95.48a8.56,8.56,0,0,1-.74,3.69A5.62,5.62,0,0,1,45,101.61a5.91,5.91,0,0,1-3.17.86,6,6,0,0,1-3.16-.85,5.64,5.64,0,0,1-2.14-2.43,8.35,8.35,0,0,1-.78-3.63v-.7a8.64,8.64,0,0,1,.76-3.7,5.7,5.7,0,0,1,2.14-2.45,6.3,6.3,0,0,1,6.32,0,5.7,5.7,0,0,1,2.14,2.45,8.62,8.62,0,0,1,.75,3.69Zm-3-.64a5.93,5.93,0,0,0-.81-3.4,2.83,2.83,0,0,0-4.56,0,5.94,5.94,0,0,0-.81,3.36v.69a6.07,6.07,0,0,0,.8,3.38,2.62,2.62,0,0,0,2.31,1.2,2.56,2.56,0,0,0,2.26-1.15,6.06,6.06,0,0,0,.81-3.38Z" transform="translate(-5.95 -9.95)" fill="pink"/><path d="M61.71,95.48A8.71,8.71,0,0,1,61,99.17a5.62,5.62,0,0,1-2.12,2.44,5.93,5.93,0,0,1-3.17.86,6,6,0,0,1-3.16-.85,5.73,5.73,0,0,1-2.15-2.43,8.5,8.5,0,0,1-.77-3.63v-.7a8.64,8.64,0,0,1,.76-3.7,5.64,5.64,0,0,1,2.14-2.45,6.3,6.3,0,0,1,6.32,0A5.7,5.7,0,0,1,61,91.16a8.62,8.62,0,0,1,.75,3.69Zm-3-.64a5.93,5.93,0,0,0-.8-3.4,2.83,2.83,0,0,0-4.56,0,5.94,5.94,0,0,0-.81,3.36v.69a6.07,6.07,0,0,0,.8,3.38,2.61,2.61,0,0,0,2.31,1.2,2.56,2.56,0,0,0,2.26-1.15,6,6,0,0,0,.8-3.38Z" transform="translate(-5.95 -9.95)" fill="pink"/><path d="M66.77,99.92H73v2.35H63.84V88.05h2.93Z" transform="translate(-5.95 -9.95)" fill="pink"/><path d="M88.92,96.39a7.21,7.21,0,0,1-1.22,4.51,4.86,4.86,0,0,1-7.13,0,7,7,0,0,1-1.26-4.39V93.92a7.08,7.08,0,0,1,1.24-4.52,4.28,4.28,0,0,1,3.55-1.54,4.33,4.33,0,0,1,3.56,1.52,7,7,0,0,1,1.26,4.39ZM86.1,93.51a5.09,5.09,0,0,0-.49-2.57,1.62,1.62,0,0,0-1.51-.81,1.59,1.59,0,0,0-1.46.77,4.81,4.81,0,0,0-.51,2.4v3.46a5.37,5.37,0,0,0,.48,2.58,1.78,1.78,0,0,0,3,0,5.5,5.5,0,0,0,.48-2.48Z" transform="translate(-5.95 -9.95)" fill="pink"/><path d="M104.13,99.34H99l-1,2.93H94.91l5.29-14.22h2.71l5.33,14.22h-3.12ZM99.79,97h3.55l-1.78-5.32Z" transform="translate(-5.95 -9.95)" fill="pink"/><path d="M121.13,102.27H118.2l-5.71-9.35v9.35h-2.93V88.05h2.93l5.72,9.38V88.05h2.92Z" transform="translate(-5.95 -9.95)" fill="pink"/><path d="M123.69,102.27V88.05h4.37a6.55,6.55,0,0,1,3.35.85,5.81,5.81,0,0,1,2.31,2.4,7.34,7.34,0,0,1,.83,3.54v.65a7.5,7.5,0,0,1-.81,3.53,5.82,5.82,0,0,1-2.3,2.39,6.71,6.71,0,0,1-3.35.86Zm2.92-11.85v9.5H128a3.19,3.19,0,0,0,2.63-1.13,5.15,5.15,0,0,0,.93-3.21v-.75a5.16,5.16,0,0,0-.9-3.29,3.2,3.2,0,0,0-2.63-1.12Z" transform="translate(-5.95 -9.95)" fill="pink"/><path d="M144.59,97.26v5h-2.93V88.05h5.55a6.43,6.43,0,0,1,2.82.59,4.32,4.32,0,0,1,1.87,1.66,4.71,4.71,0,0,1,.65,2.46,4.05,4.05,0,0,1-1.43,3.29,5.91,5.91,0,0,1-4,1.21Zm0-2.37h2.62a2.52,2.52,0,0,0,1.77-.55,2,2,0,0,0,.61-1.56,2.2,2.2,0,0,0-2.31-2.36h-2.69Z" transform="translate(-5.95 -9.95)" fill="pink"/><path d="M166.24,95.48a8.56,8.56,0,0,1-.74,3.69,5.62,5.62,0,0,1-2.12,2.44,5.91,5.91,0,0,1-3.17.86,6,6,0,0,1-3.16-.85,5.64,5.64,0,0,1-2.14-2.43,8.35,8.35,0,0,1-.78-3.63v-.7a8.64,8.64,0,0,1,.76-3.7A5.7,5.7,0,0,1,157,88.71a6.3,6.3,0,0,1,6.32,0,5.7,5.7,0,0,1,2.14,2.45,8.62,8.62,0,0,1,.75,3.69Zm-3-.64a5.93,5.93,0,0,0-.8-3.4,2.83,2.83,0,0,0-4.56,0,5.94,5.94,0,0,0-.81,3.36v.69a6.07,6.07,0,0,0,.8,3.38,2.62,2.62,0,0,0,2.31,1.2,2.56,2.56,0,0,0,2.26-1.15,6,6,0,0,0,.8-3.38Z" transform="translate(-5.95 -9.95)" fill="pink"/><path d="M180.05,95.48a8.71,8.71,0,0,1-.74,3.69,5.62,5.62,0,0,1-2.12,2.44,5.93,5.93,0,0,1-3.17.86,6,6,0,0,1-3.16-.85,5.73,5.73,0,0,1-2.15-2.43,8.5,8.5,0,0,1-.77-3.63v-.7a8.64,8.64,0,0,1,.76-3.7,5.64,5.64,0,0,1,2.14-2.45,6.3,6.3,0,0,1,6.32,0,5.7,5.7,0,0,1,2.14,2.45,8.62,8.62,0,0,1,.75,3.69Zm-3-.64a5.93,5.93,0,0,0-.8-3.4,2.83,2.83,0,0,0-4.56,0,5.94,5.94,0,0,0-.81,3.36v.69a6.07,6.07,0,0,0,.8,3.38,2.61,2.61,0,0,0,2.31,1.2,2.56,2.56,0,0,0,2.26-1.15,6,6,0,0,0,.8-3.38Z" transform="translate(-5.95 -9.95)" fill="pink"/><path d="M185.11,99.92h6.22v2.35h-9.15V88.05h2.93Z" transform="translate(-5.95 -9.95)" fill="pink"/><path d="M204.54,102.27h-2.82V91.39l-3.37,1v-2.3L204.24,88h.3Z" transform="translate(-5.95 -9.95)" fill="pink"/><line x1="675.3" y1="29.64" x2="675.3" y2="102.64" fill="none" stroke="pink" stroke-miterlimit="10" stroke-width="10"/><path d="M695.38,111.26c-.07,1.83-.1,4.39,0,8.26.06,1.79-.67,2.21-3.81,2.81-1.35.26-.63,1.3-1.05,2.78s-3.73,1.58-3.73,1.58c-.72,0-.73.4-.63.63,2.22,5.24-1.14,10.78-.56,10.9,2.64,1,2.44,3.6,1.75,3.94,1.2-.07,2.18,1.75,1.9,2.32-1.07,2-1.84,2.05-2.33,3.46-1.11,2.56-2.31,2-2.45,4.48-.09,1.79-.4,2.39-.77,2.81-1.83,1.86-4.25.25-5.07-.88-1.89.42-4.2-2.32-5.79-2.95a13.52,13.52,0,0,1-.88,4.11c-.36,1,.17.79,0,2.6a12.17,12.17,0,0,1-.82,4.15c-.21.45-.16,2.82-.58,4a3.52,3.52,0,0,1-4.42,3.2c-.13,0-.13-.07-.13-.8.07-1-.45-2.75-.22-4.19a25.11,25.11,0,0,1,0-2.81c-.29-1.71.15-2.95-.55-4.94-.09-.3.19-.24.13-.9,0-.35-.32-.3-.19-1.34a40.41,40.41,0,0,0,0-4.14c0-1.44-.3-2.57-.6-6.08-.13-1.44-.78-2.57-.25-3.62.8-1.6,3.23-7.17,6.19-13.14.06-.13.36-.66-.42-1-1.25-.67-.88-1-.81-3.41-.07-1.68-1.36-.43-1.32-2.28.06-2.85.3-4,.21-8.12,0-1.69-.1-2.15,1.1-2.18h25.29C695,110.56,695.38,110.73,695.38,111.26Z" transform="translate(-5.95 -9.95)" fill="pink"/><path d="M666.88,168.66c1.11.1.84-2,.67-2.8-.09-.49-.88-.86-1-.36l.28,3.05A.14.14,0,0,0,666.88,168.66Z" transform="translate(-5.95 -9.95)" fill="#fff"/><path d="M679.92,152.18c.18-1.19.68-1.08.59-1.73-.12-.84-.44-.09-.37-3a3,3,0,0,1,.3-1.86c-.23-.28-.55-.95-.14-1.4-.22-1.06-.34-.69.06-2.47.55-2.4-.43-2.88-1-4a1.49,1.49,0,0,1-.16-1.08c.54-4.43.53-2.51.15-8.65-.4-2.13-1.55-2.95-4.43-2.86-3.26.17-2.81.87-3.58,2.67-3.24,7.27-6,12.16-5.87,14.05.07,5.38,1,4.4.84,11.5-.28,2.25.87,2.18.74,3-.35.64-.69.11-.49,2.29.4,4.41-.35,5.29.35,5.69.93.54,1.52.53,1.28,3.39,0,.24,0,.31-.05.45-.08.35.13.37.38,0a8.58,8.58,0,0,0,.92-5.35c-.25-1.54.35-.74.35-3.3-.07-1.12-.07-1.83-.14-2.18a9.49,9.49,0,0,0,.28-4c-.21-.86-.49-1.26-.07-2a8.41,8.41,0,0,0,.7-5c-.35-3-.92-2.8-.7-3.1.52-.68,1.49.72,2.6-.74.58-.74-1.72-1.54-1.68-2.28.05-.44.46-.53.94-.32.24.1,1.54,1,2.08.25.88-1.2-1.76-3.34-.67-5,.3-.39.72,0,.67.49a4.58,4.58,0,0,0,1.16,2.7,17.16,17.16,0,0,1,2,3.63c1.13,2.74.28,3.65,1,4.14.53.42-.26,1.28-.42,2.25-.3,1.84,1.22,6.07,2.15,5.66.3-.15.28-.44.21-.82A2.57,2.57,0,0,1,679.92,152.18Z" transform="translate(-5.95 -9.95)" fill="#fff"/><path d="M682.19,151.15c-.91.43-1,.47-1.22,1.36s.49,3,1.43,2.72c.3-.23.32-1.17.46-1.77S683.23,150.86,682.19,151.15Z" transform="translate(-5.95 -9.95)" fill="#fff"/><path d="M689.63,123.5c0,.9-.59,1-1.18,1.15-.84.21-4.36-.42-8.79-.49a60,60,0,0,0-8.08.28c-.59,0-1.33.53-1.37-.28-.14-2.63-.35-3.44,1.72-3.87,2.42-.49,11.84-.56,16.8.07C689.11,120.58,689.89,120.05,689.63,123.5Z" transform="translate(-5.95 -9.95)" fill="#fff"/><line x1="363.31" y1="29.64" x2="363.31" y2="102.64" fill="none" stroke="pink" stroke-miterlimit="10" stroke-width="10"/><path d="M383.39,111.26c-.07,1.83-.11,4.39,0,8.26.07,1.79-.67,2.21-3.8,2.81-1.36.26-.64,1.3-1.06,2.78s-3.72,1.58-3.72,1.58c-.73,0-.74.4-.64.63,2.22,5.24-1.14,10.78-.56,10.9,2.64,1,2.44,3.6,1.76,3.94,1.19-.07,2.18,1.75,1.9,2.32-1.08,2-1.85,2.05-2.34,3.46-1.11,2.56-2.31,2-2.44,4.48-.1,1.79-.4,2.39-.78,2.81-1.82,1.86-4.25.25-5.06-.88-1.9.42-4.21-2.32-5.79-2.95a14,14,0,0,1-.89,4.11c-.35,1,.17.79,0,2.6a12.09,12.09,0,0,1-.83,4.15c-.21.45-.16,2.82-.58,4a3.51,3.51,0,0,1-4.41,3.2c-.14,0-.14-.07-.14-.8.07-1-.44-2.75-.21-4.19a22.83,22.83,0,0,1,0-2.81c-.3-1.71.14-2.95-.56-4.94-.09-.3.2-.24.14-.9,0-.35-.32-.3-.2-1.34a37.74,37.74,0,0,0,0-4.14c0-1.44-.3-2.57-.6-6.08-.12-1.44-.78-2.57-.24-3.62.79-1.6,3.23-7.17,6.18-13.14.06-.13.36-.66-.42-1-1.25-.67-.88-1-.81-3.41-.06-1.68-1.36-.43-1.32-2.28.06-2.85.3-4,.22-8.12,0-1.69-.1-2.15,1.09-2.18h25.29C383,110.56,383.39,110.73,383.39,111.26Z" transform="translate(-5.95 -9.95)" fill="pink"/><path d="M354.88,168.66c1.12.1.84-2,.68-2.8-.1-.49-.88-.86-1.06-.36l.28,3.05S354.86,168.66,354.88,168.66Z" transform="translate(-5.95 -9.95)" fill="#fff"/><path d="M367.92,152.18c.18-1.19.68-1.08.59-1.73-.12-.84-.44-.09-.37-3a3.08,3.08,0,0,1,.3-1.86c-.23-.28-.54-.95-.14-1.4-.21-1.06-.34-.69.07-2.47.55-2.4-.44-2.88-1-4a1.45,1.45,0,0,1-.15-1.08c.53-4.43.52-2.51.15-8.65-.41-2.13-1.55-2.95-4.43-2.86-3.27.17-2.82.87-3.59,2.67-3.23,7.27-6,12.16-5.87,14.05.07,5.38,1.05,4.4.84,11.5-.28,2.25.88,2.18.74,3-.35.64-.69.11-.49,2.29.41,4.41-.35,5.29.35,5.69.94.54,1.52.53,1.28,3.39a3.52,3.52,0,0,1,0,.45c-.09.35.12.37.38,0a8.61,8.61,0,0,0,.91-5.35c-.24-1.54.36-.74.36-3.3-.08-1.12-.08-1.83-.15-2.18a9.51,9.51,0,0,0,.29-4c-.22-.86-.5-1.26-.08-2a8.39,8.39,0,0,0,.71-5c-.35-3-.92-2.8-.71-3.1.52-.68,1.49.72,2.61-.74.57-.74-1.73-1.54-1.69-2.28.06-.44.47-.53.95-.32.23.1,1.53,1,2.07.25.88-1.2-1.76-3.34-.66-5,.29-.39.72,0,.66.49a4.7,4.7,0,0,0,1.16,2.7,17.16,17.16,0,0,1,2,3.63c1.13,2.74.29,3.65,1,4.14.53.42-.27,1.28-.42,2.25-.3,1.84,1.21,6.07,2.14,5.66.31-.15.28-.44.22-.82A2.39,2.39,0,0,1,367.92,152.18Z" transform="translate(-5.95 -9.95)" fill="#fff"/><path d="M370.2,151.15c-.92.43-1,.47-1.23,1.36s.49,3,1.44,2.72c.29-.23.32-1.17.46-1.77S371.23,150.86,370.2,151.15Z" transform="translate(-5.95 -9.95)" fill="#fff"/><path d="M377.63,123.5c0,.9-.59,1-1.18,1.15-.84.21-4.35-.42-8.78-.49a60.2,60.2,0,0,0-8.09.28c-.59,0-1.32.53-1.37-.28-.14-2.63-.35-3.44,1.72-3.87,2.43-.49,11.84-.56,16.8.07C377.12,120.58,377.9,120.05,377.63,123.5Z" transform="translate(-5.95 -9.95)" fill="#fff"/><line x1="679.05" y1="34.05" x2="359.05" y2="34.05" fill="none" stroke="pink" stroke-miterlimit="10" stroke-width="10"/><path d="M433.91,19.63a5,5,0,0,1-1.69,3.61,6,6,0,0,1-4,1.32,5.37,5.37,0,0,1-4.3-1.84,7.53,7.53,0,0,1-1.57-5.06v-.87a8.55,8.55,0,0,1,.72-3.61,5.42,5.42,0,0,1,2.07-2.4,6.46,6.46,0,0,1,7.08.49,5.43,5.43,0,0,1,1.74,3.7H431a3,3,0,0,0-.77-2,2.83,2.83,0,0,0-2-.62A2.5,2.5,0,0,0,426,13.4a5.92,5.92,0,0,0-.74,3.26v1.07a6.25,6.25,0,0,0,.7,3.37,2.44,2.44,0,0,0,2.2,1.07,2.89,2.89,0,0,0,2-.62,2.79,2.79,0,0,0,.77-1.92Z" transform="translate(-5.95 -9.95)" fill="pink"/><path d="M447.51,17.58a8.52,8.52,0,0,1-.74,3.68,5.56,5.56,0,0,1-2.12,2.44,5.91,5.91,0,0,1-3.17.86,6,6,0,0,1-3.16-.85,5.64,5.64,0,0,1-2.14-2.43,8.35,8.35,0,0,1-.78-3.63V17a8.64,8.64,0,0,1,.76-3.7,5.7,5.7,0,0,1,2.14-2.45,6.3,6.3,0,0,1,6.32,0,5.7,5.7,0,0,1,2.14,2.45,8.62,8.62,0,0,1,.75,3.69Zm-3-.65a6,6,0,0,0-.81-3.4,2.83,2.83,0,0,0-4.56,0,5.94,5.94,0,0,0-.81,3.36v.7a6.06,6.06,0,0,0,.8,3.37,2.61,2.61,0,0,0,2.31,1.21A2.57,2.57,0,0,0,443.74,21a6,6,0,0,0,.81-3.38Z" transform="translate(-5.95 -9.95)" fill="pink"/><path d="M453.47,10.14l3.65,10.32,3.64-10.32h3.84V24.36h-2.94V20.48l.3-6.71-3.84,10.59h-2l-3.83-10.58.29,6.7v3.88h-2.93V10.14Z" transform="translate(-5.95 -9.95)" fill="pink"/><path d="M471,10.14l3.65,10.32,3.64-10.32h3.84V24.36h-2.94V20.48l.3-6.71-3.84,10.59h-2L469.8,13.78l.29,6.7v3.88h-2.93V10.14Z" transform="translate(-5.95 -9.95)" fill="pink"/><path d="M495.44,10.14v9.37A4.77,4.77,0,0,1,494,23.2a5.59,5.59,0,0,1-4,1.36,5.69,5.69,0,0,1-4-1.32,4.7,4.7,0,0,1-1.49-3.62V10.14h2.93v9.39a2.71,2.71,0,0,0,.66,2,2.58,2.58,0,0,0,1.86.64c1.64,0,2.48-.86,2.5-2.59V10.14Z" transform="translate(-5.95 -9.95)" fill="pink"/><path d="M509.41,24.36h-2.93L500.78,15v9.35h-2.93V10.14h2.93l5.71,9.38V10.14h2.92Z" transform="translate(-5.95 -9.95)" fill="pink"/><path d="M515.08,24.36h-2.93V10.14h2.93Z" transform="translate(-5.95 -9.95)" fill="pink"/><path d="M528.5,12.52h-4.35V24.36h-2.93V12.52h-4.3V10.14H528.5Z" transform="translate(-5.95 -9.95)" fill="pink"/><path d="M535.23,16.55l3-6.41h3.2l-4.67,9.07v5.15h-3V19.21l-4.67-9.07h3.21Z" transform="translate(-5.95 -9.95)" fill="pink"/><path d="M552.93,19.16H550.6v5.2h-2.93V10.14H553a6,6,0,0,1,3.89,1.13,3.87,3.87,0,0,1,1.37,3.17,4.39,4.39,0,0,1-.63,2.43,4.34,4.34,0,0,1-1.91,1.55l3.08,5.81v.13H555.6Zm-2.33-2.38H553a2.38,2.38,0,0,0,1.71-.56,2,2,0,0,0,.61-1.54,2.16,2.16,0,0,0-.57-1.59,2.4,2.4,0,0,0-1.76-.57H550.6Z" transform="translate(-5.95 -9.95)" fill="pink"/><path d="M569,18.2h-5.63V22H570v2.35h-9.54V10.14H570v2.38h-6.59v3.39H569Z" transform="translate(-5.95 -9.95)" fill="pink"/><path d="M571.68,24.36V10.14h5a6.46,6.46,0,0,1,3.92,1,3.38,3.38,0,0,1,1.34,2.9,3.19,3.19,0,0,1-.54,1.84,3.12,3.12,0,0,1-1.49,1.17,3,3,0,0,1,1.72,1.1,3.27,3.27,0,0,1,.63,2,3.76,3.76,0,0,1-1.31,3.11,5.87,5.87,0,0,1-3.73,1.07Zm2.93-8.26h2.17c1.48,0,2.22-.61,2.22-1.77a1.66,1.66,0,0,0-.56-1.39,3,3,0,0,0-1.77-.42h-2.06Zm0,2.07V22h2.51a2.43,2.43,0,0,0,1.62-.49,1.7,1.7,0,0,0,.58-1.37,1.78,1.78,0,0,0-2-2Z" transform="translate(-5.95 -9.95)" fill="pink"/><path d="M592.48,21.43h-5.14l-1,2.93h-3.11l5.29-14.22h2.71l5.33,14.22h-3.12Zm-4.35-2.37h3.55l-1.78-5.32Z" transform="translate(-5.95 -9.95)" fill="pink"/><path d="M605.28,20.63a1.5,1.5,0,0,0-.59-1.27,7.53,7.53,0,0,0-2.11-.94,15.08,15.08,0,0,1-2.41-1,4,4,0,0,1-2.42-3.53,3.36,3.36,0,0,1,.65-2.05,4.23,4.23,0,0,1,1.86-1.41A7,7,0,0,1,603,10a6.39,6.39,0,0,1,2.72.55,4.37,4.37,0,0,1,1.85,1.56,4.06,4.06,0,0,1,.66,2.28h-2.93a1.94,1.94,0,0,0-.62-1.52,2.53,2.53,0,0,0-1.73-.54,2.67,2.67,0,0,0-1.67.46,1.44,1.44,0,0,0-.59,1.19,1.38,1.38,0,0,0,.7,1.17,7.82,7.82,0,0,0,2,.87,9.09,9.09,0,0,1,3.65,1.87,3.72,3.72,0,0,1,1.14,2.77,3.44,3.44,0,0,1-1.4,2.9,6.1,6.1,0,0,1-3.76,1,7.29,7.29,0,0,1-3-.6A4.67,4.67,0,0,1,598,22.31a4.13,4.13,0,0,1-.71-2.42h2.94c0,1.57.94,2.35,2.81,2.35a2.75,2.75,0,0,0,1.63-.42A1.39,1.39,0,0,0,605.28,20.63Z" transform="translate(-5.95 -9.95)" fill="pink"/><path d="M618.75,18.2h-5.62V22h6.6v2.35H610.2V10.14h9.51v2.38h-6.58v3.39h5.62Z" transform="translate(-5.95 -9.95)" fill="pink"/><path d="M404.39,72.81h-2.33V78h-2.93V63.8h5.28a6,6,0,0,1,3.89,1.12,3.89,3.89,0,0,1,1.37,3.18,4.38,4.38,0,0,1-.63,2.42,4.28,4.28,0,0,1-1.91,1.55l3.07,5.81V78h-3.14Zm-2.33-2.37h2.36a2.43,2.43,0,0,0,1.71-.56,2,2,0,0,0,.61-1.55,2.14,2.14,0,0,0-.57-1.58,2.36,2.36,0,0,0-1.76-.58h-2.35Z" transform="translate(-5.95 -9.95)" fill="pink"/><path d="M420.45,71.85h-5.63v3.81h6.61V78h-9.54V63.8h9.52v2.37h-6.59v3.39h5.63Z" transform="translate(-5.95 -9.95)" fill="pink"/><path d="M423.14,78V63.8h5a6.55,6.55,0,0,1,3.93,1,3.39,3.39,0,0,1,1.34,2.9,3.22,3.22,0,0,1-.54,1.85,3,3,0,0,1-1.49,1.16,3,3,0,0,1,1.72,1.11,3.25,3.25,0,0,1,.63,2,3.75,3.75,0,0,1-1.31,3.1A5.88,5.88,0,0,1,428.67,78Zm2.93-8.26h2.17q2.22,0,2.22-1.77a1.63,1.63,0,0,0-.56-1.39,2.93,2.93,0,0,0-1.78-.43h-2.05Zm0,2.07v3.83h2.51a2.43,2.43,0,0,0,1.62-.49,1.68,1.68,0,0,0,.58-1.36,1.78,1.78,0,0,0-2-2Z" transform="translate(-5.95 -9.95)" fill="pink"/><path d="M443.94,75.09H438.8l-1,2.93h-3.11L440,63.8h2.71L448,78h-3.12Zm-4.35-2.38h3.55l-1.78-5.32Z" transform="translate(-5.95 -9.95)" fill="pink"/><path d="M456.74,74.29a1.52,1.52,0,0,0-.59-1.28,7.84,7.84,0,0,0-2.11-.94,14.19,14.19,0,0,1-2.41-1,3.93,3.93,0,0,1-2.42-3.52,3.39,3.39,0,0,1,.65-2.06,4.23,4.23,0,0,1,1.86-1.41,7,7,0,0,1,2.73-.51,6.54,6.54,0,0,1,2.72.55A4.37,4.37,0,0,1,459,65.71a4.09,4.09,0,0,1,.66,2.29h-2.93a1.92,1.92,0,0,0-.62-1.52,2.53,2.53,0,0,0-1.73-.54,2.74,2.74,0,0,0-1.67.45,1.44,1.44,0,0,0-.59,1.2,1.36,1.36,0,0,0,.7,1.16,8.14,8.14,0,0,0,2.05.88,8.85,8.85,0,0,1,3.64,1.86,3.71,3.71,0,0,1,1.15,2.78,3.42,3.42,0,0,1-1.4,2.89,6.1,6.1,0,0,1-3.76,1,7.29,7.29,0,0,1-3-.6,4.72,4.72,0,0,1-2-1.64,4.19,4.19,0,0,1-.71-2.43h2.94c0,1.57.94,2.36,2.81,2.36a2.68,2.68,0,0,0,1.63-.43A1.38,1.38,0,0,0,456.74,74.29Z" transform="translate(-5.95 -9.95)" fill="pink"/><path d="M470.21,71.85h-5.62v3.81h6.6V78h-9.53V63.8h9.51v2.37h-6.58v3.39h5.62Z" transform="translate(-5.95 -9.95)" fill="pink"/><path d="M485.92,75.09h-5.14l-1,2.93h-3.11L482,63.8h2.72L490,78H486.9Zm-4.35-2.38h3.56l-1.79-5.32Z" transform="translate(-5.95 -9.95)" fill="pink"/><path d="M495.85,74.49l3.22-10.69h3.26L497.38,78h-3.05L489.39,63.8h3.26Z" transform="translate(-5.95 -9.95)" fill="pink"/><path d="M511,75.09h-5.14l-1,2.93h-3.11L507,63.8h2.72L515.07,78H512Zm-4.35-2.38h3.55l-1.78-5.32Z" transform="translate(-5.95 -9.95)" fill="pink"/><path d="M519.51,78h-2.93V63.8h2.93Z" transform="translate(-5.95 -9.95)" fill="pink"/><path d="M525.16,75.66h6.22V78h-9.15V63.8h2.93Z" transform="translate(-5.95 -9.95)" fill="pink"/><path d="M541.27,75.09h-5.14l-1,2.93H532l5.29-14.22h2.72L545.37,78h-3.12Zm-4.35-2.38h3.56l-1.79-5.32Z" transform="translate(-5.95 -9.95)" fill="pink"/><path d="M546.7,78V63.8h5a6.53,6.53,0,0,1,3.92,1,3.37,3.37,0,0,1,1.34,2.9,3.29,3.29,0,0,1-.53,1.85,3.07,3.07,0,0,1-1.5,1.16,3,3,0,0,1,1.72,1.11,3.25,3.25,0,0,1,.63,2,3.75,3.75,0,0,1-1.3,3.1A5.91,5.91,0,0,1,552.23,78Zm2.93-8.26h2.17c1.47,0,2.21-.62,2.21-1.77a1.6,1.6,0,0,0-.56-1.39,2.88,2.88,0,0,0-1.77-.43h-2Zm0,2.07v3.83h2.51a2.38,2.38,0,0,0,1.61-.49,1.68,1.68,0,0,0,.58-1.36,1.78,1.78,0,0,0-2-2Z" transform="translate(-5.95 -9.95)" fill="pink"/><path d="M562.39,75.66h6.22V78h-9.15V63.8h2.93Z" transform="translate(-5.95 -9.95)" fill="pink"/><path d="M578.85,71.85h-5.63v3.81h6.6V78h-9.53V63.8h9.51v2.37h-6.58v3.39h5.63Z" transform="translate(-5.95 -9.95)" fill="pink"/><path d="M594.55,75.09h-5.14l-1,2.93h-3.12l5.29-14.22h2.72L598.65,78h-3.11Zm-4.35-2.38h3.56L592,67.39Z" transform="translate(-5.95 -9.95)" fill="pink"/><path d="M608.53,72.21h-5.62V78H600V63.8h9.26v2.37h-6.33v3.67h5.62Z" transform="translate(-5.95 -9.95)" fill="pink"/><path d="M621.83,66.17h-4.35V78h-2.93V66.17h-4.3V63.8h11.58Z" transform="translate(-5.95 -9.95)" fill="pink"/><path d="M632.06,71.85h-5.63v3.81H633V78H623.5V63.8H633v2.37h-6.59v3.39h5.63Z" transform="translate(-5.95 -9.95)" fill="pink"/><path d="M640,72.81h-2.34V78h-2.93V63.8H640a5.94,5.94,0,0,1,3.88,1.12,3.86,3.86,0,0,1,1.37,3.18,4.38,4.38,0,0,1-.63,2.42,4.22,4.22,0,0,1-1.91,1.55l3.08,5.81V78h-3.15Zm-2.34-2.37h2.37a2.46,2.46,0,0,0,1.71-.56,2,2,0,0,0,.6-1.55,2.14,2.14,0,0,0-.57-1.58,2.34,2.34,0,0,0-1.75-.58h-2.36Z" transform="translate(-5.95 -9.95)" fill="pink"/><path d="M405.43,96.33a3.56,3.56,0,0,1-2.58,1.09,3.8,3.8,0,0,1-3-1.3,5.12,5.12,0,0,1-1.13-3.49,5.4,5.4,0,0,1,.61-2.56A4.55,4.55,0,0,1,401,88.25a4.71,4.71,0,0,1,2.46-.65,4.54,4.54,0,0,1,2.5.71,4.6,4.6,0,0,1,1.7,2,7.36,7.36,0,0,1,.61,3v1a8.24,8.24,0,0,1-1.77,5.59,6.69,6.69,0,0,1-5,2.16h-.69V99.8h.62Q405.13,99.63,405.43,96.33Zm-1.89-1.07a2,2,0,0,0,1.18-.35,2.42,2.42,0,0,0,.75-.85V92.9a3.85,3.85,0,0,0-.55-2.23,1.68,1.68,0,0,0-1.46-.79,1.65,1.65,0,0,0-1.4.77,3.35,3.35,0,0,0-.55,1.95,3.17,3.17,0,0,0,.54,1.91A1.72,1.72,0,0,0,403.54,95.26Z" transform="translate(-5.95 -9.95)" fill="pink"/><path d="M420,89.37,414.47,102h-3l5.51-12h-7.07V87.8h10Z" transform="translate(-5.95 -9.95)" fill="pink"/><path d="M421.74,90.53a2.79,2.79,0,0,1,.85-2.12,3,3,0,0,1,2.22-.82,3.12,3.12,0,0,1,2.25.81,2.85,2.85,0,0,1,.85,2.18v.7a2.76,2.76,0,0,1-.85,2.12,3.52,3.52,0,0,1-4.47,0,2.84,2.84,0,0,1-.85-2.17Zm1.87.75a1.35,1.35,0,0,0,.34,1,1.17,1.17,0,0,0,.88.35,1.1,1.1,0,0,0,.87-.36,1.36,1.36,0,0,0,.32-1v-.73a1.33,1.33,0,0,0-.32-.94,1.1,1.1,0,0,0-.89-.37,1.15,1.15,0,0,0-.87.36,1.41,1.41,0,0,0-.33,1Zm1.78,9.67-1.38-.74L431,89.1l1.37.74Zm3.14-2.42a2.76,2.76,0,0,1,.86-2.12,3.51,3.51,0,0,1,4.47,0,2.85,2.85,0,0,1,.86,2.19v.7a2.82,2.82,0,0,1-.84,2.12,3.55,3.55,0,0,1-4.5,0,2.85,2.85,0,0,1-.85-2.15Zm1.88.76a1.32,1.32,0,0,0,.35.92,1.17,1.17,0,0,0,.88.38c.79,0,1.19-.44,1.19-1.32v-.74a1.33,1.33,0,0,0-.33-.94,1.13,1.13,0,0,0-.88-.36,1.15,1.15,0,0,0-.88.36,1.37,1.37,0,0,0-.33,1Z" transform="translate(-5.95 -9.95)" fill="pink"/><path d="M453.51,95.23a8.48,8.48,0,0,1-.75,3.68,5.51,5.51,0,0,1-2.12,2.44,6.27,6.27,0,0,1-6.32,0,5.58,5.58,0,0,1-2.15-2.42,8.24,8.24,0,0,1-.77-3.63V94.6a8.59,8.59,0,0,1,.75-3.69,5.65,5.65,0,0,1,2.14-2.45,6.24,6.24,0,0,1,6.32,0,5.65,5.65,0,0,1,2.14,2.45,8.56,8.56,0,0,1,.76,3.69Zm-3-.64a6,6,0,0,0-.8-3.4,2.82,2.82,0,0,0-4.56,0,5.92,5.92,0,0,0-.82,3.37v.69a6,6,0,0,0,.81,3.38,2.8,2.8,0,0,0,4.57,0,6.09,6.09,0,0,0,.8-3.37Z" transform="translate(-5.95 -9.95)" fill="pink"/><path d="M464.19,96.21h-5.63V102h-2.93V87.8h9.26v2.37h-6.33v3.67h5.63Z" transform="translate(-5.95 -9.95)" fill="pink"/><path d="M476.82,98h-1.89l-.7,4h-1.79l.7-4h-2.21V96.33h2.51l.49-2.77h-2.27v-1.7h2.57l.71-4.06h1.78L476,91.86h1.89l.71-4.06h1.79l-.71,4.06h2.14v1.7h-2.45l-.48,2.77h2.18V98H478.6l-.7,4h-1.79Zm-1.6-1.68h1.89l.49-2.77h-1.9Z" transform="translate(-5.95 -9.95)" fill="pink"/><path d="M483.49,102V87.8h5a6.53,6.53,0,0,1,3.92,1,3.39,3.39,0,0,1,1.34,2.9,3.22,3.22,0,0,1-.54,1.85,3,3,0,0,1-1.49,1.16,3,3,0,0,1,1.72,1.11,3.25,3.25,0,0,1,.63,2,3.73,3.73,0,0,1-1.31,3.1A5.88,5.88,0,0,1,489,102Zm2.93-8.26h2.16q2.22,0,2.22-1.77a1.63,1.63,0,0,0-.56-1.39,2.92,2.92,0,0,0-1.77-.43h-2.05Zm0,2.07v3.83h2.5a2.41,2.41,0,0,0,1.62-.49,1.68,1.68,0,0,0,.58-1.36,1.78,1.78,0,0,0-2-2Z" transform="translate(-5.95 -9.95)" fill="pink"/><path d="M504.28,99.09h-5.14l-1,2.93h-3.11l5.29-14.22h2.72L508.38,102h-3.12Zm-4.35-2.38h3.56l-1.79-5.32Z" transform="translate(-5.95 -9.95)" fill="pink"/><path d="M517.08,98.29a1.52,1.52,0,0,0-.59-1.28,7.84,7.84,0,0,0-2.11-.94,14.19,14.19,0,0,1-2.41-1,3.93,3.93,0,0,1-2.42-3.52,3.46,3.46,0,0,1,.65-2.06,4.23,4.23,0,0,1,1.86-1.41,7.06,7.06,0,0,1,2.73-.51,6.54,6.54,0,0,1,2.72.55,4.37,4.37,0,0,1,1.85,1.56A4.09,4.09,0,0,1,520,92h-2.93a1.92,1.92,0,0,0-.62-1.52,2.52,2.52,0,0,0-1.72-.54,2.7,2.7,0,0,0-1.67.45,1.43,1.43,0,0,0-.6,1.2,1.36,1.36,0,0,0,.7,1.16,8.14,8.14,0,0,0,2.05.88,9,9,0,0,1,3.65,1.86A3.74,3.74,0,0,1,520,98.27a3.42,3.42,0,0,1-1.4,2.89,6.1,6.1,0,0,1-3.76,1,7.29,7.29,0,0,1-3-.6,4.78,4.78,0,0,1-2.05-1.64,4.26,4.26,0,0,1-.71-2.43h2.94c0,1.57.94,2.36,2.81,2.36a2.68,2.68,0,0,0,1.63-.43A1.38,1.38,0,0,0,517.08,98.29Z" transform="translate(-5.95 -9.95)" fill="pink"/><path d="M530.56,95.85h-5.63v3.81h6.6V102H522V87.8h9.51v2.37h-6.58v3.39h5.63Z" transform="translate(-5.95 -9.95)" fill="pink"/><path d="M533.25,102V87.8h4.38a6.67,6.67,0,0,1,3.35.84,5.9,5.9,0,0,1,2.31,2.41,7.4,7.4,0,0,1,.83,3.54v.65a7.39,7.39,0,0,1-.82,3.53,5.82,5.82,0,0,1-2.3,2.39,6.74,6.74,0,0,1-3.34.86Zm2.93-11.85v9.49h1.42a3.16,3.16,0,0,0,2.62-1.12,5,5,0,0,0,.93-3.21v-.75a5.14,5.14,0,0,0-.9-3.29,3.15,3.15,0,0,0-2.62-1.12Z" transform="translate(-5.95 -9.95)" fill="pink"/><path d="M561.35,90.17H557V102h-2.93V90.17h-4.3V87.8h11.59Z" transform="translate(-5.95 -9.95)" fill="pink"/><path d="M574.42,95.23a8.48,8.48,0,0,1-.74,3.68,5.51,5.51,0,0,1-2.12,2.44,5.82,5.82,0,0,1-3.17.86,5.91,5.91,0,0,1-3.16-.85,5.64,5.64,0,0,1-2.15-2.42,8.53,8.53,0,0,1-.77-3.63V94.6a8.59,8.59,0,0,1,.76-3.69,5.65,5.65,0,0,1,2.14-2.45,6.24,6.24,0,0,1,6.32,0,5.65,5.65,0,0,1,2.14,2.45,8.56,8.56,0,0,1,.75,3.69Zm-3-.64a5.91,5.91,0,0,0-.8-3.4A2.59,2.59,0,0,0,568.37,90a2.64,2.64,0,0,0-2.28,1.15,6,6,0,0,0-.81,3.37v.69a6.1,6.1,0,0,0,.8,3.38,2.62,2.62,0,0,0,2.31,1.2,2.57,2.57,0,0,0,2.26-1.16,5.93,5.93,0,0,0,.8-3.37Z" transform="translate(-5.95 -9.95)" fill="pink"/><path d="M581,96.31,579.48,98V102h-2.93V87.8h2.93v6.44l1.29-1.76,3.62-4.68H588l-5,6.32,5.19,7.9h-3.48Z" transform="translate(-5.95 -9.95)" fill="pink"/><path d="M597.8,95.85h-5.62v3.81h6.6V102h-9.53V87.8h9.51v2.37h-6.58v3.39h5.62Z" transform="translate(-5.95 -9.95)" fill="pink"/><path d="M612.06,102h-2.93l-5.7-9.36V102H600.5V87.8h2.93l5.71,9.37V87.8h2.92Z" transform="translate(-5.95 -9.95)" fill="pink"/><path d="M622,98.29a1.51,1.51,0,0,0-.58-1.28,8.15,8.15,0,0,0-2.11-.94,14.35,14.35,0,0,1-2.42-1,3.93,3.93,0,0,1-2.42-3.52,3.46,3.46,0,0,1,.65-2.06A4.26,4.26,0,0,1,617,88.11a7,7,0,0,1,2.73-.51,6.49,6.49,0,0,1,2.71.55,4.37,4.37,0,0,1,1.85,1.56,4.09,4.09,0,0,1,.66,2.29H622a1.92,1.92,0,0,0-.61-1.52,2.54,2.54,0,0,0-1.73-.54,2.7,2.7,0,0,0-1.67.45,1.43,1.43,0,0,0-.6,1.2,1.36,1.36,0,0,0,.7,1.16,8.24,8.24,0,0,0,2.06.88,8.91,8.91,0,0,1,3.64,1.86,3.74,3.74,0,0,1,1.14,2.78,3.42,3.42,0,0,1-1.4,2.89,6.1,6.1,0,0,1-3.76,1,7.21,7.21,0,0,1-3-.6,4.76,4.76,0,0,1-2.06-1.64,4.26,4.26,0,0,1-.71-2.43H617c0,1.57.94,2.36,2.81,2.36a2.73,2.73,0,0,0,1.64-.43A1.37,1.37,0,0,0,622,98.29Z" transform="translate(-5.95 -9.95)" fill="pink"/><path d="M410.7,126h-2.93v-6.1h-5.71V126h-2.93V111.8h2.93v5.76h5.71V111.8h2.93Z" transform="translate(-5.95 -9.95)" fill="pink"/><path d="M421.46,123.09h-5.13l-1,2.93h-3.11l5.29-14.22h2.71L425.57,126h-3.12Zm-4.34-2.38h3.55l-1.78-5.32Z" transform="translate(-5.95 -9.95)" fill="pink"/><path d="M431.4,122.49l3.22-10.69h3.26L432.93,126h-3.06l-4.93-14.22h3.25Z" transform="translate(-5.95 -9.95)" fill="pink"/><path d="M447.77,119.85h-5.62v3.81h6.6V126h-9.53V111.8h9.51v2.37h-6.58v3.39h5.62Z" transform="translate(-5.95 -9.95)" fill="pink"/><path d="M455.45,126V111.8h5a6.53,6.53,0,0,1,3.92,1,3.37,3.37,0,0,1,1.34,2.9,3.29,3.29,0,0,1-.53,1.85,3.07,3.07,0,0,1-1.5,1.16,3,3,0,0,1,1.73,1.11,3.25,3.25,0,0,1,.63,2,3.75,3.75,0,0,1-1.31,3.1A5.91,5.91,0,0,1,461,126Zm2.93-8.26h2.17c1.47,0,2.21-.62,2.21-1.77a1.6,1.6,0,0,0-.56-1.39,2.88,2.88,0,0,0-1.77-.43h-2.05Zm0,2.07v3.83h2.51a2.38,2.38,0,0,0,1.61-.49,1.69,1.69,0,0,0,.59-1.36,1.79,1.79,0,0,0-2-2Z" transform="translate(-5.95 -9.95)" fill="pink"/><path d="M476.77,119.85h-5.63v3.81h6.6V126h-9.53V111.8h9.51v2.37h-6.58v3.39h5.63Z" transform="translate(-5.95 -9.95)" fill="pink"/><path d="M488,119.85h-5.63v3.81H489V126h-9.53V111.8H489v2.37h-6.58v3.39H488Z" transform="translate(-5.95 -9.95)" fill="pink"/><path d="M502.27,126h-2.93l-5.7-9.36V126h-2.93V111.8h2.93l5.71,9.37V111.8h2.92Z" transform="translate(-5.95 -9.95)" fill="pink"/><path d="M521,121.28a5,5,0,0,1-1.7,3.61,6,6,0,0,1-4,1.32,5.35,5.35,0,0,1-4.3-1.84,7.57,7.57,0,0,1-1.57-5.05v-.87a8.37,8.37,0,0,1,.73-3.61,5.35,5.35,0,0,1,2.06-2.4,6.44,6.44,0,0,1,7.09.48,5.43,5.43,0,0,1,1.74,3.7h-2.93a3,3,0,0,0-.77-2,2.82,2.82,0,0,0-2-.62,2.46,2.46,0,0,0-2.19,1,6,6,0,0,0-.75,3.25v1.08a6.37,6.37,0,0,0,.7,3.37,2.44,2.44,0,0,0,2.2,1.06,2.92,2.92,0,0,0,2-.62,2.79,2.79,0,0,0,.77-1.92Z" transform="translate(-5.95 -9.95)" fill="pink"/><path d="M525.83,123.66h6.22V126H522.9V111.8h2.93Z" transform="translate(-5.95 -9.95)" fill="pink"/><path d="M541.94,123.09h-5.13l-1,2.93h-3.12L538,111.8h2.71L546,126h-3.11Zm-4.34-2.38h3.55l-1.79-5.32Z" transform="translate(-5.95 -9.95)" fill="pink"/><path d="M550.49,126h-2.93V111.8h2.93Z" transform="translate(-5.95 -9.95)" fill="pink"/><path d="M557,111.8l3.65,10.31,3.64-10.31h3.84V126h-2.94v-3.89l.3-6.71L561.68,126h-2l-3.83-10.59.29,6.7V126H553.2V111.8Z" transform="translate(-5.95 -9.95)" fill="pink"/><path d="M579.28,119.85h-5.63v3.81h6.6V126h-9.53V111.8h9.51v2.37h-6.58v3.39h5.63Z" transform="translate(-5.95 -9.95)" fill="pink"/><path d="M582,126V111.8h4.38a6.67,6.67,0,0,1,3.35.84,5.9,5.9,0,0,1,2.31,2.41,7.4,7.4,0,0,1,.83,3.54v.65a7.5,7.5,0,0,1-.81,3.53,6,6,0,0,1-2.3,2.39,6.81,6.81,0,0,1-3.35.86Zm2.93-11.85v9.49h1.42a3.16,3.16,0,0,0,2.62-1.12,5,5,0,0,0,.93-3.21v-.75a5.14,5.14,0,0,0-.9-3.29,3.14,3.14,0,0,0-2.62-1.12Z" transform="translate(-5.95 -9.95)" fill="pink"/><path d="M716.12,74.37H711l-1,2.93H706.9l5.29-14.22h2.71l5.33,14.22h-3.12ZM711.78,72h3.55l-1.78-5.32Z" transform="translate(-5.95 -9.95)" fill="pink"/><path d="M730.11,71.49h-5.63V77.3h-2.93V63.08h9.26v2.38h-6.33v3.67h5.63Z" transform="translate(-5.95 -9.95)" fill="pink"/><path d="M743.41,65.46h-4.36V77.3h-2.93V65.46h-4.29V63.08h11.58Z" transform="translate(-5.95 -9.95)" fill="pink"/><path d="M753.63,71.14H748V75h6.6V77.3h-9.53V63.08h9.51v2.38H748v3.39h5.62Z" transform="translate(-5.95 -9.95)" fill="pink"/><path d="M761.59,72.1h-2.33v5.2h-2.93V63.08h5.28a6,6,0,0,1,3.89,1.13,3.87,3.87,0,0,1,1.37,3.17,4.39,4.39,0,0,1-.63,2.43,4.33,4.33,0,0,1-1.91,1.54l3.07,5.82v.13h-3.14Zm-2.33-2.38h2.36a2.38,2.38,0,0,0,1.71-.56,2,2,0,0,0,.61-1.55,2.16,2.16,0,0,0-.57-1.58,2.42,2.42,0,0,0-1.76-.57h-2.35Z" transform="translate(-5.95 -9.95)" fill="pink"/><path d="M782.12,72h1.61v2.28h-1.61V77.3H779.3V74.23h-5.83l-.13-1.78,5.93-9.37h2.85Zm-6,0h3.15v-5l-.19.32Z" transform="translate(-5.95 -9.95)" fill="pink"/><path d="M790.85,72.35h-5.5V70.08h5.5Z" transform="translate(-5.95 -9.95)" fill="pink"/><path d="M804.38,73.2l1.91-10.12h2.92L806.06,77.3h-2.95l-2.32-9.51-2.31,9.51h-3l-3.16-14.22h2.92l1.93,10.1,2.34-10.1H802Z" transform="translate(-5.95 -9.95)" fill="pink"/><path d="M819.35,71.14h-5.63V75h6.6V77.3h-9.53V63.08h9.51v2.38h-6.58v3.39h5.63Z" transform="translate(-5.95 -9.95)" fill="pink"/><path d="M830.6,71.14H825V75h6.6V77.3H822V63.08h9.51v2.38H825v3.39h5.63Z" transform="translate(-5.95 -9.95)" fill="pink"/><path d="M837.75,71.6l-1.53,1.64V77.3h-2.93V63.08h2.93v6.45l1.29-1.77,3.62-4.68h3.61l-5,6.32,5.19,7.9H841.4Z" transform="translate(-5.95 -9.95)" fill="pink"/><path d="M853.36,73.57a1.47,1.47,0,0,0-.59-1.27,7.58,7.58,0,0,0-2.1-.94,14.86,14.86,0,0,1-2.42-1,4,4,0,0,1-2.42-3.53,3.43,3.43,0,0,1,.65-2,4.12,4.12,0,0,1,1.87-1.41,7,7,0,0,1,2.73-.51,6.34,6.34,0,0,1,2.71.55A4.37,4.37,0,0,1,855.64,65a4.06,4.06,0,0,1,.66,2.28h-2.93a1.91,1.91,0,0,0-.62-1.52,2.52,2.52,0,0,0-1.72-.54,2.63,2.63,0,0,0-1.67.46,1.42,1.42,0,0,0-.6,1.19,1.36,1.36,0,0,0,.7,1.16,7.47,7.47,0,0,0,2,.88,8.9,8.9,0,0,1,3.65,1.87,3.72,3.72,0,0,1,1.14,2.77,3.44,3.44,0,0,1-1.4,2.9,6.1,6.1,0,0,1-3.76,1,7.21,7.21,0,0,1-3-.6,4.7,4.7,0,0,1-2.06-1.65,4.2,4.2,0,0,1-.71-2.42h2.94c0,1.57.94,2.35,2.81,2.35a2.75,2.75,0,0,0,1.63-.42A1.36,1.36,0,0,0,853.36,73.57Z" transform="translate(-5.95 -9.95)" fill="pink"/><path d="M858.83,80.87l-1.48-.77.36-.64a5.07,5.07,0,0,0,.67-2.37V74.9h2.38v1.95a5.05,5.05,0,0,1-.54,2.19A5.59,5.59,0,0,1,858.83,80.87Z" transform="translate(-5.95 -9.95)" fill="pink"/><path d="M873.41,72.1h-2.33v5.2h-2.93V63.08h5.28a6,6,0,0,1,3.89,1.13,3.87,3.87,0,0,1,1.36,3.17,4.39,4.39,0,0,1-.63,2.43,4.27,4.27,0,0,1-1.91,1.54l3.08,5.82v.13h-3.14Zm-2.33-2.38h2.36a2.42,2.42,0,0,0,1.71-.56,2,2,0,0,0,.6-1.55,2.16,2.16,0,0,0-.57-1.58,2.38,2.38,0,0,0-1.75-.57h-2.35Z" transform="translate(-5.95 -9.95)" fill="pink"/><path d="M889.46,71.14h-5.62V75h6.6V77.3h-9.53V63.08h9.51v2.38h-6.58v3.39h5.62Z" transform="translate(-5.95 -9.95)" fill="pink"/><path d="M892.16,77.3V63.08h5a6.59,6.59,0,0,1,3.93,1A3.4,3.4,0,0,1,902.4,67a3.26,3.26,0,0,1-.53,1.84,3.14,3.14,0,0,1-1.5,1.17,3,3,0,0,1,1.73,1.1,3.27,3.27,0,0,1,.63,2,3.77,3.77,0,0,1-1.31,3.11,5.91,5.91,0,0,1-3.73,1.07ZM895.09,69h2.17c1.47,0,2.21-.61,2.21-1.77a1.62,1.62,0,0,0-.56-1.39,3,3,0,0,0-1.77-.42h-2Zm0,2.07V75h2.51a2.44,2.44,0,0,0,1.61-.49,1.71,1.71,0,0,0,.59-1.37,1.79,1.79,0,0,0-2-2Z" transform="translate(-5.95 -9.95)" fill="pink"/><path d="M913,74.37h-5.14l-1,2.93h-3.12L909,63.08h2.72l5.32,14.22h-3.11ZM908.6,72h3.56l-1.79-5.32Z" transform="translate(-5.95 -9.95)" fill="pink"/><path d="M925.75,73.57a1.49,1.49,0,0,0-.58-1.27,7.67,7.67,0,0,0-2.11-.94,14.7,14.7,0,0,1-2.41-1,3.94,3.94,0,0,1-2.43-3.53,3.43,3.43,0,0,1,.65-2,4.17,4.17,0,0,1,1.87-1.41,7,7,0,0,1,2.73-.51,6.34,6.34,0,0,1,2.71.55A4.31,4.31,0,0,1,928,65a4.06,4.06,0,0,1,.66,2.28h-2.93a1.93,1.93,0,0,0-.61-1.52,2.54,2.54,0,0,0-1.73-.54,2.65,2.65,0,0,0-1.67.46,1.42,1.42,0,0,0-.6,1.19,1.38,1.38,0,0,0,.7,1.16,7.56,7.56,0,0,0,2.06.88,8.91,8.91,0,0,1,3.64,1.87,3.72,3.72,0,0,1,1.14,2.77,3.43,3.43,0,0,1-1.39,2.9,6.12,6.12,0,0,1-3.76,1,7.26,7.26,0,0,1-3-.6,4.7,4.7,0,0,1-2.06-1.65,4.2,4.2,0,0,1-.71-2.42h2.94c0,1.57.94,2.35,2.82,2.35a2.77,2.77,0,0,0,1.63-.42A1.38,1.38,0,0,0,925.75,73.57Z" transform="translate(-5.95 -9.95)" fill="pink"/><path d="M939.23,71.14H933.6V75h6.61V77.3h-9.54V63.08h9.52v2.38H933.6v3.39h5.63Z" transform="translate(-5.95 -9.95)" fill="pink"/><path d="M711.21,101.3h-2.93V87.08h2.93Z" transform="translate(-5.95 -9.95)" fill="pink"/><path d="M721.3,97.57a1.5,1.5,0,0,0-.59-1.27,7.53,7.53,0,0,0-2.11-.94,15.08,15.08,0,0,1-2.41-1,4,4,0,0,1-2.42-3.53,3.43,3.43,0,0,1,.65-2,4.07,4.07,0,0,1,1.87-1.41,6.94,6.94,0,0,1,2.72-.51,6.39,6.39,0,0,1,2.72.55A4.37,4.37,0,0,1,723.58,89a4.06,4.06,0,0,1,.66,2.28h-2.93a1.94,1.94,0,0,0-.62-1.52,2.52,2.52,0,0,0-1.72-.54,2.63,2.63,0,0,0-1.67.46,1.42,1.42,0,0,0-.6,1.19,1.36,1.36,0,0,0,.7,1.16,7.47,7.47,0,0,0,2.05.88,9,9,0,0,1,3.65,1.87,3.72,3.72,0,0,1,1.14,2.77,3.44,3.44,0,0,1-1.4,2.9,6.1,6.1,0,0,1-3.76,1,7.29,7.29,0,0,1-3-.6A4.73,4.73,0,0,1,714,99.25a4.2,4.2,0,0,1-.71-2.42h2.94c0,1.57.94,2.35,2.81,2.35a2.75,2.75,0,0,0,1.63-.42A1.39,1.39,0,0,0,721.3,97.57Z" transform="translate(-5.95 -9.95)" fill="pink"/><path d="M739.23,98.37h-5.14l-1,2.93H730l5.29-14.22H738l5.32,14.22h-3.11ZM734.88,96h3.56l-1.79-5.32Z" transform="translate(-5.95 -9.95)" fill="pink"/><path d="M755.25,87.08v9.37a4.78,4.78,0,0,1-1.46,3.69,5.59,5.59,0,0,1-4,1.36,5.71,5.71,0,0,1-4-1.32,4.7,4.7,0,0,1-1.49-3.62V87.08h2.93v9.39a2.67,2.67,0,0,0,.67,2,2.54,2.54,0,0,0,1.85.64c1.64,0,2.48-.86,2.51-2.59V87.08Z" transform="translate(-5.95 -9.95)" fill="pink"/><path d="M768.36,89.46H764V101.3h-2.92V89.46h-4.3V87.08h11.58Z" transform="translate(-5.95 -9.95)" fill="pink"/><path d="M781.44,94.52a8.55,8.55,0,0,1-.75,3.68,5.62,5.62,0,0,1-2.12,2.44,6.27,6.27,0,0,1-6.32,0,5.66,5.66,0,0,1-2.15-2.43,8.21,8.21,0,0,1-.77-3.63v-.7a8.64,8.64,0,0,1,.75-3.7,5.7,5.7,0,0,1,2.14-2.45,6.3,6.3,0,0,1,6.32,0,5.7,5.7,0,0,1,2.14,2.45,8.62,8.62,0,0,1,.76,3.69Zm-3-.65a6,6,0,0,0-.8-3.4,2.63,2.63,0,0,0-2.29-1.16,2.59,2.59,0,0,0-2.27,1.15,5.79,5.79,0,0,0-.81,3.36v.7a6,6,0,0,0,.8,3.37,2.8,2.8,0,0,0,4.57,0,6.13,6.13,0,0,0,.8-3.38Z" transform="translate(-5.95 -9.95)" fill="pink"/><path d="M787.39,87.08l3.66,10.32,3.63-10.32h3.85V101.3h-2.94V97.42l.29-6.71L792,101.3h-2L786.2,90.72l.3,6.7v3.88h-2.93V87.08Z" transform="translate(-5.95 -9.95)" fill="pink"/><path d="M809.11,98.37H804l-1,2.93h-3.12l5.3-14.22h2.71l5.32,14.22H810.1ZM804.77,96h3.55l-1.79-5.32Z" transform="translate(-5.95 -9.95)" fill="pink"/><path d="M824.07,89.46h-4.35V101.3h-2.93V89.46h-4.3V87.08h11.58Z" transform="translate(-5.95 -9.95)" fill="pink"/><path d="M828.86,101.3h-2.93V87.08h2.93Z" transform="translate(-5.95 -9.95)" fill="pink"/><path d="M842.74,96.57a5.06,5.06,0,0,1-1.7,3.61,6,6,0,0,1-4,1.32,5.38,5.38,0,0,1-4.3-1.84,7.6,7.6,0,0,1-1.57-5.06v-.87a8.4,8.4,0,0,1,.73-3.61,5.46,5.46,0,0,1,2.06-2.4,6.47,6.47,0,0,1,7.09.49,5.38,5.38,0,0,1,1.73,3.7h-2.92a3,3,0,0,0-.77-2,2.86,2.86,0,0,0-2-.62,2.49,2.49,0,0,0-2.19,1,5.83,5.83,0,0,0-.75,3.26v1.07a6.25,6.25,0,0,0,.7,3.37A2.44,2.44,0,0,0,837,99.1a2.87,2.87,0,0,0,2-.62,2.83,2.83,0,0,0,.77-1.91Z" transform="translate(-5.95 -9.95)" fill="pink"/><path d="M852.69,98.37h-5.14l-1,2.93h-3.11l5.29-14.22h2.72l5.32,14.22h-3.12ZM848.34,96h3.56l-1.79-5.32Z" transform="translate(-5.95 -9.95)" fill="pink"/><path d="M861.05,99h6.22v2.35h-9.15V87.08h2.93Z" transform="translate(-5.95 -9.95)" fill="pink"/><path d="M871.88,99h6.22v2.35H869V87.08h2.93Z" transform="translate(-5.95 -9.95)" fill="pink"/><path d="M882,93.49l3-6.41h3.21l-4.67,9.07v5.15h-3V96.15l-4.67-9.07H879Z" transform="translate(-5.95 -9.95)" fill="pink"/><path d="M716.65,119.14H711V123h6.6v2.35H708.1V111.08h9.51v2.38H711v3.39h5.62Z" transform="translate(-5.95 -9.95)" fill="pink"/><path d="M730.91,125.3H728l-5.7-9.35v9.35h-2.93V111.08h2.93l5.71,9.38v-9.38h2.92Z" transform="translate(-5.95 -9.95)" fill="pink"/><path d="M741.5,122.37h-5.14l-1,2.93h-3.11l5.29-14.22h2.71l5.33,14.22h-3.12ZM737.15,120h3.55l-1.78-5.32Z" transform="translate(-5.95 -9.95)" fill="pink"/><path d="M746.92,125.3V111.08h5a6.53,6.53,0,0,1,3.92,1,3.41,3.41,0,0,1,1.34,2.91,3.19,3.19,0,0,1-.54,1.84,3.12,3.12,0,0,1-1.49,1.17,3,3,0,0,1,1.72,1.1,3.27,3.27,0,0,1,.63,2,3.77,3.77,0,0,1-1.31,3.11,5.87,5.87,0,0,1-3.73,1.07Zm2.93-8.26H752c1.48,0,2.22-.61,2.22-1.77a1.64,1.64,0,0,0-.56-1.39,3,3,0,0,0-1.77-.42h-2.06Zm0,2.07V123h2.51a2.49,2.49,0,0,0,1.62-.49,1.7,1.7,0,0,0,.58-1.37,1.78,1.78,0,0,0-2-2Z" transform="translate(-5.95 -9.95)" fill="pink"/><path d="M762.62,123h6.22v2.35h-9.15V111.08h2.93Z" transform="translate(-5.95 -9.95)" fill="pink"/><path d="M779.07,119.14h-5.62V123h6.6v2.35h-9.53V111.08H780v2.38h-6.58v3.39h5.62Z" transform="translate(-5.95 -9.95)" fill="pink"/><path d="M781.77,125.3V111.08h4.37a6.61,6.61,0,0,1,3.36.85,5.94,5.94,0,0,1,2.31,2.4,7.46,7.46,0,0,1,.83,3.54v.65a7.36,7.36,0,0,1-.82,3.53,5.76,5.76,0,0,1-2.3,2.39,6.58,6.58,0,0,1-3.35.86Zm2.93-11.84V123h1.41a3.2,3.2,0,0,0,2.63-1.12,5,5,0,0,0,.93-3.22v-.75a5.18,5.18,0,0,0-.9-3.29,3.18,3.18,0,0,0-2.63-1.11Z" transform="translate(-5.95 -9.95)" fill="pink"/></svg>