<svg xmlns="http://www.w3.org/2000/svg" viewBox="0 0 468.53 470.01"><line x1="39.86" y1="56.93" x2="41.59" y2="431.93" fill="none" stroke="pink" stroke-miterlimit="10" stroke-width="10"/><path d="M250.39,302.27c-.07-1.83-.12-4.4,0-8.27.06-1.79-.68-2.21-3.82-2.79-1.36-.26-.64-1.3-1.06-2.77s-3.74-1.57-3.74-1.57c-.72,0-.74-.4-.63-.63,2.19-5.24-1.2-10.76-.62-10.89,2.64-1,2.43-3.62,1.74-4,1.2.07,2.17-1.76,1.89-2.32-1.08-2-1.85-2.05-2.35-3.45-1.12-2.57-2.32-2-2.47-4.47-.1-1.8-.41-2.39-.78-2.81-1.84-1.86-4.26-.23-5.06.9-1.9-.41-4.2,2.34-5.78,3a14,14,0,0,0-.9-4.11c-.36-1,.16-.79,0-2.6a12,12,0,0,0-.85-4.15c-.21-.45-.17-2.81-.6-4a3.52,3.52,0,0,0-4.43-3.18c-.13,0-.13.07-.13.8.08,1-.43,2.75-.19,4.19a23.44,23.44,0,0,0,0,2.81c-.29,1.71.16,2.95-.53,5-.09.29.2.23.14.89,0,.35-.32.31-.19,1.34a40.07,40.07,0,0,1,0,4.14c0,1.44-.29,2.57-.57,6.09-.12,1.43-.77,2.57-.23,3.62.8,1.6,3.26,7.15,6.25,13.11.06.13.36.65-.42,1-1.25.67-.88,1.06-.79,3.41-.06,1.69-1.36.44-1.32,2.29.08,2.85.32,4,.26,8.12,0,1.69-.09,2.15,1.1,2.18l25.29-.12C250,303,250.4,302.79,250.39,302.27Z" transform="translate(-196.41 -244.07)" fill="pink"/><path d="M221.62,245c1.12-.11.85,2,.69,2.79-.09.49-.87.86-1.05.37l.27-3C221.52,245.06,221.6,245,221.62,245Z" transform="translate(-196.41 -244.07)" fill="#fff"/><path d="M234.74,261.41c.19,1.2.68,1.09.6,1.73-.12.85-.44.09-.36,3a3.08,3.08,0,0,0,.31,1.86,1.16,1.16,0,0,0-.14,1.41c-.2,1.05-.33.68.08,2.46.56,2.4-.42,2.88-1,4a1.51,1.51,0,0,0-.14,1.08c.55,4.42.53,2.51.19,8.65-.4,2.13-1.54,3-4.42,2.88-3.27-.16-2.82-.86-3.6-2.65-3.27-7.26-6.06-12.13-5.93-14,0-5.38,1-4.4.79-11.5-.29-2.25.86-2.19.72-3-.35-.63-.69-.1-.5-2.28.38-4.41-.37-5.29.32-5.7.94-.54,1.52-.53,1.27-3.39,0-.24,0-.31-.05-.45-.08-.35.12-.37.38,0a8.66,8.66,0,0,1,.94,5.34c-.24,1.55.36.74.37,3.3-.07,1.13-.06,1.83-.13,2.18a9.53,9.53,0,0,1,.3,4c-.21.86-.49,1.27-.06,2a8.53,8.53,0,0,1,.72,5c-.33,3-.91,2.8-.69,3.1.53.68,1.49-.73,2.61.73.58.74-1.72,1.55-1.68,2.29.06.44.47.52.95.31.23-.1,1.53-1,2.08-.26.88,1.2-1.75,3.35-.65,5,.3.39.72,0,.67-.49a4.7,4.7,0,0,1,1.14-2.72,17.11,17.11,0,0,0,2-3.63c1.11-2.75.27-3.65,1-4.15.53-.42-.27-1.27-.43-2.25-.31-1.83,1.19-6.07,2.12-5.67.31.16.29.44.22.82A2.57,2.57,0,0,0,234.74,261.41Z" transform="translate(-196.41 -244.07)" fill="#fff"/><path d="M237,262.43c-.92-.42-1-.46-1.23-1.35s.47-3,1.42-2.73c.3.23.32,1.18.47,1.77S238.06,262.72,237,262.43Z" transform="translate(-196.41 -244.07)" fill="#fff"/><path d="M244.58,290.05c0-.9-.59-1-1.18-1.15-.85-.2-4.36.45-8.79.54a59.6,59.6,0,0,1-8.08-.25c-.59-.05-1.33-.52-1.37.29-.13,2.63-.34,3.44,1.74,3.86,2.43.48,11.84.5,16.8-.15C244.08,293,244.86,293.5,244.58,290.05Z" transform="translate(-196.41 -244.07)" fill="#fff"/><line x1="36.59" y1="427.93" x2="411.59" y2="426.2" fill="none" stroke="pink" stroke-miterlimit="10" stroke-width="10"/><path d="M606.73,684.4c1.83-.08,4.4-.13,8.27,0,1.79.06,2.21-.68,2.79-3.81.26-1.37,1.3-.65,2.77-1.07s1.57-3.74,1.57-3.74c0-.72.4-.74.63-.63,5.24,2.19,10.76-1.19,10.89-.62,1,2.64,3.62,2.43,4,1.75-.07,1.19,1.76,2.16,2.32,1.88,2-1.08,2.05-1.85,3.45-2.35,2.57-1.12,2-2.32,4.47-2.47,1.8-.1,2.39-.4,2.81-.78,1.86-1.84.23-4.26-.9-5.06.41-1.9-2.34-4.2-3-5.78a14,14,0,0,0,4.11-.9c1-.36.79.16,2.6,0a12,12,0,0,0,4.15-.85c.45-.21,2.81-.17,4-.6a3.52,3.52,0,0,0,3.18-4.42c0-.14-.07-.14-.8-.14-1,.08-2.75-.43-4.19-.19a23.44,23.44,0,0,0-2.81,0c-1.71-.29-2.95.17-4.95-.53-.29-.08-.23.2-.89.14-.35,0-.31-.32-1.34-.19-1.19.14-2.7,0-4.14,0s-2.57-.29-6.09-.57c-1.43-.12-2.57-.76-3.62-.23-1.6.81-7.15,3.27-13.11,6.25-.13.06-.65.36-1-.42-.67-1.24-1.06-.88-3.41-.79-1.69-.06-.44-1.36-2.29-1.31-2.85.07-4,.31-8.12.25-1.69,0-2.15-.09-2.18,1.1l.12,25.29A.69.69,0,0,0,606.73,684.4Z" transform="translate(-196.41 -244.07)" fill="pink"/><path d="M664,655.62c.11,1.12-2,.86-2.79.69-.49-.09-.86-.87-.37-1l3,.27C663.94,655.52,664,655.6,664,655.62Z" transform="translate(-196.41 -244.07)" fill="#fff"/><path d="M647.59,668.74c-1.2.19-1.09.68-1.73.6-.85-.12-.09-.44-3-.36a3.08,3.08,0,0,0-1.86.31,1.16,1.16,0,0,0-1.41-.14c-1.05-.2-.68-.33-2.46.09-2.4.55-2.88-.42-4-1a1.51,1.51,0,0,0-1.08-.14c-4.42.55-2.51.53-8.65.19-2.13-.4-3-1.54-2.88-4.42.16-3.27.86-2.82,2.65-3.6,7.26-3.27,12.13-6.06,14-5.93,5.38,0,4.4,1,11.5.79,2.25-.29,2.19.86,3,.72.63-.35.1-.69,2.28-.5,4.41.38,5.29-.37,5.7.32.54.94.53,1.52,3.39,1.27l.45-.05c.35-.09.37.12,0,.39a8.69,8.69,0,0,1-5.34.93c-1.55-.24-.74.36-3.3.37-1.13-.07-1.83-.06-2.18-.13a9.53,9.53,0,0,1-4,.3c-.86-.21-1.27-.49-2-.06a8.53,8.53,0,0,1-5,.72c-3-.33-2.8-.91-3.1-.69-.68.53.73,1.49-.73,2.61-.74.58-1.55-1.71-2.29-1.68-.44.07-.52.47-.31,1,.1.22,1,1.52.26,2.07-1.2.88-3.35-1.75-5-.65-.39.3,0,.72.49.67a4.71,4.71,0,0,1,2.72,1.15,17.51,17.51,0,0,0,3.63,2c2.75,1.11,3.65.27,4.15,1,.42.52,1.27-.28,2.25-.44,1.83-.31,6.07,1.19,5.67,2.12-.16.31-.44.29-.82.22A2.75,2.75,0,0,0,647.59,668.74Z" transform="translate(-196.41 -244.07)" fill="#fff"/><path d="M646.57,671c.42-.92.46-1,1.35-1.23s3,.47,2.73,1.42c-.23.3-1.18.32-1.77.47S646.28,672.06,646.57,671Z" transform="translate(-196.41 -244.07)" fill="#fff"/><path d="M619,678.59c.9-.05,1-.6,1.15-1.19.2-.85-.45-4.36-.54-8.79a59.67,59.67,0,0,1,.25-8.08c.05-.59.52-1.33-.29-1.37-2.63-.13-3.44-.34-3.86,1.74-.48,2.43-.5,11.85.15,16.8C616,678.09,615.5,678.87,619,678.59Z" transform="translate(-196.41 -244.07)" fill="#fff"/><line x1="40.59" y1="427.93" x2="410.19" y2="60.14" fill="none" stroke="pink" stroke-miterlimit="10" stroke-width="10"/><path d="M615.62,315.16c1.25-1.34,3-3.18,5.88-5.81,1.32-1.21,1.09-2-.69-4.67-.78-1.15.47-1.37,1.22-2.71.58-1.32-1.51-3.76-1.51-3.76-.49-.52-.23-.81,0-.89,5.27-2.13,6.83-8.41,7.32-8.09,2.55,1.2,4.28-.81,4-1.53a2.21,2.21,0,0,0,3-.29c.67-2.18.15-2.76.8-4.1,1-2.59-.2-3.06,1.45-4.89,1.21-1.34,1.42-2,1.45-2.53,0-2.61-2.82-3.19-4.19-3-1-1.64-4.61-1.35-6.18-2a14.1,14.1,0,0,0,2.29-3.53c.49-1,.68-.44,1.83-1.85a12.15,12.15,0,0,0,2.36-3.51c.17-.47,1.89-2.1,2.46-3.26a3.53,3.53,0,0,0-.85-5.39c-.12-.07-.15-.05-.66.47-.65.74-2.26,1.62-3.12,2.81a21.78,21.78,0,0,0-2,2c-1.43,1-2,2.19-3.9,3.09-.27.15,0,.31-.54.73-.27.22-.44,0-1.09.81s-1.9,1.91-2.92,2.93-2,1.6-4.73,3.87c-1.11.92-2.37,1.26-2.74,2.37-.57,1.7-2.8,7.35-5,13.66,0,.13-.2.72-1,.39-1.35-.4-1.37.13-3,1.84-1.24,1.14-1.27-.66-2.55.67-2,2.06-2.6,3-5.6,5.88-1.23,1.17-1.59,1.45-.77,2.32l17.83,17.92A.69.69,0,0,0,615.62,315.16Z" transform="translate(-196.41 -244.07)" fill="pink"/><path d="M636.19,254.46c.87.72-.8,2-1.5,2.45-.41.28-1.23,0-1-.48l2.36-2S636.18,254.44,636.19,254.46Z" transform="translate(-196.41 -244.07)" fill="#fff"/><path d="M633.72,275.33c-.72,1-.3,1.24-.81,1.64-.69.51-.38-.25-2.38,1.85-.6.59-1,.87-1.11,1.52-.37,0-1.06.28-1.1.89-.9.59-.72.24-1.7,1.79-1.31,2.08-2.34,1.72-3.52,2.12a1.5,1.5,0,0,0-.87.65c-2.76,3.5-1.41,2.14-6,6.21-1.79,1.21-3.18,1-5.15-1.12-2.18-2.44-1.36-2.61-.64-4.43,2.88-7.42,4.38-12.83,5.83-14.07,3.86-3.75,3.86-2.35,8.74-7.51,1.4-1.79,2.16-.92,2.66-1.61.21-.7-.4-.57,1.28-2,3.41-2.83,3.5-4,4.28-3.77,1,.28,1.45.71,3.31-1.48.15-.18.2-.24.28-.35.19-.31.35-.17.29.25a8.56,8.56,0,0,1-3.14,4.42c-1.27.91-.27.77-2.09,2.58-.85.74-1.35,1.23-1.65,1.43a9.48,9.48,0,0,1-2.64,3c-.76.46-1.25.54-1.5,1.39a8.4,8.4,0,0,1-3,4c-2.34,1.83-2.63,1.31-2.69,1.68-.11.85,1.56.55,1.32,2.36-.13.94-2.31-.12-2.81.42-.27.36-.05.7.44.9.24.09,1.78.39,1.64,1.29-.23,1.47-3.61,1.11-4,3-.07.48.53.49.82.13a4.71,4.71,0,0,1,2.74-1.09,17.52,17.52,0,0,0,4-1.14c2.73-1.13,2.79-2.37,3.63-2.22.67.07.72-1.09,1.3-1.89,1.09-1.51,5.15-3.42,5.52-2.47.11.33-.11.51-.43.73A2.58,2.58,0,0,0,633.72,275.33Z" transform="translate(-196.41 -244.07)" fill="#fff"/><path d="M634.59,277.67c-.34-.95-.4-1.07.09-1.83s2.5-1.78,3-.9c0,.38-.61,1.05-.93,1.58S635.11,278.61,634.59,277.67Z" transform="translate(-196.41 -244.07)" fill="#fff"/><path d="M620.24,302.45c.61-.67.29-1.14,0-1.66-.45-.74-3.37-2.79-6.55-5.88a59.87,59.87,0,0,1-5.5-5.93c-.38-.45-.56-1.31-1.16-.76-2,1.75-2.7,2.17-1.54,3.94,1.37,2.07,8,8.8,11.91,11.86C617.81,304.14,618,305.07,620.24,302.45Z" transform="translate(-196.41 -244.07)" fill="#fff"/><rect x="49.09" y="294.94" width="46.25" height="45" fill="none"/><rect x="83.34" y="315.84" width="8.58" height="4.5" fill="#ffc8d2"/><rect x="67.94" y="315.84" width="8.58" height="4.5" fill="#ffc8d2"/><rect x="52.6" y="315.84" width="8.58" height="4.5" fill="#ffc8d2"/><rect x="95.34" y="294.94" width="46.25" height="45" fill="none"/><rect x="129.59" y="315.84" width="8.58" height="4.5" fill="#ffc8d2"/><rect x="114.19" y="315.84" width="8.58" height="4.5" fill="#ffc8d2"/><rect x="98.85" y="315.84" width="8.58" height="4.5" fill="#ffc8d2"/><line x1="49.09" y1="317.43" x2="141.59" y2="317.43" fill="#f7cad1"/><rect x="137.6" y="386.1" width="45" height="34.33" fill="none"/><rect x="158.5" y="388.64" width="4.5" height="6.37" fill="#ffc8d2"/><rect x="158.5" y="400.07" width="4.5" height="6.37" fill="#ffc8d2"/><rect x="158.5" y="411.46" width="4.5" height="6.37" fill="#ffc8d2"/><rect x="137.6" y="351.77" width="45" height="34.33" fill="none"/><rect x="158.5" y="354.3" width="4.5" height="6.37" fill="#ffc8d2"/><rect x="158.5" y="365.73" width="4.5" height="6.37" fill="#ffc8d2"/><rect x="158.5" y="377.13" width="4.5" height="6.37" fill="#ffc8d2"/><rect x="137.6" y="317.43" width="45" height="34.33" fill="none"/><rect x="158.5" y="319.97" width="4.5" height="6.37" fill="#ffc8d2"/><rect x="158.5" y="331.4" width="4.5" height="6.37" fill="#ffc8d2"/><rect x="158.5" y="342.79" width="4.5" height="6.37" fill="#ffc8d2"/><line x1="160.09" y1="420.43" x2="160.09" y2="317.43" fill="#f7cad1"/><rect x="40.59" y="248.94" width="35.88" height="45" fill="none"/><rect x="67.16" y="269.84" width="6.66" height="4.5" fill="#ffc8d2"/><rect x="55.22" y="269.84" width="6.66" height="4.5" fill="#ffc8d2"/><rect x="43.31" y="269.84" width="6.66" height="4.5" fill="#ffc8d2"/><rect x="76.47" y="248.94" width="35.88" height="45" fill="none"/><rect x="103.03" y="269.84" width="6.66" height="4.5" fill="#ffc8d2"/><rect x="91.09" y="269.84" width="6.66" height="4.5" fill="#ffc8d2"/><rect x="79.19" y="269.84" width="6.66" height="4.5" fill="#ffc8d2"/><rect x="112.34" y="248.94" width="35.88" height="45" fill="none"/><rect x="138.91" y="269.84" width="6.66" height="4.5" fill="#ffc8d2"/><rect x="126.97" y="269.84" width="6.66" height="4.5" fill="#ffc8d2"/><rect x="115.06" y="269.84" width="6.66" height="4.5" fill="#ffc8d2"/><rect x="148.22" y="248.94" width="35.88" height="45" fill="none"/><rect x="174.78" y="269.84" width="6.66" height="4.5" fill="#ffc8d2"/><rect x="162.84" y="269.84" width="6.66" height="4.5" fill="#ffc8d2"/><rect x="150.94" y="269.84" width="6.66" height="4.5" fill="#ffc8d2"/><line x1="40.59" y1="271.43" x2="184.09" y2="271.43" fill="#f7cad1"/><rect x="377.26" y="628.95" width="45" height="35.48" transform="translate(-197.77 -243.22) rotate(-0.12)" fill="none"/><rect x="398.15" y="631.57" width="4.5" height="6.59" transform="translate(-197.74 -243.22) rotate(-0.12)" fill="#ffc8d2"/><rect x="398.17" y="643.38" width="4.5" height="6.59" transform="translate(-197.77 -243.22) rotate(-0.12)" fill="#ffc8d2"/><rect x="398.19" y="655.15" width="4.5" height="6.59" transform="translate(-197.8 -243.22) rotate(-0.12)" fill="#ffc8d2"/><rect x="377.19" y="593.47" width="45" height="35.48" transform="translate(-197.69 -243.22) rotate(-0.12)" fill="none"/><rect x="398.07" y="596.09" width="4.5" height="6.59" transform="translate(-197.67 -243.22) rotate(-0.12)" fill="#ffc8d2"/><rect x="398.1" y="607.9" width="4.5" height="6.59" transform="translate(-197.7 -243.22) rotate(-0.12)" fill="#ffc8d2"/><rect x="398.12" y="619.67" width="4.5" height="6.59" transform="translate(-197.72 -243.22) rotate(-0.12)" fill="#ffc8d2"/><rect x="377.11" y="557.98" width="45" height="35.48" transform="translate(-197.62 -243.22) rotate(-0.12)" fill="none"/><rect x="398" y="560.6" width="4.5" height="6.59" transform="translate(-197.59 -243.22) rotate(-0.12)" fill="#ffc8d2"/><rect x="398.02" y="572.42" width="4.5" height="6.59" transform="translate(-197.62 -243.22) rotate(-0.12)" fill="#ffc8d2"/><rect x="398.05" y="584.19" width="4.5" height="6.59" transform="translate(-197.64 -243.22) rotate(-0.12)" fill="#ffc8d2"/><rect x="377.04" y="522.5" width="45" height="35.48" transform="translate(-197.54 -243.22) rotate(-0.12)" fill="none"/><rect x="397.92" y="525.12" width="4.5" height="6.59" transform="translate(-197.52 -243.22) rotate(-0.12)" fill="#ffc8d2"/><rect x="397.95" y="536.93" width="4.5" height="6.59" transform="translate(-197.54 -243.22) rotate(-0.12)" fill="#ffc8d2"/><rect x="397.97" y="548.71" width="4.5" height="6.59" transform="translate(-197.57 -243.22) rotate(-0.12)" fill="#ffc8d2"/><line x1="203.39" y1="420.37" x2="203.09" y2="278.43" fill="#f7cad1"/><path d="M212.32,568.26a2.25,2.25,0,0,0-1.59.55,5,5,0,0,0-1.09,1.89,21.59,21.59,0,0,1-1,2.29,7.12,7.12,0,0,1-1.13,1.66,4.62,4.62,0,0,1-1.51,1.07,5,5,0,0,1-2.06.39,4.57,4.57,0,0,1-3.38-1.32,5.59,5.59,0,0,1-1.54-3.51h-2.61v-1.95h2.65a5.06,5.06,0,0,1,1.8-3.38,5.94,5.94,0,0,1,3.87-1.22v3.53a3.39,3.39,0,0,0-2.19.6,2,2,0,0,0-.73,1.62,2.05,2.05,0,0,0,.57,1.55,2.15,2.15,0,0,0,1.57.55,2.05,2.05,0,0,0,1.49-.54,6,6,0,0,0,1.15-2,22.67,22.67,0,0,1,1.1-2.39,7.12,7.12,0,0,1,1.17-1.59,4.73,4.73,0,0,1,1.49-1,5.11,5.11,0,0,1,2-.34,4.57,4.57,0,0,1,3.37,1.29,5.74,5.74,0,0,1,1.53,3.57h2.42v1.94h-2.41a5.83,5.83,0,0,1-1.78,3.87,5.7,5.7,0,0,1-4,1.38v-3.53a3.25,3.25,0,0,0,2.23-.69,2.5,2.5,0,0,0,.77-2,2.45,2.45,0,0,0-.56-1.7A2,2,0,0,0,212.32,568.26Z" transform="translate(-196.41 -244.07)" fill="pink"/><path d="M217,562H199.23v-6.22a8.16,8.16,0,0,1,1.24-4.91,4.23,4.23,0,0,1,3.63-1.67,4,4,0,0,1,2.3.67,3.91,3.91,0,0,1,1.46,1.87,3.71,3.71,0,0,1,1.38-2.16,4.09,4.09,0,0,1,2.54-.78,4.7,4.7,0,0,1,3.88,1.63A7.39,7.39,0,0,1,217,555Zm-10.33-3.66v-2.71c0-1.85-.77-2.77-2.21-2.77a2.05,2.05,0,0,0-1.74.7,3.74,3.74,0,0,0-.53,2.22v2.56Zm2.59,0h4.8v-3.14a3,3,0,0,0-.62-2,2.12,2.12,0,0,0-1.7-.72,2.23,2.23,0,0,0-2.48,2.52Z" transform="translate(-196.41 -244.07)" fill="pink"/><path d="M213.34,536v6.43l3.66,1.22v3.89l-17.77-6.62v-3.39L217,530.84v3.89Zm-3,5.44V537l-6.65,2.24Z" transform="translate(-196.41 -244.07)" fill="pink"/><path d="M212.34,520a1.9,1.9,0,0,0-1.6.74,9.4,9.4,0,0,0-1.17,2.63,18.57,18.57,0,0,1-1.21,3q-1.63,3-4.41,3a4.3,4.3,0,0,1-2.57-.82,5.24,5.24,0,0,1-1.76-2.33,8.64,8.64,0,0,1-.64-3.41,8,8,0,0,1,.69-3.39,5.38,5.38,0,0,1,2-2.32,5.09,5.09,0,0,1,2.86-.82v3.66a2.4,2.4,0,0,0-1.9.77,3.16,3.16,0,0,0-.68,2.16,3.37,3.37,0,0,0,.57,2.09,1.77,1.77,0,0,0,1.49.74,1.74,1.74,0,0,0,1.46-.87,9.84,9.84,0,0,0,1.09-2.57,11.11,11.11,0,0,1,2.34-4.55,4.59,4.59,0,0,1,3.46-1.43,4.27,4.27,0,0,1,3.62,1.74,7.62,7.62,0,0,1,1.31,4.7,9.09,9.09,0,0,1-.75,3.74,5.92,5.92,0,0,1-2.05,2.57,5.27,5.27,0,0,1-3,.89v-3.68q2.94,0,2.94-3.52a3.4,3.4,0,0,0-.53-2A1.73,1.73,0,0,0,212.34,520Z" transform="translate(-196.41 -244.07)" fill="pink"/><path d="M209.3,503.1v7h4.76v-8.25H217v11.91H199.23V501.91h3v8.22h4.24v-7Z" transform="translate(-196.41 -244.07)" fill="pink"/><path d="M217,499.75H199.23v-5.47a8.33,8.33,0,0,1,1.05-4.19,7.36,7.36,0,0,1,3-2.89,9.25,9.25,0,0,1,4.42-1h.82a9.31,9.31,0,0,1,4.41,1,7.34,7.34,0,0,1,3,2.88,8.43,8.43,0,0,1,1.07,4.18Zm-14.81-3.66h11.87v-1.77a4,4,0,0,0-1.41-3.29,6.38,6.38,0,0,0-4-1.16h-.94a6.43,6.43,0,0,0-4.11,1.13,4,4,0,0,0-1.4,3.28Z" transform="translate(-196.41 -244.07)" fill="pink"/><path d="M212.34,468.05a1.89,1.89,0,0,0-1.6.73,9.65,9.65,0,0,0-1.17,2.64,18.79,18.79,0,0,1-1.21,3q-1.63,3-4.41,3a4.29,4.29,0,0,1-2.57-.81,5.32,5.32,0,0,1-1.76-2.34,8.64,8.64,0,0,1-.64-3.41,8,8,0,0,1,.69-3.39,5.35,5.35,0,0,1,2-2.31,5.1,5.1,0,0,1,2.86-.83V468a2.4,2.4,0,0,0-1.9.77,3.2,3.2,0,0,0-.68,2.16,3.37,3.37,0,0,0,.57,2.09,1.77,1.77,0,0,0,1.49.74,1.74,1.74,0,0,0,1.46-.87,9.84,9.84,0,0,0,1.09-2.57,11.11,11.11,0,0,1,2.34-4.55,4.63,4.63,0,0,1,3.46-1.43,4.26,4.26,0,0,1,3.62,1.75,7.6,7.6,0,0,1,1.31,4.7,9.07,9.07,0,0,1-.75,3.73,5.92,5.92,0,0,1-2.05,2.57,5.27,5.27,0,0,1-3,.89v-3.68q2.94,0,2.94-3.51a3.46,3.46,0,0,0-.53-2A1.72,1.72,0,0,0,212.34,468.05Z" transform="translate(-196.41 -244.07)" fill="pink"/><path d="M199.23,448.45h11.7a6,6,0,0,1,4.62,1.82,7,7,0,0,1,1.69,5,7.15,7.15,0,0,1-1.64,4.94,5.92,5.92,0,0,1-4.53,1.87H199.23v-3.66H211a3.37,3.37,0,0,0,2.54-.84,3.18,3.18,0,0,0,.8-2.31q0-3.09-3.24-3.14H199.23Z" transform="translate(-196.41 -244.07)" fill="pink"/><path d="M210.74,441.76H217v3.66H199.23v-6.93A8,8,0,0,1,200,435a5.37,5.37,0,0,1,2.08-2.33,5.76,5.76,0,0,1,3.07-.82,5.08,5.08,0,0,1,4.12,1.79,7.41,7.41,0,0,1,1.51,4.95Zm-3,0v-3.27a3.26,3.26,0,0,0-.68-2.22,2.5,2.5,0,0,0-2-.76,2.75,2.75,0,0,0-2.94,2.89v3.36Z" transform="translate(-196.41 -244.07)" fill="pink"/><path d="M210.74,425.65H217v3.67H199.23v-6.94a8,8,0,0,1,.73-3.52,5.45,5.45,0,0,1,2.08-2.34,5.85,5.85,0,0,1,3.07-.82,5.11,5.11,0,0,1,4.12,1.79,7.45,7.45,0,0,1,1.51,4.95Zm-3,0v-3.27a3.21,3.21,0,0,0-.68-2.21,2.5,2.5,0,0,0-2-.77,2.75,2.75,0,0,0-2.94,2.9v3.35Z" transform="translate(-196.41 -244.07)" fill="pink"/><path d="M214.06,409.51v-7.77H217v11.43H199.23v-3.66Z" transform="translate(-196.41 -244.07)" fill="pink"/><path d="M207.23,396.92l-8-3.7v-4l11.32,5.83H217v3.73h-6.45l-11.32,5.83v-4Z" transform="translate(-196.41 -244.07)" fill="pink"/><path d="M342.21,706.78a2.22,2.22,0,0,0-.56-1.59,5.07,5.07,0,0,0-1.88-1.1,22,22,0,0,1-2.3-1,7.29,7.29,0,0,1-1.65-1.14,4.6,4.6,0,0,1-1.08-1.5,5.2,5.2,0,0,1-.38-2.07,4.58,4.58,0,0,1,1.32-3.38,5.56,5.56,0,0,1,3.5-1.54v-2.61h1.95v2.65a5.08,5.08,0,0,1,3.39,1.8,6,6,0,0,1,1.22,3.88h-3.53a3.31,3.31,0,0,0-.61-2.19,2,2,0,0,0-1.61-.73,2,2,0,0,0-1.55.57,2.13,2.13,0,0,0-.55,1.57,2.08,2.08,0,0,0,.53,1.48,5.88,5.88,0,0,0,2,1.15,21.73,21.73,0,0,1,2.4,1.11,6.75,6.75,0,0,1,1.59,1.17,4.52,4.52,0,0,1,1,1.49,5.25,5.25,0,0,1,.34,1.94,4.52,4.52,0,0,1-1.3,3.37,5.6,5.6,0,0,1-3.56,1.53v2.43h-1.94v-2.42a5.91,5.91,0,0,1-3.88-1.77,5.77,5.77,0,0,1-1.37-4h3.53a3.23,3.23,0,0,0,.69,2.22,2.5,2.5,0,0,0,2,.78,2.43,2.43,0,0,0,1.7-.57A2,2,0,0,0,342.21,706.78Z" transform="translate(-196.41 -244.07)" fill="pink"/><path d="M348.5,711.45V693.68h6.22a8.16,8.16,0,0,1,4.91,1.24,4.26,4.26,0,0,1,1.67,3.63,4,4,0,0,1-.67,2.3,3.85,3.85,0,0,1-1.87,1.46,3.81,3.81,0,0,1,2.16,1.38,4.11,4.11,0,0,1,.78,2.54,4.68,4.68,0,0,1-1.63,3.88,7.34,7.34,0,0,1-4.67,1.34Zm3.66-10.32h2.71c1.84,0,2.77-.77,2.77-2.21a2.05,2.05,0,0,0-.7-1.74,3.67,3.67,0,0,0-2.22-.53h-2.56Zm0,2.58v4.8h3.13a3,3,0,0,0,2-.61,2.1,2.1,0,0,0,.73-1.71,2.24,2.24,0,0,0-2.53-2.48Z" transform="translate(-196.41 -244.07)" fill="pink"/><path d="M374.48,707.79h-6.42l-1.22,3.66H363l6.61-17.77H373l6.65,17.77h-3.89Zm-5.43-3h4.45l-2.24-6.66Z" transform="translate(-196.41 -244.07)" fill="pink"/><path d="M390.49,706.79a1.9,1.9,0,0,0-.73-1.59,9.65,9.65,0,0,0-2.64-1.17,18.48,18.48,0,0,1-3-1.22c-2-1.09-3-2.56-3-4.4a4.32,4.32,0,0,1,.81-2.58,5.29,5.29,0,0,1,2.33-1.76,8.82,8.82,0,0,1,3.41-.63,8,8,0,0,1,3.39.69,5.43,5.43,0,0,1,2.32,1.94,5.09,5.09,0,0,1,.82,2.86H390.5a2.41,2.41,0,0,0-.77-1.9,3.16,3.16,0,0,0-2.16-.68,3.37,3.37,0,0,0-2.09.57,1.81,1.81,0,0,0-.74,1.5,1.71,1.71,0,0,0,.87,1.45,9.81,9.81,0,0,0,2.57,1.1,11,11,0,0,1,4.55,2.33,4.62,4.62,0,0,1,1.43,3.47,4.3,4.3,0,0,1-1.74,3.62,7.69,7.69,0,0,1-4.7,1.31A9.09,9.09,0,0,1,384,711a5.94,5.94,0,0,1-2.57-2.06,5.27,5.27,0,0,1-.88-3h3.67c0,2,1.17,2.95,3.52,2.95a3.39,3.39,0,0,0,2-.54A1.73,1.73,0,0,0,390.49,706.79Z" transform="translate(-196.41 -244.07)" fill="pink"/><path d="M407.33,703.75h-7v4.76h8.25v2.94H396.64V693.68h11.89v3H400.3v4.23h7Z" transform="translate(-196.41 -244.07)" fill="pink"/><path d="M410.7,711.45V693.68h5.47a8.23,8.23,0,0,1,4.19,1.06,7.27,7.27,0,0,1,2.89,3,9.29,9.29,0,0,1,1,4.43V703a9.31,9.31,0,0,1-1,4.41,7.38,7.38,0,0,1-2.87,3,8.29,8.29,0,0,1-4.19,1.07Zm3.66-14.8v11.86h1.77a4,4,0,0,0,3.29-1.4,6.37,6.37,0,0,0,1.16-4v-.94a6.53,6.53,0,0,0-1.12-4.11,4,4,0,0,0-3.29-1.39Z" transform="translate(-196.41 -244.07)" fill="pink"/><path d="M433.18,711.45V693.68h5.46a8.27,8.27,0,0,1,4.2,1.06,7.31,7.31,0,0,1,2.88,3,9.17,9.17,0,0,1,1,4.43V703a9.31,9.31,0,0,1-1,4.41,7.38,7.38,0,0,1-2.87,3,8.27,8.27,0,0,1-4.19,1.07Zm3.66-14.8v11.86h1.77a4,4,0,0,0,3.28-1.4,6.37,6.37,0,0,0,1.16-4v-.94a6.47,6.47,0,0,0-1.12-4.11,4,4,0,0,0-3.29-1.39Z" transform="translate(-196.41 -244.07)" fill="pink"/><path d="M460.12,703.75h-7v4.76h8.25v2.94H449.42V693.68h11.89v3h-8.22v4.23h7Z" transform="translate(-196.41 -244.07)" fill="pink"/><path d="M468.27,693.68l4.57,12.89,4.54-12.89h4.81v17.77h-3.68V706.6l.37-8.39-4.8,13.24h-2.51l-4.79-13.23.37,8.38v4.85h-3.66V693.68Z" transform="translate(-196.41 -244.07)" fill="pink"/><path d="M495.42,707.79H489l-1.22,3.66h-3.9l6.62-17.77h3.39l6.66,17.77h-3.9Zm-5.43-3h4.44l-2.23-6.66Z" transform="translate(-196.41 -244.07)" fill="pink"/><path d="M516.66,711.45H513l-7.13-11.69v11.69h-3.66V693.68h3.66L513,705.4V693.68h3.65Z" transform="translate(-196.41 -244.07)" fill="pink"/><path d="M519.86,711.45V693.68h5.47a8.23,8.23,0,0,1,4.19,1.06,7.4,7.4,0,0,1,2.89,3,9.28,9.28,0,0,1,1,4.43V703a9.43,9.43,0,0,1-1,4.41,7.34,7.34,0,0,1-2.88,3,8.27,8.27,0,0,1-4.19,1.07Zm3.66-14.8v11.86h1.77a4,4,0,0,0,3.28-1.4,6.31,6.31,0,0,0,1.16-4v-.94a6.47,6.47,0,0,0-1.12-4.11,4,4,0,0,0-3.28-1.39Z" transform="translate(-196.41 -244.07)" fill="pink"/><path d="M396.73,486.89a2.3,2.3,0,0,0-1.51-.75,5.12,5.12,0,0,0-2.11.54,22.19,22.19,0,0,1-2.34.9,7.22,7.22,0,0,1-2,.34,4.59,4.59,0,0,1-1.83-.32,5,5,0,0,1-1.71-1.21,4.55,4.55,0,0,1-1.43-3.33,5.52,5.52,0,0,1,1.43-3.55l-1.83-1.87,1.4-1.37,1.85,1.9a5,5,0,0,1,3.67-1.08,5.94,5.94,0,0,1,3.59,1.91l-2.52,2.47a3.35,3.35,0,0,0-2-1.14,2,2,0,0,0-1.66.61,2.06,2.06,0,0,0-.71,1.49,2.14,2.14,0,0,0,.7,1.5,2,2,0,0,0,1.43.69,5.85,5.85,0,0,0,2.23-.57,20.47,20.47,0,0,1,2.49-.89,7,7,0,0,1,1.95-.28,4.59,4.59,0,0,1,1.75.38,4.88,4.88,0,0,1,1.6,1.15,4.57,4.57,0,0,1,1.44,3.31,5.72,5.72,0,0,1-1.48,3.58l1.7,1.74-1.39,1.36-1.69-1.73a5.85,5.85,0,0,1-4,1.44,5.7,5.7,0,0,1-3.79-1.9l2.52-2.47a3.27,3.27,0,0,0,2.05,1.11,2.51,2.51,0,0,0,2-.83,2.47,2.47,0,0,0,.82-1.6A2,2,0,0,0,396.73,486.89Z" transform="translate(-196.41 -244.07)" fill="pink"/><path d="M404.48,485.85,392,473.15l4.45-4.36a8.24,8.24,0,0,1,4.37-2.55,4.25,4.25,0,0,1,3.74,1.43,4,4,0,0,1,1.13,2.11,3.94,3.94,0,0,1-.31,2.35,3.75,3.75,0,0,1,2.5-.52,4.12,4.12,0,0,1,2.34,1.26,4.7,4.7,0,0,1,1.55,3.92,7.38,7.38,0,0,1-2.39,4.22Zm-4.61-9.94,1.94-1.9c1.29-1.32,1.44-2.49.43-3.52a2.07,2.07,0,0,0-1.72-.75,3.76,3.76,0,0,0-1.95,1.17l-1.83,1.8Zm1.81,1.85,3.36,3.42,2.24-2.19a3,3,0,0,0,1-1.86,2.09,2.09,0,0,0-.67-1.72,2.24,2.24,0,0,0-3.54,0Z" transform="translate(-196.41 -244.07)" fill="pink"/><path d="M420.49,465l-4.59,4.5,1.69,3.47-2.78,2.72-7.71-17.32,2.42-2.38,17.19,8-2.78,2.73Zm-6,1.69,3.17-3.11-6.25-3.19Z" transform="translate(-196.41 -244.07)" fill="pink"/><path d="M431.23,453.12a1.89,1.89,0,0,0-1.64-.62,9.37,9.37,0,0,0-2.7,1,19.14,19.14,0,0,1-3,1.25q-3.3.94-5.25-1a4.31,4.31,0,0,1-1.21-2.41,5.27,5.27,0,0,1,.43-2.89,8.8,8.8,0,0,1,2-2.84,7.92,7.92,0,0,1,2.91-1.88,5.39,5.39,0,0,1,3-.23,5.16,5.16,0,0,1,2.59,1.46l-2.62,2.57a2.37,2.37,0,0,0-1.87-.82,3.16,3.16,0,0,0-2,1,3.3,3.3,0,0,0-1.09,1.86,1.79,1.79,0,0,0,.51,1.59,1.69,1.69,0,0,0,1.64.43,10,10,0,0,0,2.6-1,11.09,11.09,0,0,1,4.89-1.52,4.58,4.58,0,0,1,3.44,1.47,4.27,4.27,0,0,1,1.29,3.81,7.64,7.64,0,0,1-2.44,4.23,9.07,9.07,0,0,1-3.19,2.07,5.91,5.91,0,0,1-3.28.33,5.26,5.26,0,0,1-2.75-1.54l2.63-2.57q2.06,2.1,4.57-.36a3.41,3.41,0,0,0,1.08-1.81A1.74,1.74,0,0,0,431.23,453.12Z" transform="translate(-196.41 -244.07)" fill="pink"/><path d="M441.15,439.15l-5,4.92,3.33,3.4,5.9-5.77,2.06,2.1-8.51,8.34-12.44-12.7,8.49-8.32,2.08,2.12L431.15,439l3,3,5-4.92Z" transform="translate(-196.41 -244.07)" fill="pink"/><path d="M448.93,442.31l-12.44-12.7,3.91-3.83a8.34,8.34,0,0,1,3.74-2.18,7.38,7.38,0,0,1,4.16.13,9.27,9.27,0,0,1,3.84,2.43l.57.59a9.21,9.21,0,0,1,2.35,3.86,7.24,7.24,0,0,1,0,4.15,8.3,8.3,0,0,1-2.24,3.7Zm-7.74-13.14,8.3,8.47,1.26-1.23a4,4,0,0,0,1.37-3.31,6.45,6.45,0,0,0-2-3.68l-.66-.67a6.51,6.51,0,0,0-3.68-2.15,4,4,0,0,0-3.32,1.3Z" transform="translate(-196.41 -244.07)" fill="pink"/><path d="M467.77,423.85l-2.61,2.56-12.44-12.69,2.62-2.57Z" transform="translate(-196.41 -244.07)" fill="pink"/><path d="M480.53,411.36l-2.61,2.56-13.28-3.37,8.18,8.36-2.61,2.56-12.44-12.7,2.62-2.56,13.3,3.37-8.2-8.37,2.61-2.55Z" transform="translate(-196.41 -244.07)" fill="pink"/><path d="M493.56,391.42l-7.14-10.71,2.61-2.56,9.62,15.46L496,396.19l-10.39-6.47,6.25,10.52-2.63,2.58L474,392.88l2.6-2.56,10.55,7.34-6.74-11.07,2.22-2.17Z" transform="translate(-196.41 -244.07)" fill="pink"/><path d="M507.12,380.18l-4.58,4.5,1.69,3.47-2.78,2.72-7.72-17.33,2.43-2.37,17.19,8-2.78,2.73Zm-5.95,1.69,3.17-3.11-6.25-3.19Z" transform="translate(-196.41 -244.07)" fill="pink"/><path d="M515.08,373.39l5.56-5.44,2.06,2.1-8.17,8-12.44-12.7,2.62-2.56Z" transform="translate(-196.41 -244.07)" fill="pink"/><path d="M524.77,363.91l5.56-5.44,2,2.1-8.17,8-12.43-12.7,2.61-2.56Z" transform="translate(-196.41 -244.07)" fill="pink"/><path d="M536.13,346.12l-5,4.92,3.33,3.4,5.9-5.77,2.06,2.1-8.51,8.34-12.44-12.7,8.49-8.32,2.08,2.12L526.13,346l3,3,5-4.92Z" transform="translate(-196.41 -244.07)" fill="pink"/><path d="M543.3,329.15,539.41,333l10.36,10.57-2.61,2.57L536.8,335.52,533,339.28l-2.08-2.12L541.23,327Z" transform="translate(-196.41 -244.07)" fill="pink"/></svg>