<?xml version="1.0" encoding="utf-8"?>
<!-- Generator: Adobe Illustrator 24.0.0, SVG Export Plug-In . SVG Version: 6.00 Build 0)  -->
<svg version="1.1" xmlns="http://www.w3.org/2000/svg" xmlns:xlink="http://www.w3.org/1999/xlink" x="0px" y="0px"
	 viewBox="0 0 50 50" style="enable-background:new 0 0 50 50;" xml:space="preserve">
<style type="text/css">
	.st0{fill:#47DDD2;}
	.st1{display:none;}
	.st2{display:inline;}
	.st3{display:inline;fill-rule:evenodd;clip-rule:evenodd;fill:#47DDD2;}
</style>
<g id="Layer_1">
	<g>
		<path class="st0" d="M20.46,25.21c-1.67,1.12-3.32,2.25-5,3.36c-0.61,0.4-1.34,0.52-2.06,0.58c-1.27,0.11-2.5-0.08-3.71-0.45
			c-2.58-0.79-5.15-1.62-7.71-2.49c-1.09-0.37-1.4-1.57-0.61-2.42c0.62-0.66,1.43-1.03,2.25-1.37c1.25-0.53,2.5-1.04,3.75-1.56
			c1.34-0.55,2.69-1.09,4.03-1.64c1.9-0.78,12.51-5.15,15.91-6.56c2.52-1.04,5.03-2.1,7.55-3.15c2.3-0.96,4.61-1.9,6.9-2.86
			c1.09-0.46,2.17-0.94,3.29-1.35c0.8-0.29,1.63-0.38,2.47-0.22c0.96,0.19,1.41,0.92,1.47,1.89C49.05,8,48.85,9,48.72,10
			c-0.18,1.51-0.42,3.02-0.66,4.52c-0.51,3.3-4.01,25.22-4.23,26.8c-0.12,0.83-0.33,1.6-0.81,2.29c-0.6,0.88-1.47,1.31-2.51,1.19
			c-1.14-0.12-2.2-0.55-3.22-1.08c-1.11-0.57-2.12-1.32-3.16-2.01c-1.38-0.91-2.79-1.79-4.15-2.73c-2.35-1.64-4.75-3.19-6.97-5.02
			c-0.53-0.44-0.97-0.95-1.09-1.65c-0.1-0.55,0.01-1.06,0.35-1.53c0.49-0.68,1.15-1.19,1.75-1.75c1.8-1.68,10.75-10.17,12.13-11.62
			c0.47-0.49,0.84-1.05,1.04-1.71c0.18-0.61-0.08-0.89-0.71-0.77c-0.68,0.13-1.29,0.46-1.88,0.8C32.55,16.97,22,24.18,20.46,25.21z"
			/>
	</g>
</g>
<g id="Layer_2" class="st1">
	<g class="st2">
		<g>
			<path class="st0" d="M49,10.14c0,0,0,0.02,0,0.04c0,0.12,0.02,0.43-0.24,0.77c-1.12,1.51-2.32,2.87-3.83,4
				c-0.22,0.16-0.59,0.34-0.59,0.65c0,7.95-2.03,15.88-7.82,21.64c-7.38,7.33-18.44,9.32-28.27,6.61c-1.9-0.53-3.72-1.26-5.47-2.19
				c-0.58-0.32-1.15-0.64-1.7-1.01c-0.14-0.11-0.25-0.22-0.13-0.29c0.12-0.06,0.21-0.06,0.65,0c2.75,0.27,5.58-0.14,8.18-1.05
				c1.43-0.5,4.5-1.5,5.38-2.85c0.02-0.03,0.04-0.03,0.06-0.06c-0.36-0.08-0.72-0.08-1.07-0.15c-2.67-0.76-6.23-2.1-7.88-6.6
				c-0.1-0.26,0-0.4,0.27-0.35c2.2,0.17,2.99,0.05,3.75-0.12c-0.43-0.07-0.87-0.22-1.27-0.39c-3.36-1.28-5.82-4.56-6.27-8.11
				c-0.05-0.41-0.08-0.76-0.06-1.14c0.02-0.26,0.14-0.35,0.37-0.2c1.73,0.89,3.67,1.1,3.83,1.07c-0.43-0.34-0.83-0.7-1.22-1.07
				c-2.92-2.76-4.05-8.38-1.71-11.88c0.19-0.28,0.32-0.28,0.55-0.02c5.33,6.08,11.9,8.91,19.83,10.09c0.21,0.03,0.23,0,0.2-0.23
				c-0.21-1.4-0.23-2.76,0.1-4.14c0.35-1.43,1.03-2.78,1.96-3.92c0.9-1.11,2.02-2.02,3.28-2.68c1.26-0.66,2.65-1.06,4.07-1.15
				c1.46-0.09,2.93,0.14,4.29,0.69c1.03,0.42,1.94,0.99,2.8,1.71c0.18,0.15,0.34,0.33,0.5,0.52c0.11,0.11,0.23,0.15,0.4,0.11
				c2.03-0.51,3.93-1.22,5.77-2.21c0.08-0.04,0.15-0.06,0.26-0.02c0.08,0.06,0.05,0.17,0.01,0.25c-0.33,1.08-0.91,2.07-1.62,2.95
				c-0.46,0.57-1.61,1.99-2.4,2.12c1.65-0.28,3.33-0.7,4.86-1.39C49.02,10.05,49,10.01,49,10.14z"/>
		</g>
		<g>
			<path class="st0" d="M15.19,44.83C19.27,44.83,15.39,44.83,15.19,44.83C15.73,44.83,15.17,44.83,15.19,44.83z"/>
		</g>
		<g>
			<path class="st0" d="M15.19,44.83C14.4,44.83,15.13,44.83,15.19,44.83C15.06,44.83,15.19,44.83,15.19,44.83z"/>
		</g>
		<g>
			<path class="st0" d="M16.81,44.87C17.66,44.87,16.81,44.79,16.81,44.87C16.92,44.87,16.81,44.83,16.81,44.87z"/>
		</g>
		<g>
			<path class="st0" d="M33.62,5.45c0.07,0.04,0.15,0.04,0.2,0C33.77,5.45,33.69,5.45,33.62,5.45z"/>
		</g>
	</g>
</g>
<g id="Layer_3" class="st1">
	<path class="st3" d="M24.64,4.03c-11.88,0-21.51,9.63-21.51,21.52c0,9.5,6.16,17.57,14.71,20.41c1.08,0.2,1.47-0.47,1.47-1.04
		c0-0.51-0.02-1.86-0.03-3.66c-5.98,1.3-7.25-2.88-7.25-2.88c-0.98-2.49-2.39-3.15-2.39-3.15c-1.95-1.33,0.15-1.31,0.15-1.31
		c2.16,0.15,3.3,2.22,3.3,2.22c1.92,3.29,5.04,2.34,6.26,1.79c0.2-1.39,0.75-2.34,1.37-2.88c-4.78-0.54-9.8-2.39-9.8-10.63
		c0-2.35,0.84-4.27,2.21-5.77c-0.22-0.54-0.96-2.73,0.21-5.69c0,0,1.81-0.58,5.92,2.21c1.72-0.48,3.56-0.72,5.39-0.72
		c1.83,0.01,3.67,0.25,5.39,0.72c4.11-2.78,5.91-2.21,5.91-2.21c1.17,2.96,0.44,5.15,0.21,5.69c1.38,1.5,2.21,3.42,2.21,5.77
		c0,8.27-5.03,10.08-9.82,10.62C29.31,35.7,30,37.02,30,39.02c0,2.88-0.03,5.2-0.03,5.9c0,0.58,0.39,1.24,1.48,1.03
		c8.54-2.85,14.7-10.91,14.7-20.41C46.15,13.66,36.52,4.03,24.64,4.03z"/>
</g>
<g id="Layer_4" class="st1">
	<g class="st2">
		<g>
			<path class="st0" d="M27.18,36.69c-0.87,0-1.58-0.71-1.58-1.58c0-0.32-0.26-0.58-0.58-0.58c-0.32,0-0.58,0.26-0.58,0.58
				c0,0.87-0.71,1.58-1.58,1.58c-0.87,0-1.58-0.71-1.58-1.58c0-2.07,1.68-3.75,3.75-3.75c2.07,0,3.75,1.68,3.75,3.75
				C28.76,35.98,28.05,36.69,27.18,36.69z"/>
		</g>
		<circle class="st0" cx="17.74" cy="25.72" r="5.21"/>
		<circle class="st0" cx="32.29" cy="25.72" r="5.21"/>
		<g>
			<path class="st0" d="M33.49,47H16.54c-0.87,0-1.58-0.71-1.58-1.58v-5.04h-1.62c-2.51,0-4.55-2.04-4.55-4.55v-0.06
				c0-1.07,0.37-2.07,1.02-2.87c-2.31-3.17-3.57-7-3.57-10.96V21.6c0-2.51,0.49-4.95,1.46-7.24c0.94-2.22,2.28-4.2,3.99-5.91
				c1.71-1.71,3.7-3.05,5.91-3.99C19.9,3.49,22.33,3,24.84,3h0.34c2.51,0,4.95,0.49,7.24,1.46c2.22,0.94,4.2,2.28,5.91,3.99
				c1.71,1.71,3.05,3.7,3.99,5.91c0.97,2.29,1.46,4.73,1.46,7.24v0.34c0,3.95-1.26,7.79-3.57,10.96c0.65,0.79,1.02,1.8,1.02,2.87
				v0.06c0,2.51-2.04,4.55-4.55,4.55h-1.62v5.04C35.07,46.29,34.36,47,33.49,47z M18.13,43.84h13.78v-5.04
				c0-0.87,0.71-1.58,1.58-1.58h3.2c0.76,0,1.38-0.62,1.38-1.38v-0.06c0-0.52-0.29-1-0.76-1.23c-0.44-0.22-0.75-0.63-0.84-1.11
				c-0.09-0.48,0.04-0.98,0.36-1.34c2.45-2.81,3.8-6.41,3.8-10.14V21.6c0-4.12-1.61-8-4.52-10.91c-2.92-2.92-6.79-4.52-10.91-4.52
				h-0.34c-4.12,0-8,1.61-10.91,4.52c-2.92,2.92-4.52,6.79-4.52,10.91v0.34c0,3.73,1.35,7.33,3.8,10.14
				c0.32,0.37,0.45,0.86,0.36,1.34c-0.09,0.48-0.4,0.89-0.84,1.11c-0.47,0.24-0.76,0.71-0.76,1.23v0.06c0,0.76,0.62,1.38,1.38,1.38
				h3.2c0.87,0,1.58,0.71,1.58,1.58V43.84z"/>
		</g>
		<g>
			<path class="st0" d="M22.35,46.39c-0.73,0-1.32-0.59-1.32-1.32v-3.24c0-0.73,0.59-1.32,1.32-1.32c0.73,0,1.32,0.59,1.32,1.32
				v3.24C23.67,45.8,23.08,46.39,22.35,46.39z"/>
		</g>
		<g>
			<path class="st0" d="M27.68,46.39c-0.73,0-1.32-0.59-1.32-1.32v-3.24c0-0.73,0.59-1.32,1.32-1.32c0.73,0,1.32,0.59,1.32,1.32
				v3.24C29,45.8,28.41,46.39,27.68,46.39z"/>
		</g>
	</g>
</g>
<g id="Layer_5" class="st1">
	<g class="st2">
		<path class="st0" d="M25.56,24.64c0.91,1.6-1.12,2.09-2.07,2.18c-1.44,0.14-1.74-0.69-1.46-1.74c0.09-0.37,0.3-0.71,0.59-0.96
			c0.29-0.25,0.65-0.41,1.03-0.45c0.38-0.03,0.76,0.04,1.09,0.21C25.09,24.05,25.37,24.32,25.56,24.64L25.56,24.64z"/>
		<path class="st0" d="M31.23,21.69c-1.05,8.06,13.16,6.39,12.89,12.81c1.4-1.82,2-6.77-2.12-9.32
			C38.32,22.9,33.52,24.14,31.23,21.69z"/>
		<path class="st0" d="M39.42,18.65c-0.09-0.09-0.19-0.17-0.28-0.25C39.23,18.48,39.32,18.57,39.42,18.65z"/>
		<path class="st0" d="M42.72,24.52l-0.01-0.01c-0.13-0.24-0.27-0.47-0.44-0.68c-0.48-0.65-1.17-1.11-1.95-1.32
			c-0.52-0.13-1.05-0.22-1.59-0.25c-0.54-0.04-1.1-0.06-1.66-0.09c-1.12-0.06-2.27-0.18-3.39-0.5c-0.28-0.08-0.56-0.17-0.83-0.27
			c-0.14-0.05-0.27-0.11-0.41-0.16c-0.14-0.06-0.28-0.13-0.42-0.2c-0.53-0.29-1.02-0.64-1.45-1.06c-0.86-0.8-1.54-1.71-2.22-2.6
			c-0.64-0.89-1.33-1.74-2.06-2.55c-0.72-0.8-1.58-1.46-2.52-1.97c-0.98-0.49-2.05-0.8-3.14-0.9c1.14-0.12,2.28,0.02,3.36,0.41
			c1.08,0.42,2.07,1.05,2.91,1.85c0.55,0.51,1.06,1.06,1.54,1.64c3.56-0.7,6.45-0.08,8.67,1.13l0.05,0.03
			c0.71,0.38,1.37,0.84,1.97,1.37c0.1,0.08,0.19,0.17,0.28,0.25c0.47,0.43,0.91,0.9,1.32,1.4l0.03,0.04
			C42.07,21.75,42.72,23.47,42.72,24.52z"/>
		<path class="st0" d="M20.81,13.01c0.91,0.13,1.84,0.49,2.43,1.18c0.6,0.69,0.82,1.59,0.99,2.44c0.14,0.66,0.25,1.34,0.51,1.96
			c0.13,0.31,0.31,0.57,0.47,0.86c0.13,0.24,0.36,0.46,0.45,0.71c0.02,0.04,0.02,0.08,0.02,0.12c0,0.04-0.02,0.08-0.04,0.11
			c-0.32,0.35-1.17-0.04-1.49-0.2c-0.56-0.28-1.06-0.66-1.47-1.12c-1.29-1.44-1.96-3.51-1.92-5.39
			C20.75,13.46,20.77,13.23,20.81,13.01z"/>
		<path class="st0" d="M36,29.21c-1.96,5.48,6.94,9.15,3.6,14.72c3.42-1.41,5.05-5.68,3.63-9.07C41.99,31.89,38.32,30.8,36,29.21z"
			/>
		<path class="st0" d="M24.23,36.37c0.53-0.4,1.12-0.74,1.74-0.99c0.63-0.25,1.28-0.44,1.94-0.56c1.32-0.25,2.62-0.31,3.72-0.75
			c0.54-0.21,1.04-0.52,1.47-0.91c0.42-0.39,0.74-0.87,0.93-1.4c0.2-0.56,0.28-1.16,0.24-1.76c-0.05-0.64-0.19-1.27-0.43-1.87
			c0.49,0.51,0.84,1.13,1.04,1.81c0.19,0.68,0.21,1.39,0.06,2.08c-0.17,0.73-0.54,1.4-1.07,1.93c-0.52,0.51-1.15,0.91-1.85,1.15
			c-0.66,0.23-1.35,0.37-2.05,0.42c-0.67,0.06-1.32,0.07-1.96,0.11C26.72,35.68,25.44,35.93,24.23,36.37L24.23,36.37z"/>
		<path class="st0" d="M36.79,46c-0.2,0.16-0.4,0.32-0.61,0.47c-0.22,0.14-0.45,0.27-0.69,0.38c-0.49,0.24-1.04,0.36-1.59,0.36
			c-1.49-0.03-2.55-1.14-3.16-2.39c-0.42-0.86-0.71-1.78-1.21-2.59c-0.71-1.17-1.93-2.1-3.37-1.93c-0.58,0.07-1.13,0.34-1.45,0.84
			c-0.85,1.32,0.37,3.17,1.93,2.91c0.13-0.02,0.26-0.06,0.39-0.11c0.12-0.05,0.24-0.12,0.34-0.21c0.22-0.18,0.38-0.42,0.48-0.69
			c0.1-0.28,0.13-0.58,0.07-0.87c-0.06-0.3-0.24-0.57-0.5-0.75c0.3,0.14,0.53,0.39,0.65,0.7c0.12,0.32,0.15,0.66,0.09,1
			c-0.06,0.35-0.22,0.68-0.45,0.95c-0.12,0.14-0.26,0.26-0.42,0.36c-0.16,0.1-0.32,0.18-0.49,0.23c-0.35,0.12-0.73,0.16-1.1,0.11
			c-0.52-0.07-1.01-0.29-1.42-0.61c-0.48-0.38-0.84-0.88-1.28-1.31c-0.5-0.52-1.09-0.96-1.74-1.27c-0.45-0.2-0.92-0.34-1.4-0.43
			c-0.24-0.05-0.49-0.09-0.73-0.12c-0.11-0.01-0.66-0.13-0.74-0.06c0.76-0.7,1.59-1.32,2.47-1.85c0.91-0.54,1.88-0.95,2.89-1.24
			c1.05-0.3,2.15-0.38,3.24-0.25c0.56,0.07,1.11,0.21,1.63,0.42c0.55,0.22,1.05,0.53,1.49,0.92c0.43,0.41,0.79,0.9,1.03,1.44
			c0.22,0.51,0.39,1.04,0.5,1.59c0.32,1.63,0.2,4.16,2.34,4.53c0.11,0.02,0.22,0.04,0.34,0.05l0.35,0.01
			c0.24-0.02,0.48-0.05,0.71-0.1C35.86,46.37,36.33,46.21,36.79,46L36.79,46z"/>
		<path class="st0" d="M24.38,44.23l-0.06-0.04L24.38,44.23z"/>
		<path class="st0" d="M22.46,21.21c-0.08,0.3-0.21,0.58-0.4,0.83c-0.35,0.45-0.8,0.8-1.33,1.02c-0.47,0.2-0.97,0.33-1.48,0.39
			c-0.11,0.01-0.23,0.02-0.34,0.03c-0.32,0.01-0.63,0.13-0.89,0.33c-0.25,0.2-0.43,0.48-0.52,0.79c-0.04,0.16-0.07,0.31-0.09,0.47
			c-0.05,0.41-0.06,0.84-0.1,1.36c-0.11,0.88-0.37,1.74-0.76,2.54c-0.51,1.07-1.08,1.93-0.94,3.16c0.09,0.8,0.5,1.33,1.04,1.89
			c0.98,1,3.18,1.45,2.69,3.93c-0.3,1.48-2.74,3.03-6.18,3.57c0.34-0.05-0.44-1.37-0.49-1.45c-0.37-0.58-0.77-1.12-1.07-1.75
			c-0.57-1.22-0.84-2.62-0.61-3.95c0.25-1.4,1.29-2.48,2.15-3.55c1.03-1.27,2.1-2.94,2.34-4.6c0.06-0.4,0.1-0.9,0.19-1.4
			c0.09-0.55,0.26-1.09,0.51-1.59c0.17-0.33,0.4-0.62,0.68-0.87c0.14-0.13,0.24-0.31,0.27-0.5c0.03-0.19,0-0.39-0.1-0.56l-5.48-9.87
			l7.88,9.72c0.09,0.11,0.2,0.2,0.33,0.27c0.13,0.06,0.27,0.1,0.41,0.1c0.14,0,0.29-0.03,0.42-0.08c0.13-0.06,0.25-0.14,0.34-0.25
			l0,0c0.1-0.12,0.16-0.26,0.16-0.42c0-0.15-0.05-0.3-0.14-0.42c-0.51-0.66-1.06-1.33-1.59-1.99l-1.98-2.45L13.41,11L5.43,1.21
			l8.49,9.34l4.24,4.68l2.11,2.35c0.7,0.79,1.4,1.55,2.1,2.38l0.11,0.14l0.03,0.22C22.55,20.62,22.53,20.92,22.46,21.21L22.46,21.21
			z"/>
		<path class="st0" d="M24.28,44.16c-0.38-0.29-0.72-0.64-1.01-1.02C23.58,43.5,23.92,43.84,24.28,44.16L24.28,44.16z"/>
	</g>
</g>
<g id="Layer_6" class="st1">
</g>
</svg>
